<?xml version="1.0" standalone="no"?>
<!DOCTYPE svg PUBLIC "-//W3C//DTD SVG 1.1//EN" "http://www.w3.org/Graphics/SVG/1.1/DTD/svg11.dtd" >
<svg xmlns="http://www.w3.org/2000/svg" xmlns:xlink="http://www.w3.org/1999/xlink" version="1.1">
<metadata>
Created by FontForge 20160405 at Thu May 26 08:36:17 2016
 By www-data
Copyright (c) 2013 by Gilang Purnama Jaya @ Decade Lettering Studios. All rights reserved.
</metadata>
<defs>
<font id="Appleton" horiz-adv-x="194" >
  <font-face 
    font-family="Appleton "
    font-weight="400"
    font-stretch="normal"
    units-per-em="1000"
    panose-1="0 0 0 0 0 0 0 0 0 0"
    ascent="750"
    descent="-250"
    x-height="375"
    cap-height="715"
    bbox="-1707.56 -390.36 2460 990"
    underline-thickness="50"
    underline-position="-100"
    unicode-range="U+000D-FB04"
  />
<missing-glyph horiz-adv-x="195" 
 />
    <glyph glyph-name="f_b" unicode="fb" horiz-adv-x="546" 
d="M559 193c2 -1 2 -3 -1 -4c-29 -16 -33 -38 -42 -63c-42 -113 -163 -167 -223 -104c-36 -25 -65 -22 -97 -21c-2 -1 -3 2 1 4c19 14 34 38 41 62l20 75c4 18 3 35 -12 47c-2 1 -2 3 1 4c22 12 31 29 37 47c27 99 53 198 80 297c-4 17 -15 29 -39 26
c-28 -3 -62 -26 -80 -86c-11 -42 -10 -38 -22 -80h59c3 0 3 -3 1 -5l-20 -30c-2 -2 -6 -5 -8 -5h-42c-11 -39 -21 -78 -32 -117c-4 -18 -3 -35 12 -47c2 -1 2 -3 -1 -4c-22 -12 -31 -29 -37 -47c-7 -25 -13 -50 -20 -75c-6 -24 -4 -48 8 -62c2 -2 0 -5 -2 -4h-139
c-2 -1 -3 2 0 4c20 14 35 38 41 62l20 75c4 18 4 35 -11 47c-2 1 -2 3 1 4c22 12 31 29 37 47l31 117h-32c-2 0 -3 3 -1 5l20 30c2 2 6 5 9 5h15l26 88c31 104 153 138 225 103c12 -6 23 -14 34 -20c23 17 45 39 58 66c1 3 7 3 6 0c-24 -89 -49 -182 -72 -270
c42 42 100 43 123 4c24 -41 19 -80 13 -132c-2 -17 0 -32 14 -43zM462 236c6 26 16 101 -5 112c-26 12 -54 -28 -66 -49c-3 -13 -12 -46 -15 -59c-4 -18 -4 -35 11 -47c2 -1 2 -3 -1 -4c-22 -12 -31 -29 -37 -47c-5 -19 -17 -60 -22 -79c6 -22 27 -29 49 -18
c37 18 61 79 62 113c1 12 -3 22 -14 31c-2 1 -1 3 2 4c22 12 31 26 36 43z" />
    <glyph glyph-name="f_f_b" unicode="ffb" horiz-adv-x="740" 
d="M753 193c2 -1 2 -3 -1 -4c-29 -16 -32 -38 -42 -63c-41 -113 -163 -167 -223 -104c-36 -25 -65 -22 -96 -21c-3 -1 -4 2 0 4c19 14 35 38 41 62l20 75c4 18 4 35 -12 47c-2 1 -1 3 1 4c22 12 31 29 37 47c27 99 53 198 80 297c-3 17 -15 29 -39 26
c-28 -3 -61 -26 -80 -86c-11 -42 -10 -38 -21 -80h58c3 0 4 -3 2 -5l-21 -30c-2 -2 -5 -5 -8 -5h-42c-10 -39 -21 -78 -31 -117c-4 -18 -4 -35 11 -47c2 -1 2 -3 -1 -4c-22 -12 -31 -29 -37 -47c-6 -25 -13 -50 -20 -75c-6 -24 -4 -48 8 -62c3 -2 0 -5 -2 -4h-139
c-2 -1 -3 2 1 4c19 14 34 38 41 62l20 75c4 18 3 35 -12 47c-2 1 -2 3 1 4c22 12 31 29 37 47l31 117h-102l-32 -117c-4 -18 -3 -35 12 -47c2 -1 2 -3 -1 -4c-22 -12 -31 -29 -37 -47l-20 -75c-6 -24 -4 -48 8 -62c2 -2 0 -5 -2 -4h-139c-2 -1 -3 2 0 4c20 14 35 38 41 62
l20 75c4 18 4 35 -11 47c-2 1 -2 3 1 4c22 12 31 29 37 47l31 117h-32c-2 0 -3 3 -1 5l20 30c2 2 6 5 9 5h15l21 71c24 80 101 118 168 116c23 -1 55 -10 80 -24c51 43 126 52 176 28c12 -6 23 -14 34 -20c24 17 46 39 58 66c2 3 7 3 6 0c-23 -89 -48 -182 -72 -270
c42 42 100 43 123 4c25 -41 19 -80 13 -132c-2 -17 1 -32 14 -43zM360 508c0 22 -11 42 -40 38c-28 -3 -62 -26 -80 -86c-11 -42 -5 -21 -17 -63h103zM656 236c7 26 17 101 -5 112c-25 12 -54 -28 -65 -49c-4 -13 -13 -46 -16 -59c-4 -18 -4 -35 12 -47c2 -1 1 -3 -1 -4
c-22 -12 -32 -29 -38 -47c-4 -19 -16 -60 -21 -79c6 -22 26 -29 49 -18c37 18 60 79 62 113c0 12 -4 22 -14 31c-2 1 -2 3 1 4c22 12 32 26 36 43z" />
    <glyph glyph-name="f_f" unicode="ff" horiz-adv-x="388" 
d="M652 553c4 2 7 -2 5 -5c-42 -34 -83 -69 -124 -104c-6 -4 -11 2 -6 7c5 6 11 12 15 19c19 29 19 82 -28 76c-28 -3 -62 -26 -80 -86c-11 -42 -5 -21 -17 -63h59c3 0 3 -3 1 -5l-20 -30c-2 -2 -6 -5 -8 -5h-42l-32 -117c-4 -18 -3 -35 12 -47c2 -1 2 -3 -1 -4
c-22 -12 -31 -29 -37 -47l-20 -75c-6 -24 -4 -48 8 -62c2 -2 0 -5 -2 -4h-139c-2 -1 -3 2 0 4c20 14 35 38 41 62l20 75c4 18 4 35 -11 47c-2 1 -2 3 1 4c22 12 31 29 37 47l31 117h-102l-32 -117c-4 -18 -3 -35 12 -47c2 -1 2 -3 -1 -4c-22 -12 -31 -29 -37 -47l-20 -75
c-6 -24 -4 -48 8 -62c2 -2 0 -5 -2 -4h-139c-2 -1 -3 2 0 4c20 14 35 38 41 62l20 75c4 18 4 35 -11 47c-2 1 -2 3 1 4c22 12 31 29 37 47l31 117h-32c-2 0 -3 3 -1 5l20 30c2 2 6 5 9 5h15l21 71c24 80 101 118 168 116c26 -1 65 -13 89 -31c50 34 116 40 162 18
c27 -14 51 -39 80 -18zM360 508c0 22 -11 42 -40 38c-28 -3 -62 -26 -80 -86c-11 -42 -5 -21 -17 -63h103z" />
    <glyph glyph-name="f_h" unicode="fh" horiz-adv-x="555" 
d="M401 334c20 25 70 62 109 62c35 0 54 -23 55 -50c1 -28 -12 -66 -20 -95c-6 -24 -10 -44 9 -58c2 -1 2 -3 -1 -4c-21 -12 -30 -27 -36 -44l-16 -61c-15 -47 24 -57 49 -5c1 3 6 3 5 0c-8 -56 -49 -90 -98 -90c-55 0 -62 44 -48 95l15 56c4 19 4 36 -12 49c-2 1 -1 3 1 4
c25 13 34 32 39 53c4 13 18 61 17 72c0 7 -4 12 -11 12c-15 0 -58 -36 -80 -82c0 -1 -3 -13 -4 -14c-2 -16 0 -30 13 -41c2 -1 2 -3 -1 -4c-22 -12 -31 -29 -37 -47c-6 -25 -13 -50 -20 -75c-6 -24 -4 -48 8 -62c2 -2 0 -5 -2 -4h-139c-2 -1 -3 2 1 4c19 14 34 38 41 62
l20 75c4 18 3 35 -12 47c-2 1 -2 3 1 4c22 12 31 29 37 47c27 99 53 198 80 297c-4 17 -15 29 -39 26c-28 -3 -62 -26 -80 -86c-11 -42 -10 -38 -22 -80h59c3 0 3 -3 1 -5l-20 -30c-2 -2 -6 -5 -8 -5h-42c-11 -39 -21 -78 -32 -117c-4 -18 -3 -35 12 -47c2 -1 2 -3 -1 -4
c-22 -12 -31 -29 -37 -47c-7 -25 -13 -50 -20 -75c-6 -24 -4 -48 8 -62c2 -2 0 -5 -2 -4h-139c-2 -1 -3 2 0 4c20 14 35 38 41 62l20 75c4 18 4 35 -11 47c-2 1 -2 3 1 4c22 12 31 29 37 47l31 117h-32c-2 0 -3 3 -1 5l20 30c2 2 6 5 9 5h15l26 88c31 104 153 138 225 103
c12 -6 23 -14 34 -20c23 17 45 39 58 66c1 3 7 3 6 0c-27 -100 -54 -200 -80 -300z" />
    <glyph glyph-name="f_f_h" unicode="ffh" horiz-adv-x="749" 
d="M711 145l-16 -61c-15 -47 25 -57 49 -5c2 3 6 3 5 0c-7 -56 -49 -90 -98 -90c-55 0 -62 44 -48 95l15 56c4 19 5 36 -11 49c-2 1 -2 3 1 4c24 13 33 32 39 53c3 13 17 61 16 72c0 7 -3 12 -11 12c-14 0 -58 -36 -80 -82c0 -1 -3 -13 -3 -14c-3 -16 -1 -30 13 -41
c2 -1 1 -3 -1 -4c-23 -12 -32 -29 -38 -47c-6 -25 -13 -50 -20 -75c-6 -24 -4 -48 8 -62c3 -2 1 -5 -2 -4h-138c-3 -1 -4 2 0 4c19 14 35 38 41 62l20 75c4 18 4 35 -12 47c-2 1 -1 3 1 4c22 12 31 29 37 47c27 99 53 198 80 297c-3 17 -15 29 -39 26
c-28 -3 -61 -26 -80 -86c-11 -42 -10 -38 -21 -80h58c3 0 3 -3 2 -5l-21 -30c-2 -2 -5 -5 -8 -5h-42c-10 -39 -21 -78 -31 -117c-4 -18 -4 -35 11 -47c2 -1 2 -3 -1 -4c-22 -12 -31 -29 -37 -47c-7 -25 -13 -50 -20 -75c-6 -24 -4 -48 8 -62c2 -2 0 -5 -2 -4h-139
c-2 -1 -3 2 1 4c19 14 34 38 41 62l20 75c4 18 3 35 -12 47c-2 1 -2 3 1 4c22 12 31 29 37 47l31 117h-102l-32 -117c-4 -18 -3 -35 12 -47c2 -1 2 -3 -1 -4c-22 -12 -31 -29 -37 -47l-20 -75c-6 -24 -4 -48 8 -62c2 -2 0 -5 -2 -4h-139c-2 -1 -3 2 0 4c20 14 35 38 41 62
l20 75c4 18 4 35 -11 47c-2 1 -2 3 1 4c22 12 31 29 37 47l31 117h-32c-2 0 -3 3 -1 5l20 30c2 2 6 5 9 5h15l21 71c24 80 101 118 168 116c23 -1 55 -10 80 -24c51 43 126 52 176 28c12 -6 23 -14 34 -20c24 17 46 39 58 66c2 3 7 3 6 0c-27 -100 -53 -200 -80 -300
c20 25 70 62 109 62c35 0 54 -23 56 -50c0 -28 -13 -66 -21 -95c-6 -24 -10 -44 9 -58c2 -1 2 -3 -1 -4c-21 -12 -30 -27 -36 -44zM360 508c0 11 -3 21 -9 29c-16 17 -48 7 -64 -4c-19 -13 -36 -36 -47 -73c-11 -42 -5 -21 -17 -63h103z" />
    <glyph glyph-name="f_i" unicode="fi" horiz-adv-x="388" 
d="M416 405c1 2 4 2 4 0l-36 -135c-8 -29 -21 -59 3 -77c2 -1 2 -3 -1 -4c-34 -19 -37 -48 -45 -78c-4 -14 -8 -29 -12 -44c-6 -24 -4 -48 8 -62c2 -1 1 -4 -1 -4h-141c-2 0 -1 3 2 4c19 14 34 38 41 62l12 44c7 30 20 59 -4 78c-2 1 -2 3 1 4c34 18 37 48 45 77l14 52
c5 19 6 34 -6 44c-1 2 1 5 3 4c27 -4 93 12 113 35zM273 581c80 22 176 -11 174 -89c-2 -42 -38 -85 -85 -85c-31 0 -42 25 -25 55c7 14 19 27 33 37c4 25 -17 51 -50 47c-28 -3 -62 -26 -80 -86c-11 -42 -5 -21 -17 -63h59c3 0 3 -3 1 -5l-20 -30c-2 -2 -6 -5 -8 -5h-42
l-32 -117c-4 -18 -3 -35 12 -47c2 -1 2 -3 -1 -4c-22 -12 -31 -29 -37 -47l-20 -75c-6 -24 -4 -48 8 -62c2 -2 0 -5 -2 -4h-139c-2 -1 -3 2 0 4c20 14 35 38 41 62l20 75c4 18 4 35 -11 47c-2 1 -2 3 1 4c22 12 31 29 37 47l31 117h-32c-2 0 -3 3 -1 5l20 30c2 2 6 5 9 5h15
l21 71c15 52 67 99 120 113z" />
    <glyph glyph-name="f_f_i" unicode="ffi" horiz-adv-x="582" 
d="M610 405c1 2 4 2 4 0l-36 -135c-8 -29 -21 -59 3 -77c2 -1 2 -3 -1 -4c-34 -19 -37 -48 -45 -78c-4 -14 -8 -29 -12 -44c-6 -24 -4 -48 8 -62c2 -1 1 -4 -1 -4h-141c-2 0 -1 3 2 4c19 14 34 38 41 62l12 44c7 30 20 59 -4 78c-2 1 -2 3 1 4c34 18 37 48 45 77l14 52
c5 19 6 34 -6 44c-1 2 1 5 3 4c27 -4 93 12 113 35zM410 553c80 63 234 38 231 -61c-2 -42 -38 -85 -85 -85c-31 0 -42 25 -25 55c7 14 19 27 33 37c4 25 -17 51 -50 47c-28 -3 -62 -26 -80 -86c-11 -42 -5 -21 -17 -63h59c3 0 3 -3 1 -5l-20 -30c-2 -2 -6 -5 -8 -5h-42
l-32 -117c-4 -18 -3 -35 12 -47c2 -1 2 -3 -1 -4c-22 -12 -31 -29 -37 -47l-20 -75c-6 -24 -4 -48 8 -62c2 -2 0 -5 -2 -4h-139c-2 -1 -3 2 0 4c20 14 35 38 41 62l20 75c4 18 4 35 -11 47c-2 1 -2 3 1 4c22 12 31 29 37 47l31 117h-102l-32 -117c-4 -18 -3 -35 12 -47
c2 -1 2 -3 -1 -4c-22 -12 -31 -29 -37 -47l-20 -75c-6 -24 -4 -48 8 -62c2 -2 0 -5 -2 -4h-139c-2 -1 -3 2 0 4c20 14 35 38 41 62l20 75c4 18 4 35 -11 47c-2 1 -2 3 1 4c22 12 31 29 37 47l31 117h-32c-2 0 -3 3 -1 5l20 30c2 2 6 5 9 5h15l21 71c24 80 101 118 168 116
c26 -1 65 -13 89 -31zM353 504c1 25 -6 45 -33 42c-28 -3 -62 -26 -80 -86c-11 -42 -5 -21 -17 -63h103l21 71c4 13 6 23 6 36z" />
    <glyph glyph-name="f_j" unicode="fj" horiz-adv-x="388" 
d="M415 405c1 2 4 2 4 0l-36 -135c-8 -29 -21 -59 3 -77c2 -1 2 -3 -1 -4c-34 -19 -37 -48 -45 -78c-14 -50 -27 -100 -41 -150c-21 -78 -53 -151 -137 -169c-22 -4 -50 -5 -72 -1c-35 8 -70 29 -97 -4c-4 -3 -8 1 -7 5c38 51 74 104 110 156c5 7 13 1 9 -6
c-4 -8 -9 -17 -12 -26c-6 -20 -6 -46 4 -63c21 -33 61 -12 79 14c8 12 13 25 18 43l54 201c8 30 21 59 -3 78c-2 1 -2 3 1 4c34 18 37 48 45 77l14 52c5 19 6 34 -6 44c-1 2 1 5 3 4c27 -4 93 12 113 35zM273 581c80 22 176 -11 174 -89c-2 -42 -38 -85 -85 -85
c-31 0 -42 25 -25 55c7 14 19 27 33 37c4 25 -17 51 -50 47c-28 -3 -62 -26 -80 -86c-11 -42 -5 -21 -17 -63h59c3 0 3 -3 1 -5l-20 -30c-2 -2 -6 -5 -8 -5h-42l-32 -117c-4 -18 -3 -35 12 -47c2 -1 2 -3 -1 -4c-22 -12 -31 -29 -37 -47l-20 -75c-6 -24 -4 -48 8 -62
c2 -2 0 -5 -2 -4h-139c-2 -1 -3 2 0 4c20 14 35 38 41 62l20 75c4 18 4 35 -11 47c-2 1 -2 3 1 4c22 12 31 29 37 47l31 117h-32c-2 0 -3 3 -1 5l20 30c2 2 6 5 9 5h15l21 71c15 52 67 99 120 113z" />
    <glyph glyph-name="f_f_j" unicode="ffj" horiz-adv-x="582" 
d="M610 405c1 2 4 2 4 0l-36 -135c-8 -29 -21 -59 3 -77c2 -1 2 -3 -1 -4c-34 -19 -37 -48 -45 -78c-13 -50 -27 -100 -40 -150c-21 -78 -54 -151 -138 -169c-22 -4 -49 -5 -72 -1c-35 8 -70 29 -97 -4c-4 -3 -8 1 -7 5c38 51 74 104 110 156c6 7 13 1 9 -6
c-4 -8 -9 -17 -11 -26c-7 -20 -7 -46 3 -63c21 -33 62 -12 79 14c8 12 13 25 19 43c17 67 36 134 54 201c7 30 20 59 -4 78c-2 1 -2 3 1 4c34 18 37 48 45 77l14 52c5 19 6 34 -6 44c-1 2 1 5 3 4c27 -4 93 12 113 35zM410 553c80 63 234 38 231 -61c-2 -42 -38 -85 -85 -85
c-31 0 -42 25 -25 55c7 14 19 27 33 37c4 25 -17 51 -50 47c-28 -3 -62 -26 -80 -86c-11 -42 -5 -21 -17 -63h59c3 0 3 -3 1 -5l-20 -30c-2 -2 -6 -5 -8 -5h-42l-32 -117c-4 -18 -3 -35 12 -47c2 -1 2 -3 -1 -4c-22 -12 -31 -29 -37 -47l-20 -75c-6 -24 -4 -48 8 -62
c2 -2 0 -5 -2 -4h-139c-2 -1 -3 2 0 4c20 14 35 38 41 62l20 75c4 18 4 35 -11 47c-2 1 -2 3 1 4c22 12 31 29 37 47l31 117h-22h-10h-70l-32 -117c-4 -18 -3 -35 12 -47c2 -1 2 -3 -1 -4c-22 -12 -31 -29 -37 -47l-20 -75c-6 -24 -4 -48 8 -62c2 -2 0 -5 -2 -4h-139
c-2 -1 -3 2 0 4c20 14 35 38 41 62l20 75c4 18 4 35 -11 47c-2 1 -2 3 1 4c22 12 31 29 37 47l31 117h-32c-2 0 -3 3 -1 5l20 30c2 2 6 5 9 5h15l21 71c24 80 101 118 168 116c26 -1 65 -13 89 -31zM357 504c1 25 -10 45 -37 42c-28 -3 -62 -26 -80 -86
c-11 -42 -5 -21 -17 -63h88h9h6z" />
    <glyph glyph-name="f_k" unicode="fk" horiz-adv-x="537" 
d="M325 563c-28 -3 -62 -26 -80 -86c-11 -42 -10 -38 -22 -80h59c3 0 3 -3 1 -5l-20 -30c-2 -2 -6 -5 -8 -5h-42c-11 -39 -21 -78 -32 -117c-4 -18 -3 -35 12 -47c2 -1 2 -3 -1 -4c-22 -12 -31 -29 -37 -47c-7 -25 -13 -50 -20 -75c-6 -24 -4 -48 8 -62c2 -2 0 -5 -2 -4
h-139c-2 -1 -3 2 0 4c20 14 35 38 41 62l20 75c4 18 4 35 -11 47c-2 1 -2 3 1 4c22 12 31 29 37 47l31 117h-32c-2 0 -3 3 -1 5l20 30c2 2 6 5 9 5h15l26 88c31 104 153 138 225 103c12 -6 23 -14 34 -20c23 17 45 39 58 66c1 3 7 3 6 0c-32 -121 -65 -241 -97 -361
c24 39 91 133 131 153c42 22 79 15 87 -22c7 -39 -41 -88 -78 -73c9 8 13 15 15 22c4 18 -13 26 -31 16c-10 -5 -20 -14 -27 -21c-26 -26 -67 -82 -77 -100c20 14 39 23 55 26c24 6 42 0 53 -13c15 -19 11 -33 17 -52c1 -6 5 -12 10 -16c2 -1 1 -3 -1 -4
c-11 -6 -19 -13 -25 -21c-3 -4 -6 -10 -10 -18c-10 -20 -29 -61 -34 -79c-2 -11 -2 -20 4 -24c15 -8 32 4 41 19c2 4 4 8 6 13c1 2 5 3 5 0c-2 -55 -40 -90 -89 -90c-50 0 -68 30 -56 75c9 36 29 65 42 98c31 80 -24 62 -65 9l-28 -104c-7 -24 -4 -48 8 -62c2 -2 0 -5 -3 -4
h-138c-3 -1 -3 2 0 4c20 14 35 38 41 62l20 75c4 18 4 35 -12 47c-2 1 -1 3 2 4c22 12 31 29 37 47c26 99 53 198 80 297c-4 17 -15 29 -39 26z" />
    <glyph glyph-name="f_f_k" unicode="ffk" horiz-adv-x="731" 
d="M719 331c8 8 12 15 14 22c4 18 -13 26 -31 16c-10 -5 -19 -14 -26 -21c-27 -26 -68 -82 -78 -100c20 14 39 23 55 26c24 6 42 0 53 -13c16 -19 12 -33 17 -52c2 -6 5 -12 10 -16c2 -1 2 -3 -1 -4c-11 -6 -18 -13 -25 -21c-2 -4 -6 -10 -10 -18c-10 -20 -29 -61 -34 -79
c-2 -11 -2 -20 5 -24c14 -8 31 4 40 19c2 4 4 8 6 13c1 2 5 3 5 0c-2 -55 -40 -90 -88 -90c-51 0 -68 30 -57 75c9 36 30 65 43 98c30 80 -24 62 -66 9c-7 -26 -15 -61 -27 -104c-6 -24 -5 -48 7 -62c2 -2 0 -5 -2 -4h-139c-2 -1 -3 2 1 4c19 14 34 38 41 62l20 75
c3 18 3 35 -12 47c-2 1 -2 3 1 4c22 12 31 29 37 47c27 99 53 198 80 297c-3 17 -15 29 -39 26c-28 -3 -61 -26 -80 -86c-11 -42 -10 -38 -21 -80h58c3 0 3 -3 2 -5l-21 -30c-2 -2 -5 -5 -8 -5h-42c-10 -39 -21 -78 -31 -117c-4 -18 -4 -35 11 -47c2 -1 2 -3 -1 -4
c-22 -12 -31 -29 -37 -47c-7 -25 -13 -50 -20 -75c-6 -24 -4 -48 8 -62c2 -2 0 -5 -2 -4h-139c-2 -1 -3 2 1 4c19 14 34 38 41 62l20 75c4 18 3 35 -12 47c-2 1 -2 3 1 4c22 12 31 29 37 47l31 117h-102l-32 -117c-4 -18 -3 -35 12 -47c2 -1 2 -3 -1 -4
c-22 -12 -31 -29 -37 -47l-20 -75c-6 -24 -4 -48 8 -62c2 -2 0 -5 -2 -4h-139c-2 -1 -3 2 0 4c20 14 35 38 41 62l20 75c4 18 4 35 -11 47c-2 1 -2 3 1 4c22 12 31 29 37 47l31 117h-32c-2 0 -3 3 -1 5l20 30c2 2 6 5 9 5h15l21 71c24 80 101 118 168 116
c23 -1 55 -10 80 -24c51 43 126 52 176 28c12 -6 23 -14 34 -20c24 17 46 39 58 66c2 3 7 3 6 0c-32 -121 -64 -241 -97 -361c24 39 91 133 132 153c42 22 79 15 86 -22c8 -39 -41 -88 -77 -73zM359 508c0 10 -1 19 -6 26c-15 21 -50 11 -67 -1c-18 -13 -35 -36 -46 -73
c-11 -42 -5 -21 -17 -63h103z" />
    <glyph glyph-name="f_l" unicode="fl" horiz-adv-x="388" 
d="M364 537c-4 17 -15 29 -39 26c-28 -3 -62 -26 -80 -86c-11 -42 -10 -38 -22 -80h59c3 0 3 -3 1 -5l-20 -30c-2 -2 -6 -5 -8 -5h-42c-11 -39 -21 -78 -32 -117c-4 -18 -3 -35 12 -47c2 -1 2 -3 -1 -4c-22 -12 -31 -29 -37 -47c-7 -25 -13 -50 -20 -75c-6 -24 -4 -48 8 -62
c2 -2 0 -5 -2 -4h-139c-2 -1 -3 2 0 4c20 14 35 38 41 62l20 75c4 18 4 35 -11 47c-2 1 -2 3 1 4c22 12 31 29 37 47l31 117h-32c-2 0 -3 3 -1 5l20 30c2 2 6 5 9 5h15l26 88c31 104 153 138 225 103c12 -6 23 -14 34 -20c23 17 45 39 58 66c1 3 7 3 6 0
c-34 -128 -68 -256 -103 -383c-6 -24 -10 -44 9 -58c2 -1 2 -3 -1 -4c-21 -12 -30 -27 -36 -44l-16 -61c-15 -47 25 -57 49 -5c2 3 6 3 5 0c-7 -56 -49 -90 -98 -90c-55 0 -62 44 -48 95l15 56c4 19 5 36 -11 49c-2 1 -2 3 1 4c24 13 33 32 39 53c26 97 52 195 78 291z" />
    <glyph glyph-name="f_f_l" unicode="ffl" horiz-adv-x="582" 
d="M675 634c-34 -128 -68 -256 -102 -383c-7 -24 -10 -44 8 -58c2 -1 2 -3 -1 -4c-20 -12 -30 -27 -36 -44l-16 -61c-15 -47 25 -57 50 -5c1 3 5 3 5 0c-8 -56 -50 -90 -98 -90c-56 0 -62 44 -49 95l16 56c4 19 4 36 -12 49c-2 1 -2 3 1 4c24 13 33 32 39 53
c26 97 52 195 78 291c-3 17 -15 29 -39 26c-28 -3 -61 -26 -80 -86c-11 -42 -10 -38 -21 -80h58c3 0 3 -3 2 -5l-21 -30c-2 -2 -5 -5 -8 -5h-42c-10 -39 -21 -78 -31 -117c-4 -18 -4 -35 11 -47c2 -1 2 -3 -1 -4c-22 -12 -31 -29 -37 -47c-7 -25 -13 -50 -20 -75
c-6 -24 -4 -48 8 -62c2 -2 0 -5 -2 -4h-139c-2 -1 -3 2 1 4c19 14 34 38 41 62l20 75c4 18 3 35 -12 47c-2 1 -2 3 1 4c22 12 31 29 37 47l31 117h-102l-32 -117c-4 -18 -3 -35 12 -47c2 -1 2 -3 -1 -4c-22 -12 -31 -29 -37 -47l-20 -75c-6 -24 -4 -48 8 -62
c2 -2 0 -5 -2 -4h-139c-2 -1 -3 2 0 4c20 14 35 38 41 62l20 75c4 18 4 35 -11 47c-2 1 -2 3 1 4c22 12 31 29 37 47l31 117h-32c-2 0 -3 3 -1 5l20 30c2 2 6 5 9 5h15l21 71c24 80 101 118 168 116c23 -1 55 -10 80 -24c51 43 126 52 176 28c12 -6 23 -14 34 -20
c24 17 46 39 58 66c2 3 7 3 6 0zM360 508c0 14 -4 27 -15 34c-20 12 -51 -2 -66 -15c-15 -14 -30 -35 -39 -67c-11 -42 -5 -21 -17 -63h103c34 109 34 110 34 111z" />
    <glyph glyph-name="f_t" unicode="ft" horiz-adv-x="388" 
d="M475 634c1 3 7 3 6 0c-14 -51 -27 -103 -64 -238h43c2 0 3 -2 1 -4l-20 -30c-2 -3 -6 -5 -9 -5h-25c-14 -51 -15 -55 -29 -106c-6 -24 -10 -44 9 -58c2 -1 2 -3 -1 -4c-21 -12 -30 -27 -36 -44l-16 -61c-15 -47 25 -57 49 -5c2 3 6 3 5 0c-7 -56 -49 -90 -98 -90
c-55 0 -62 44 -48 95l15 56c4 19 5 36 -11 49c-2 1 -2 3 1 4c24 13 33 32 39 53l29 111h-102c-11 -39 -21 -78 -32 -117c-4 -18 -3 -35 12 -47c2 -1 2 -3 -1 -4c-22 -12 -31 -29 -37 -47c-7 -25 -13 -50 -20 -75c-6 -24 -4 -48 8 -62c2 -2 0 -5 -2 -4h-139c-2 -1 -3 2 0 4
c20 14 35 38 41 62l20 75c4 18 4 35 -11 47c-2 1 -2 3 1 4c22 12 31 29 37 47l31 117h-32c-2 0 -3 3 -1 5l20 30c2 2 6 5 9 5h15l26 88c31 104 153 138 225 103c12 -6 23 -14 34 -20c23 17 45 39 58 66zM326 397l38 140c-4 17 -15 29 -39 26c-28 -3 -62 -26 -80 -86
c-11 -42 -10 -38 -22 -80h103z" />
    <glyph glyph-name="f_f_t" unicode="fft" horiz-adv-x="582" 
d="M669 634c2 3 7 3 6 0c-13 -51 -27 -103 -63 -238h42c2 0 3 -2 1 -4l-20 -30c-2 -3 -6 -5 -8 -5h-26c-13 -51 -15 -55 -28 -106c-7 -24 -10 -44 8 -58c2 -1 2 -3 -1 -4c-20 -12 -30 -27 -36 -44l-16 -61c-15 -47 25 -57 50 -5c1 3 5 3 5 0c-8 -56 -50 -90 -98 -90
c-56 0 -62 44 -49 95l16 56c4 19 4 36 -12 49c-2 1 -2 3 1 4c24 13 33 32 39 53l30 111h-103c-10 -39 -21 -78 -31 -117c-4 -18 -4 -35 11 -47c2 -1 2 -3 -1 -4c-22 -12 -31 -29 -37 -47c-7 -25 -13 -50 -20 -75c-6 -24 -4 -48 8 -62c2 -2 0 -5 -2 -4h-139c-2 -1 -3 2 1 4
c19 14 34 38 41 62l20 75c4 18 3 35 -12 47c-2 1 -2 3 1 4c22 12 31 29 37 47l31 117h-102l-32 -117c-4 -18 -3 -35 12 -47c2 -1 2 -3 -1 -4c-22 -12 -31 -29 -37 -47l-20 -75c-6 -24 -4 -48 8 -62c2 -2 0 -5 -2 -4h-139c-2 -1 -3 2 0 4c20 14 35 38 41 62l20 75
c4 18 4 35 -11 47c-2 1 -2 3 1 4c22 12 31 29 37 47l31 117h-32c-2 0 -3 3 -1 5l20 30c2 2 6 5 9 5h15l21 71c24 80 101 118 168 116c23 -1 55 -10 80 -24c51 43 126 52 176 28c12 -6 23 -14 34 -20c24 17 46 39 58 66zM359 508c0 11 -2 21 -8 28c-15 18 -47 9 -63 -2
c-19 -13 -37 -36 -48 -74c-11 -42 -5 -21 -17 -63h103zM519 397l39 140c-3 17 -15 29 -39 26c-28 -3 -61 -26 -80 -86c-11 -42 -10 -38 -21 -80h101z" />
    <glyph glyph-name=".notdef" horiz-adv-x="195" 
 />
    <glyph glyph-name=".null" horiz-adv-x="0" 
 />
    <glyph glyph-name=".null" horiz-adv-x="0" 
 />
    <glyph glyph-name="CR" unicode="&#xd;" horiz-adv-x="195" 
 />
    <glyph glyph-name="space" unicode=" " horiz-adv-x="195" 
 />
    <glyph glyph-name="D" unicode="D" horiz-adv-x="724" 
d="M343 358c3 11 5 22 4 31c-20 -7 -44 -10 -65 -8c-74 5 -70 95 -17 111c16 5 35 2 47 -11c2 -3 1 -4 -3 -5c-12 -3 -21 -13 -22 -25c-2 -22 19 -34 39 -33c10 0 22 2 34 7c54 22 118 79 134 114c2 4 9 4 8 0c-43 -159 -35 -129 -77 -288c-5 -22 -5 -43 14 -57
c2 -2 2 -4 -1 -5c-27 -15 -38 -35 -45 -57c-8 -30 -29 -108 -37 -138c-2 -9 -4 -18 -4 -26c75 -5 165 81 201 148c13 25 21 56 4 73c-1 1 -1 3 2 4c43 19 52 60 60 96c29 135 17 286 -148 310c-166 27 -345 -118 -335 -279c2 -67 56 -104 126 -87c11 3 14 2 9 -8
c-26 -56 -98 -86 -152 -82c-121 10 -142 129 -98 239c76 190 295 280 471 258c107 -13 192 -74 225 -156c20 -48 26 -107 15 -169c-6 -33 -30 -104 -9 -122c2 -1 1 -3 -2 -4c-12 -7 -28 -22 -36 -32c-4 -5 -10 -14 -13 -20c-59 -118 -202 -236 -343 -224c-36 4 -80 9 -134 1
c-3 0 -4 3 1 6c23 16 42 45 49 74c13 46 25 92 37 138c5 22 5 42 -14 57c-3 1 -2 3 1 5c27 14 38 35 45 57c26 98 2 8 29 107z" />
    <glyph glyph-name="E" unicode="E" horiz-adv-x="422" 
d="M400 274c-21 -40 -36 -69 -38 -71c-10 -20 -21 -42 -15 -56c9 -19 33 -9 38 9c1 4 2 6 5 3c21 -17 13 -52 -8 -69c-39 -32 -110 10 -62 99l61 116c-14 19 -53 30 -81 31c-22 -81 -42 -159 -64 -242c-4 -14 -24 -80 -103 -116c42 2 126 -14 162 -25c83 -25 179 -32 212 8
c1 2 5 2 5 0c2 -17 -3 -38 -14 -58c-61 -108 -204 -50 -275 -27c-82 26 -176 56 -220 11c-2 -2 -4 -2 -3 1c15 47 39 74 74 90c16 14 27 35 36 61l26 101c3 19 1 35 -16 48c-2 1 -1 4 2 5c23 13 34 29 42 48c27 103 55 206 82 309c4 14 5 27 3 40h-58
c-84 -1 -141 -81 -104 -119c18 -18 47 -8 50 20c1 10 -3 19 -9 22c-3 2 -1 6 4 6c94 3 70 -149 -31 -139c-44 4 -71 35 -78 74c-15 86 60 172 169 171c71 -2 142 -1 214 -1c52 0 164 -14 201 35c3 5 9 1 7 -3c-35 -57 -69 -114 -104 -172c-14 -26 -69 -132 -108 -206l-1 -4
h-1zM309 371c31 -5 85 -10 120 23l66 124c5 68 -28 76 -128 70c-21 -79 -40 -149 -58 -217z" />
    <glyph glyph-name="F" unicode="F" horiz-adv-x="492" 
d="M459 563c-14 3 -32 8 -54 14c-68 19 -146 33 -210 -3c-113 -64 -79 -237 15 -214c8 3 10 -2 6 -8c-25 -36 -82 -43 -124 -29c-93 33 -113 140 -71 212c11 19 25 36 40 51c90 82 224 64 334 33c92 -27 175 -66 246 -46c67 20 92 113 26 118c-3 1 -6 2 -2 7
c39 42 128 16 143 -41c10 -35 -6 -72 -35 -98c-60 -55 -169 -39 -239 -17c-12 3 -24 7 -36 11c-34 -25 -62 -103 -84 -180c54 -3 100 2 117 45c3 5 10 5 8 -3c-25 -85 -92 -339 -116 -423c-5 -21 -8 -46 1 -57c14 -17 34 -3 34 17c0 4 0 6 3 4c36 -18 26 -83 -29 -85
c-34 0 -64 29 -46 98l82 308c-9 29 -34 45 -65 55c-9 -31 -17 -63 -25 -94c-3 -17 -2 -33 13 -45c2 -1 1 -3 -1 -4c-22 -12 -32 -28 -38 -46c-40 -151 -82 -309 -92 -348c-2 -4 -8 -4 -8 0c4 70 -59 117 -97 124c-2 0 -2 3 1 4c24 13 33 32 39 57c2 6 22 82 45 166
c3 17 2 31 -13 43c-2 1 -1 3 1 4c21 11 30 26 36 42l14 54c32 120 70 233 181 274z" />
    <glyph glyph-name="G" unicode="G" horiz-adv-x="592" 
d="M387 318c-24 -8 -53 -15 -83 -19c-16 -71 -8 -141 68 -138c23 1 48 11 70 31c14 13 15 21 19 37c7 24 8 43 -9 55c-3 2 -1 4 1 5c42 7 128 53 160 121c2 5 8 5 8 0l-43 -159c-5 -23 -4 -43 14 -58c3 -1 2 -3 -1 -5c-27 -14 -38 -34 -45 -57c-8 -31 -17 -60 -30 -90
c-46 -112 -140 -223 -265 -239c-247 -32 -200 270 -19 276c22 1 43 -4 59 -16c19 -14 31 -39 25 -74c-7 -44 -50 -88 -111 -83c-7 1 -7 7 -2 9c9 3 18 15 21 27c2 9 2 17 -1 23c-4 8 -12 13 -23 15c-34 4 -59 -28 -66 -58c-8 -34 8 -67 45 -82c37 -14 89 -10 139 35
c69 62 100 188 121 269c-124 -113 -310 -42 -258 154c-102 11 -191 58 -180 172c3 39 27 76 75 99c38 18 91 21 155 -8c8 -5 2 -15 -4 -14c-17 1 -34 -6 -49 -17c-77 -58 -57 -141 25 -174c10 23 24 47 40 72c69 108 196 223 318 236c87 9 127 -45 94 -132
c-42 -111 -161 -177 -268 -213zM346 411c-10 -18 -21 -42 -30 -68c32 4 64 11 95 22c27 10 56 23 84 39c-41 11 -62 57 -31 113c3 6 8 6 9 2c10 -29 33 -34 56 -26c95 36 124 158 41 135c-69 -13 -172 -122 -224 -217z" />
    <glyph glyph-name="H" unicode="H" horiz-adv-x="719" 
d="M660 498c7 24 8 44 -9 56c-3 1 -1 4 1 4c42 7 128 53 160 122c2 4 8 4 8 0c-43 -159 -73 -271 -115 -429c-5 -23 -5 -43 14 -58c2 -1 2 -3 -1 -5c-27 -14 -38 -34 -45 -57c-8 -30 -29 -107 -37 -137c-8 -29 -5 -58 10 -74c2 -3 0 -6 -3 -6h-168c-3 0 -4 3 1 6
c23 16 42 45 49 74l37 138c5 22 4 42 -14 56c-3 2 -2 4 1 5c27 15 38 35 45 57l28 106c-35 -45 -81 -89 -131 -124c-5 -4 -10 -7 -16 -11c-7 -33 -14 -64 -23 -97c-40 -152 -110 -296 -274 -317c-246 -32 -217 265 -36 271c22 1 43 -4 59 -16c21 -14 34 -39 30 -74
c-4 -44 -44 -88 -106 -83c-6 1 -7 7 -2 9c9 3 17 15 19 27c2 9 1 17 -2 23c-5 8 -13 13 -24 15c-34 4 -58 -28 -63 -58c-5 -34 10 -69 49 -84c38 -14 92 -8 139 37c33 32 60 97 82 168c13 41 23 82 32 123c-71 -23 -148 -30 -198 1c-61 38 -76 130 -24 188
c20 22 48 39 77 47c24 7 51 9 83 5c8 -1 5 -12 -1 -13c-16 -5 -29 -16 -40 -30c-69 -90 -2 -172 115 -146c3 13 5 26 8 39c25 122 41 254 164 314c8 4 16 7 24 10c-65 7 -213 64 -235 -49c-8 -41 28 -60 58 -45c3 1 6 1 5 -5c-16 -55 -107 -69 -147 -24
c-40 47 -19 129 37 165c59 39 140 33 205 12c45 -15 83 -35 135 -40c11 -1 10 -10 3 -13c-90 -38 -105 -150 -124 -237c-5 -23 -10 -48 -15 -74c6 4 12 8 17 12c54 39 108 97 143 159z" />
    <glyph glyph-name="I" unicode="I" horiz-adv-x="258" 
d="M215 541c2 8 4 16 4 23c-54 -20 -157 -51 -129 -130c11 -32 44 -30 58 -8c2 3 4 4 6 -1c11 -44 -46 -90 -91 -75c-47 15 -65 80 -42 127c13 28 38 50 67 66c94 51 225 60 277 172c2 4 8 4 7 0c-42 -159 -82 -306 -125 -464c-5 -23 -5 -43 14 -58c3 -1 2 -3 -1 -5
c-21 -11 -32 -26 -40 -42c-3 -12 -6 -23 -9 -35c-5 -24 -5 -47 7 -56c3 -2 1 -4 -1 -5c-63 -1 -130 -69 -141 -134c-21 -122 135 -112 135 -26c0 20 -26 35 -40 13c-5 -7 -6 -15 -3 -20c1 -2 -2 -5 -5 -3c-32 18 -32 53 -15 76c14 18 32 26 48 26c13 0 26 -4 36 -12
c27 -20 31 -52 22 -86c-34 -126 -203 -115 -215 -8c-3 29 6 62 15 93c16 54 35 108 50 162c5 23 5 43 -14 57c-2 2 -2 4 1 5c27 15 38 35 45 57c27 99 53 193 79 291z" />
    <glyph glyph-name="J" unicode="J" horiz-adv-x="494" 
d="M539 570c8 4 16 7 24 10c-65 7 -213 64 -235 -49c-8 -41 28 -60 58 -45c3 1 6 1 5 -5c-16 -55 -107 -69 -147 -24c-40 47 -19 129 37 165c59 39 140 33 205 12c45 -15 83 -35 135 -40c11 -1 10 -10 3 -13c-90 -38 -105 -150 -124 -237c-5 -25 -11 -52 -16 -80
c-5 -24 -12 -53 11 -71c3 -1 2 -3 -1 -5c-31 -17 -34 -34 -42 -64c-40 -152 -110 -296 -274 -317c-246 -32 -217 265 -36 271c22 1 43 -4 59 -16c21 -14 34 -39 30 -74c-4 -44 -44 -88 -106 -83c-6 1 -7 7 -2 9c9 3 17 15 19 27c2 9 1 17 -2 23c-5 8 -13 13 -24 15
c-34 4 -58 -28 -63 -58c-5 -34 10 -69 49 -84c38 -14 92 -8 139 37c44 42 78 147 103 243c6 26 14 52 -12 71c-2 1 -2 4 1 5c30 16 36 33 42 63c25 122 41 254 164 314z" />
    <glyph glyph-name="K" unicode="K" horiz-adv-x="447" 
d="M657 668c44 -2 72 -28 63 -65c-9 -38 -65 -57 -91 -29c-3 3 -1 4 3 5c7 3 11 6 14 10c8 10 5 19 -3 25c-13 10 -29 9 -45 2c-31 -12 -93 -58 -123 -78c-40 -27 -81 -55 -120 -84c67 -15 78 -115 72 -221c1 -16 6 -30 20 -40c2 -1 2 -3 -1 -4c-13 -8 -21 -18 -25 -29
c-8 -75 -19 -144 -20 -178c-1 -64 12 -119 81 -129c3 0 4 -5 -1 -7c-31 -17 -63 -22 -95 -21c-141 7 -117 170 -83 327c1 14 -2 27 -15 37c-2 1 -2 3 1 4c16 9 26 25 32 40c19 91 32 169 4 199c-20 -17 -40 -35 -58 -50c-2 -8 -4 -16 -7 -23c-4 -16 -11 -44 -21 -79
c-8 -30 -22 -68 2 -87c2 -1 1 -3 -1 -4c-24 -13 -32 -30 -38 -49c-6 -21 -35 -129 -40 -150c-8 -29 -5 -58 9 -74c3 -3 1 -6 -3 -6h-165c-4 0 -4 3 0 6c18 13 34 34 43 57c5 16 33 121 39 142c7 30 19 56 -5 74c-2 1 -2 3 1 4c23 12 34 37 40 55c2 7 4 15 6 22
c-7 -5 -14 -9 -21 -12c-36 -16 -64 1 -45 39c4 10 11 20 17 27c19 23 49 46 82 67l1 1c25 72 73 148 157 173c-81 -11 -203 82 -286 -15c-1 -1 -3 -1 -3 1c1 43 31 96 80 115c122 45 197 -73 287 -77c5 0 4 -5 -1 -6c-39 -20 -65 -46 -84 -77c-11 -18 -19 -38 -26 -58
c9 3 18 6 26 8c32 25 65 51 99 76c45 33 96 70 144 101c33 21 70 38 103 35zM139 319c4 13 7 26 11 39c-42 -28 -70 -78 -38 -61c8 4 17 12 27 22z" />
    <glyph glyph-name="L" unicode="L" horiz-adv-x="333" 
d="M279 564c46 54 146 99 221 57c79 -45 53 -186 -53 -196c-16 -2 -33 1 -46 9c-17 11 -28 29 -28 57c0 34 27 69 74 68c5 0 6 -5 3 -6c-7 -3 -12 -12 -13 -22c-1 -7 1 -14 4 -18c4 -6 11 -10 19 -10c26 -2 42 24 43 48c5 67 -83 81 -128 28c-16 -18 -27 -40 -35 -62
c-30 -78 -43 -173 -61 -263c-4 -18 -11 -48 7 -61c2 -1 1 -3 -1 -4c-22 -12 -30 -35 -37 -56c-25 -78 -59 -140 -113 -174c103 7 325 -92 383 -7c2 2 5 3 5 0c9 -45 -29 -96 -68 -111c-143 -57 -356 118 -449 22c-2 -2 -7 0 -5 5c15 48 39 75 74 90c34 29 54 90 72 172
c5 22 7 42 -16 58c-2 1 -2 4 1 5c34 19 36 38 42 71c24 117 51 236 105 300z" />
    <glyph glyph-name="M" unicode="M" horiz-adv-x="921" 
d="M877 194c2 -2 2 -4 -1 -5c-34 -18 -36 -45 -40 -78c-10 -80 -5 -163 35 -205c27 -28 70 -37 135 -8c11 6 15 -1 9 -8c-61 -68 -177 -95 -245 -43c-93 71 -49 260 -17 355c32 96 82 174 148 259c25 33 8 39 -24 30c-48 -14 -113 -58 -147 -94c-11 -39 -21 -78 -31 -117
c-7 -25 -20 -68 5 -86c2 -2 2 -4 -2 -5c-38 -21 -41 -49 -51 -87c-25 -91 -49 -183 -73 -274c-2 -4 -8 -4 -8 0c5 70 -59 117 -97 124c-2 0 -2 3 1 4c24 13 33 32 40 57c8 31 16 63 25 94c6 27 17 62 -8 81c-2 1 -2 4 2 5c35 19 39 43 49 78c10 36 20 73 30 110
c5 16 22 75 21 88c0 10 -5 15 -14 15c-13 0 -72 -46 -107 -88c1 -29 0 -59 -4 -89c-10 -81 -43 -191 -95 -288c-50 -90 -120 -181 -225 -211c-97 -29 -213 34 -183 157c14 58 63 110 138 113c22 1 43 -4 59 -16c21 -14 34 -39 30 -74c-4 -44 -44 -88 -106 -83
c-6 1 -6 7 -2 9c9 3 17 15 19 27c2 9 1 17 -2 23c-5 8 -13 13 -24 15c-34 4 -58 -28 -63 -58c-11 -75 80 -105 141 -70c47 27 87 81 109 123c20 38 90 182 49 214c-2 1 -1 4 2 5c35 19 39 42 45 79c15 87 14 170 -10 226c-55 126 -169 86 -228 -16c-23 -38 -35 -80 -33 -116
c2 -56 48 -89 108 -74c10 3 12 2 8 -7c-23 -48 -84 -74 -131 -70c-103 8 -121 110 -83 204c47 138 214 239 342 191c77 -30 117 -96 132 -166c33 40 123 123 178 123c43 0 67 -29 69 -63c0 -12 -1 -26 -4 -40c43 32 89 58 137 76c21 7 78 29 118 31c44 1 58 -26 32 -61
c-42 -47 -91 -106 -126 -165c-19 -33 -70 -122 -32 -151z" />
    <glyph glyph-name="N" unicode="N" horiz-adv-x="737" 
d="M415 598c63 -1 122 -4 184 0c4 0 6 -3 3 -7c-15 -15 -19 -32 -17 -49l64 -375l66 244c19 71 40 176 105 220c52 37 109 37 136 -9s-18 -115 -74 -111c-6 1 -5 3 -2 9c5 8 7 16 6 23c-1 16 -13 23 -28 22c-53 -5 -66 -72 -77 -112l-56 -211c-4 -19 -4 -36 12 -49
c2 -1 1 -3 -1 -4c-33 -17 -37 -43 -45 -72l-53 -191c-7 -15 -30 -23 -41 0l-102 486l-47 -171c-4 -19 -3 -36 13 -48c2 -1 1 -3 -2 -4c-32 -18 -36 -44 -44 -72c-13 -49 -28 -100 -49 -146c-35 -79 -90 -152 -187 -164c-160 -21 -217 118 -154 236c27 50 74 86 132 88
c22 1 43 -4 58 -16c20 -15 31 -39 25 -75c-7 -43 -49 -87 -111 -82c-6 1 -6 7 -1 9c9 3 17 14 21 27c10 40 -33 49 -65 18c-47 -45 -42 -161 46 -173c97 -14 152 61 186 142c23 53 37 109 52 165c3 17 1 31 -13 43c-2 1 -2 3 1 4c21 12 31 28 37 45l63 228
c11 40 15 71 -3 97h-39c-84 0 -141 -80 -103 -118c18 -19 46 -8 49 20c1 9 -3 18 -9 22c-3 1 -1 6 4 6c48 0 69 -36 63 -69c-8 -46 -49 -76 -94 -71c-44 6 -70 36 -77 75c-16 85 59 172 168 170z" />
    <glyph glyph-name="O" unicode="O" horiz-adv-x="609" 
d="M613 193c2 -1 1 -3 -2 -4c-25 -14 -42 -37 -57 -62c-62 -109 -180 -227 -308 -236c-75 -6 -108 10 -133 36c-15 -18 -26 -31 -30 -37c-8 -14 -10 -28 1 -40c6 -7 17 -9 28 -3c5 2 9 6 12 12c2 4 3 5 6 3c31 -23 7 -73 -37 -80c-43 -7 -71 18 -72 57c-1 29 20 60 46 89
c5 6 11 13 19 21c-38 37 -61 91 -62 160c-1 29 5 61 -23 80c-2 1 -1 3 1 4c27 16 30 41 36 66c14 59 40 119 75 172c35 54 84 109 142 148c87 59 194 78 281 17c100 -71 104 -207 72 -329c-6 -22 -16 -57 5 -74zM456 207c16 114 -99 139 -143 84c-22 -27 -9 -63 25 -54
c10 3 15 9 17 16c1 4 6 4 8 -1c10 -38 1 -56 -34 -91l-69 -72c-12 -13 -55 -59 -96 -104c4 -7 9 -13 14 -18c64 -64 166 16 210 82c32 47 60 107 68 158zM507 386c18 227 -120 261 -246 95c-50 -66 -84 -144 -103 -226c-12 -51 -26 -162 -7 -235c46 50 97 104 119 126
c4 4 8 8 12 11c-18 2 -32 10 -42 21c-12 13 -20 31 -22 49c-12 90 73 148 153 136c50 -7 101 -43 115 -92c10 38 18 78 21 115z" />
    <glyph glyph-name="P" unicode="P" horiz-adv-x="697" 
d="M508 238c43 9 93 41 118 76c74 105 72 246 -25 293c-118 56 -335 -32 -373 -196c-16 -68 25 -123 87 -124c15 0 30 4 42 12c8 6 9 1 8 -6c-18 -69 -82 -95 -139 -92c-156 11 -129 218 -24 330c84 89 219 131 337 127c66 -2 127 -19 169 -49c100 -71 91 -235 -31 -339
c-62 -54 -127 -78 -184 -87c-29 -108 -63 -213 -143 -294c-47 -47 -104 -81 -171 -90c-160 -20 -217 118 -154 236c27 51 74 86 132 89c22 0 43 -5 58 -16c20 -15 31 -40 25 -75c-7 -44 -49 -87 -111 -82c-6 0 -6 6 -1 8c9 4 17 15 21 27c10 41 -33 49 -65 18
c-25 -24 -36 -66 -26 -103c11 -44 57 -68 98 -66c74 2 129 62 159 127c22 49 37 105 49 150c7 27 18 55 -9 76c-2 1 -1 4 2 5c37 20 40 45 50 81c3 14 16 61 20 77c3 12 5 22 4 32c-39 -13 -82 -17 -104 16c-20 30 -7 78 29 89c16 4 35 1 47 -12c2 -3 1 -3 -3 -4
c-28 -8 -32 -48 -6 -57c22 -7 59 7 77 15c41 21 86 56 108 102c2 5 8 5 8 0z" />
    <glyph glyph-name="Q" unicode="Q" horiz-adv-x="621" 
d="M627 193c2 -1 1 -3 -1 -4c-18 -9 -32 -16 -39 -30c-10 -22 -22 -45 -36 -66c-46 -71 -118 -145 -202 -181c-59 -25 -121 -29 -177 -7l-40 -21c161 -10 368 -128 489 12c2 2 4 2 4 0c0 -13 -3 -27 -9 -40c-54 -132 -208 -147 -356 -86c-81 34 -166 80 -252 75
c-11 0 -9 9 -3 12c56 29 88 48 128 68c-40 27 -68 67 -81 114c-8 29 -12 62 -9 99c2 24 0 37 -21 51c-2 1 -2 3 0 4c28 16 28 41 34 66c15 59 40 119 75 172c40 61 98 124 167 164c85 48 189 59 269 -9c84 -71 87 -202 57 -320c-5 -20 -17 -57 3 -73zM334 -26
c129 92 256 457 160 576c-20 24 -48 35 -81 31c-69 -9 -145 -92 -161 -158c-7 -27 -5 -54 12 -79c23 -37 82 -41 111 -23c30 19 29 57 -5 59c-11 1 -21 -4 -25 -10c-3 -4 -8 -2 -7 4c5 52 47 75 84 70c30 -5 48 -21 57 -41c7 -16 10 -35 5 -53c-8 -26 -28 -47 -47 -67
c-62 -66 -159 -168 -164 -176c-37 -54 22 -89 53 -44c2 3 4 5 6 1c9 -17 6 -38 -6 -52c-29 -37 -91 -39 -109 7c-8 18 -7 39 1 60c7 18 21 39 39 59c11 12 70 73 121 126c-72 -14 -154 17 -167 98c-37 -88 -64 -215 -52 -308c5 -36 16 -68 37 -87c41 -38 96 -23 138 7z" />
    <glyph glyph-name="R" unicode="R" horiz-adv-x="539" 
d="M691 -65c9 5 15 -3 10 -9c-27 -37 -79 -51 -133 -45c-159 19 -215 187 -235 329c-23 -5 -46 -9 -70 -11l-19 -72c-7 -29 -11 -61 4 -72c3 -2 1 -4 -1 -5c-63 -1 -128 -70 -141 -134c-26 -131 138 -116 135 -26c-1 25 -26 35 -40 13c-4 -7 -6 -15 -3 -20c2 -2 -1 -5 -5 -3
c-32 18 -32 53 -14 76c14 18 31 26 47 26c13 0 26 -4 36 -12c27 -20 33 -53 22 -86c-42 -125 -203 -115 -215 -8c-3 29 6 62 15 93c21 70 35 102 54 173c2 17 1 33 -16 46c-3 1 -2 4 1 5c26 14 35 30 42 50c22 82 44 166 70 263l3 12c-49 -30 -118 -61 -175 -42
c-52 17 -80 82 -52 134c27 50 106 63 127 19c2 -5 -1 -6 -4 -6c-43 8 -84 -84 5 -95c81 -10 224 103 246 152c2 4 8 4 7 0l-28 -104c133 86 283 68 251 -103c-12 -66 -59 -134 -123 -188c-15 -14 -32 -25 -49 -35c-2 -137 117 -376 248 -315zM278 252c250 38 325 446 73 273
c-29 -108 -46 -172 -73 -273z" />
    <glyph glyph-name="S" unicode="S" horiz-adv-x="583" 
d="M552 210c12 -28 19 -57 20 -86c6 -108 -66 -231 -159 -283c-146 -81 -329 -34 -367 99c-31 107 49 251 174 255c27 1 51 -5 70 -19c23 -17 37 -46 30 -88c-9 -52 -53 -101 -126 -97c-10 -2 -11 5 -8 9c11 5 21 18 25 32c10 43 -30 56 -64 33c-31 -21 -44 -59 -42 -97
c6 -104 123 -148 211 -119c89 30 153 134 146 226c-4 46 -21 106 -78 102c-3 0 -5 2 -3 4c15 38 -6 59 -30 84c-16 17 -32 35 -46 53c-14 -9 -28 -19 -42 -28c-42 -26 -118 -75 -169 -79c-28 -3 -57 4 -77 27c-31 38 -20 104 28 124c21 9 47 7 65 -9c4 -4 2 -5 -3 -7
c-16 -6 -26 -21 -26 -37c0 -24 18 -57 63 -41c20 7 106 54 142 77c-50 78 -45 177 4 241c58 77 193 89 258 13c20 -24 52 -46 83 -24l5 -6l-229 -180c21 -28 44 -51 66 -72c18 -17 29 -26 58 -21c2 1 4 -1 3 -3c-10 -41 3 -51 18 -83zM388 414c16 11 28 20 32 23
c34 26 49 52 57 78c4 11 6 23 6 35c0 55 -76 58 -107 0c-17 -32 -16 -86 12 -136z" />
    <glyph glyph-name="T" unicode="T" horiz-adv-x="502" 
d="M823 720c114 14 189 -80 101 -161c-71 -64 -232 -34 -318 -5c-51 -52 -88 -209 -113 -303c-6 -21 -11 -42 9 -58c2 -1 2 -3 -1 -4c-28 -15 -32 -36 -40 -63c-24 -95 -56 -188 -123 -249c-74 -67 -204 -111 -292 -44c-91 69 -41 240 96 245c55 2 95 -32 89 -90
c-4 -44 -44 -88 -106 -83c-6 1 -7 7 -2 9c9 3 17 15 19 27c4 20 -5 35 -26 38c-34 4 -58 -28 -63 -58c-14 -85 158 -166 245 42c25 60 43 135 53 183c4 17 3 31 -12 43c-2 1 -2 3 1 4c21 11 29 26 35 42l15 47c7 23 58 170 175 283c-33 5 -93 31 -161 31
c-85 0 -173 -53 -175 -145c-3 -50 36 -89 92 -91c9 0 11 -2 7 -8c-25 -36 -83 -43 -124 -29c-93 33 -102 126 -60 198c40 69 112 107 191 117c91 12 178 -22 256 -47c51 63 148 119 232 129zM791 573c168 49 8 189 -164 8c45 -12 126 -19 164 -8z" />
    <glyph glyph-name="U" unicode="U" horiz-adv-x="464" 
d="M252 -89c-17 -10 -32 -21 -42 -37c-10 -17 -11 -41 9 -51c11 -5 25 -3 33 5c3 2 4 3 5 0c6 -17 -1 -35 -13 -46c-40 -36 -116 7 -88 75c6 15 24 39 40 52c-76 7 -126 60 -103 145l20 72c7 26 13 47 -8 63c-2 1 -2 3 1 4c31 17 35 39 43 66l5 20c17 64 32 143 72 204
c26 40 62 78 111 94l7 2c-64 5 -217 67 -240 -48c-8 -41 28 -60 58 -45c4 1 7 1 5 -5c-15 -55 -107 -69 -146 -24c-41 47 -19 129 36 165c32 21 74 30 115 29c50 -2 101 -16 132 -27c32 -12 63 -25 93 -29c11 1 11 -7 7 -9c-32 -18 -54 -42 -70 -69
c-23 -36 -33 -79 -43 -118c-10 -38 -32 -118 -43 -162c-3 -17 -2 -33 13 -44c2 -1 1 -3 -1 -4c-21 -12 -30 -27 -36 -43c-10 -36 -14 -50 -23 -85c-12 -36 -13 -84 23 -97c41 -15 88 6 111 52c8 17 13 36 18 54l18 68c5 20 6 38 -11 51c-2 1 -2 3 1 4c21 11 30 27 36 44
l45 169c19 71 40 175 105 220c52 36 108 36 136 -9c27 -46 -18 -116 -74 -111c-6 0 -5 3 -2 8c5 9 7 16 6 23c-1 16 -13 23 -28 22c-53 -4 -66 -72 -77 -112l-56 -206c-4 -18 -3 -36 12 -48c3 -1 2 -3 -1 -4c-32 -18 -36 -44 -44 -72l-13 -46c-11 -41 -26 -80 -55 -109
c-28 -28 -64 -45 -99 -51z" />
    <glyph glyph-name="V" unicode="V" horiz-adv-x="448" 
d="M356 -26c2 -2 1 -3 0 -4c-38 -15 -113 -71 -131 -138c-1 -4 -6 -5 -7 -1c5 95 9 223 12 318c-1 16 -6 29 -22 40c-3 1 -3 3 0 4c27 17 26 39 27 66c0 15 1 30 2 46c2 54 4 113 25 165c16 39 59 84 99 110c-46 -11 -231 79 -257 -49c-8 -41 28 -60 58 -45c4 1 7 1 5 -5
c-15 -55 -107 -69 -146 -24c-41 47 -19 129 36 165c32 21 74 30 115 29c50 -2 101 -16 132 -27c32 -12 63 -25 93 -29c7 1 12 -6 4 -14c-17 -20 -26 -31 -35 -56c-15 -38 -15 -80 -17 -118c-3 -84 -7 -169 -11 -254l142 273c33 70 74 174 143 207c56 28 109 17 124 -36
c16 -53 -40 -116 -91 -100c-6 2 -4 4 0 9c6 8 9 15 10 22c2 17 -7 27 -21 29c-51 6 -77 -62 -95 -101l-117 -226c-5 -14 -6 -27 5 -37c2 -1 1 -3 -2 -4c-26 -12 -38 -28 -48 -46c-16 -32 -55 -130 -32 -169z" />
    <glyph glyph-name="W" unicode="W" horiz-adv-x="698" 
d="M541 561c12 24 36 21 34 0c-12 -147 -12 -299 -19 -445l128 242c40 75 106 227 174 263c55 28 108 17 123 -35c16 -53 -40 -117 -91 -101c-6 2 -4 4 0 9c6 8 10 16 10 23c3 16 -7 26 -21 28c-45 2 -72 -60 -95 -100c-29 -57 -67 -126 -96 -181c-9 -17 -26 -55 -10 -71
c2 -1 1 -3 -2 -5c-40 -16 -43 -29 -62 -67c-13 -24 -25 -49 -39 -75c-12 -26 -32 -64 -1 -76c3 -1 2 -3 0 -4c-39 -15 -113 -72 -131 -139c-1 -4 -7 -5 -7 -1c8 155 13 310 19 465c-48 -93 -79 -154 -126 -245c-15 -32 -32 -60 -31 -93c0 -16 4 -31 13 -40c3 -3 1 -6 -2 -6
c-53 2 -111 2 -166 0c-2 0 -2 3 2 6c35 27 69 87 98 160c8 18 14 35 19 55c5 22 4 46 -15 60c-3 2 -2 4 1 5c12 7 21 15 28 24c30 38 27 137 13 181c-50 150 -265 95 -229 -69c2 -5 -7 -16 -14 -10c-45 48 -53 101 -41 148c56 229 389 203 338 -181
c-7 -55 -16 -113 -36 -166z" />
    <glyph glyph-name="X" unicode="X" horiz-adv-x="562" 
d="M464 341c32 47 89 141 137 201c40 50 84 94 149 97c117 5 74 -192 -51 -154c-5 2 -3 4 2 9c7 8 11 16 13 23c5 16 -3 26 -17 28c-44 2 -81 -60 -110 -100c-32 -49 -79 -120 -113 -170c15 -89 15 -345 173 -351c16 0 35 3 55 11c10 5 14 -3 9 -9c-33 -37 -86 -49 -139 -45
c-141 13 -170 142 -185 269c-3 -5 -13 -24 -16 -29l-68 -102c-2 -4 -5 -8 -8 -12c-27 -42 -49 -76 -81 -115c-40 -51 -72 -98 -136 -98c-123 0 -93 193 38 154c5 -2 3 -4 -2 -9c-7 -8 -11 -15 -13 -22c-5 -17 3 -27 17 -29c17 -1 32 8 47 21c27 24 52 66 72 97l63 93l73 107
c-2 21 -4 42 -5 62c-6 55 -9 127 -25 190c-4 15 -9 30 -15 44c-43 96 -147 26 -140 -66c3 -43 42 -60 61 -21c6 12 7 26 3 34c-3 4 2 9 7 6c49 -30 52 -90 28 -130c-47 -79 -203 -42 -164 118c24 97 100 160 182 150c119 -15 143 -137 159 -253v1z" />
    <glyph glyph-name="Y" unicode="Y" horiz-adv-x="512" 
d="M345 565c-81 -11 -202 82 -286 -15c-1 -1 -2 -1 -2 1c1 43 31 96 80 115c121 45 196 -73 287 -77c5 0 3 -5 -1 -6c-64 -32 -91 -78 -113 -143c-20 -58 -36 -131 -47 -178c-8 -34 -11 -59 -5 -72c27 -54 142 85 155 128l49 180c6 24 7 44 -9 56c-3 1 -1 4 1 4
c41 7 127 53 159 122c2 4 9 4 8 0c-38 -138 -76 -277 -113 -415c-6 -24 -19 -53 5 -72c2 -1 1 -3 -1 -4c-26 -14 -38 -31 -47 -58c-8 -31 -17 -60 -30 -90c-46 -112 -139 -218 -265 -234c-247 -32 -200 265 -19 271c22 1 43 -4 59 -16c20 -14 31 -39 25 -74
c-7 -44 -49 -88 -111 -83c-6 1 -6 7 -1 9c9 3 17 15 20 27c3 9 2 17 -1 23c-4 8 -12 13 -22 15c-35 4 -60 -28 -67 -58c-8 -34 6 -69 43 -84c38 -14 92 -8 142 37c27 25 49 59 67 95c30 61 64 176 78 246c-33 -46 -77 -99 -138 -107c-60 -9 -106 38 -87 134
c8 40 13 67 22 98c26 97 55 185 165 225z" />
    <glyph glyph-name="Z" unicode="Z" horiz-adv-x="463" 
d="M20 -117c75 51 149 170 203 261c10 22 4 34 -4 43c-2 1 0 4 3 5c36 15 48 31 66 61c54 97 135 218 238 278l-7 -1c-95 -11 -230 61 -324 -39c-2 -2 -3 -2 -3 0c1 43 37 99 94 122c105 41 175 -8 247 -35c30 -12 62 -17 89 -10c7 3 24 0 11 -14
c-92 -64 -163 -206 -217 -295c-14 -24 -30 -45 -14 -63c2 -1 1 -3 -3 -5c-19 -8 -36 -24 -47 -36c-52 -83 -116 -172 -193 -229c53 8 177 0 237 -4c66 -4 174 -10 226 46c2 1 3 1 3 0c-2 -59 -53 -128 -169 -131c-119 -4 -227 47 -381 37c-25 -1 -46 -7 -62 -13
c-12 -5 -17 6 -10 11c6 3 12 7 17 11z" />
    <glyph glyph-name="Agrave" unicode="&#xc0;" horiz-adv-x="759" 
d="M814 655c70 -35 63 -118 -1 -158c-21 -79 -45 -168 -66 -246c-5 -23 -5 -43 14 -58c3 -1 2 -3 -1 -5c-27 -14 -38 -35 -45 -57c-14 -50 -24 -88 -37 -138c-8 -29 -5 -58 9 -74c3 -3 1 -6 -2 -6h-168c-3 0 -4 3 0 6c24 16 42 45 50 74l39 147c3 19 1 35 -16 48
c-2 1 -1 4 2 5c23 13 34 29 42 48l31 118v-1l8 28c-37 -49 -87 -95 -141 -132c-1 0 -2 -1 -2 -1c-22 -59 -42 -119 -65 -176c-30 -74 -68 -143 -128 -194c-40 -33 -93 -68 -158 -76c-160 -21 -217 118 -154 236c27 50 74 86 132 88c22 1 43 -4 58 -16c20 -15 31 -39 25 -75
c-7 -43 -49 -87 -111 -82c-6 1 -6 7 -1 9c9 3 17 14 21 27c10 40 -33 49 -65 18c-47 -45 -39 -164 53 -173c90 -9 136 65 171 136c34 70 58 143 81 216c-69 -19 -143 -22 -192 11c-61 40 -76 133 -24 189c20 21 48 36 77 43c24 6 51 7 83 2c9 -1 5 -12 0 -13
c-16 -4 -30 -15 -41 -29c-69 -87 -2 -171 114 -150c17 51 34 102 56 152c26 61 57 121 97 169c21 26 45 50 72 68c48 32 129 50 183 22zM778 561c17 12 30 36 26 53c-8 31 -57 24 -78 12c-37 -20 -67 -66 -85 -99c-24 -44 -47 -97 -67 -149c-8 -19 -17 -45 -25 -70
c61 44 122 112 154 182l3 11c-17 15 -26 42 -13 70c2 5 7 4 7 0c10 -34 56 -27 78 -10zM580 825c-6 12 -2 17 8 17h40c9 0 19 -4 22 -15c10 -38 30 -116 32 -123c1 -7 -1 -12 -9 -12h-11c-12 0 -18 6 -22 14z" />
    <glyph glyph-name="Aacute" unicode="&#xc1;" horiz-adv-x="759" 
d="M814 655c70 -35 63 -118 -1 -158c-21 -79 -45 -168 -66 -246c-5 -23 -5 -43 14 -58c3 -1 2 -3 -1 -5c-27 -14 -38 -35 -45 -57c-14 -50 -24 -88 -37 -138c-8 -29 -5 -58 9 -74c3 -3 1 -6 -2 -6h-168c-3 0 -4 3 0 6c24 16 42 45 50 74l39 147c3 19 1 35 -16 48
c-2 1 -1 4 2 5c23 13 34 29 42 48l31 118v-1l8 28c-37 -49 -87 -95 -141 -132c-1 0 -2 -1 -2 -1c-22 -59 -42 -119 -65 -176c-30 -74 -68 -143 -128 -194c-40 -33 -93 -68 -158 -76c-160 -21 -217 118 -154 236c27 50 74 86 132 88c22 1 43 -4 58 -16c20 -15 31 -39 25 -75
c-7 -43 -49 -87 -111 -82c-6 1 -6 7 -1 9c9 3 17 14 21 27c10 40 -33 49 -65 18c-47 -45 -39 -164 53 -173c90 -9 136 65 171 136c34 70 58 143 81 216c-69 -19 -143 -22 -192 11c-61 40 -76 133 -24 189c20 21 48 36 77 43c24 6 51 7 83 2c9 -1 5 -12 0 -13
c-16 -4 -30 -15 -41 -29c-69 -87 -2 -171 114 -150c17 51 34 102 56 152c26 61 57 121 97 169c21 26 45 50 72 68c48 32 129 50 183 22zM778 561c17 12 30 36 26 53c-8 31 -57 24 -78 12c-37 -20 -67 -66 -85 -99c-24 -44 -47 -97 -67 -149c-8 -19 -17 -45 -25 -70
c61 44 122 112 154 182l3 11c-17 15 -26 42 -13 70c2 5 7 4 7 0c10 -34 56 -27 78 -10zM880 819l-121 -118c-7 -5 -12 -9 -24 -9h-17c-8 0 -12 10 -5 18l96 121c5 8 13 11 21 11h43c12 0 18 -12 7 -23z" />
    <glyph glyph-name="Acircumflex" unicode="&#xc2;" horiz-adv-x="759" 
d="M814 655c70 -35 63 -118 -1 -158c-21 -79 -45 -168 -66 -246c-5 -23 -5 -43 14 -58c3 -1 2 -3 -1 -5c-27 -14 -38 -35 -45 -57c-14 -50 -24 -88 -37 -138c-8 -29 -5 -58 9 -74c3 -3 1 -6 -2 -6h-168c-3 0 -4 3 0 6c24 16 42 45 50 74l39 147c3 19 1 35 -16 48
c-2 1 -1 4 2 5c23 13 34 29 42 48l31 118v-1l8 28c-37 -49 -87 -95 -141 -132c-1 0 -2 -1 -2 -1c-22 -59 -42 -119 -65 -176c-30 -74 -68 -143 -128 -194c-40 -33 -93 -68 -158 -76c-160 -21 -217 118 -154 236c27 50 74 86 132 88c22 1 43 -4 58 -16c20 -15 31 -39 25 -75
c-7 -43 -49 -87 -111 -82c-6 1 -6 7 -1 9c9 3 17 14 21 27c10 40 -33 49 -65 18c-47 -45 -39 -164 53 -173c90 -9 136 65 171 136c34 70 58 143 81 216c-69 -19 -143 -22 -192 11c-61 40 -76 133 -24 189c20 21 48 36 77 43c24 6 51 7 83 2c9 -1 5 -12 0 -13
c-16 -4 -30 -15 -41 -29c-69 -87 -2 -171 114 -150c17 51 34 102 56 152c26 61 57 121 97 169c21 26 45 50 72 68c48 32 129 50 183 22zM778 561c17 12 30 36 26 53c-8 31 -57 24 -78 12c-37 -20 -67 -66 -85 -99c-24 -44 -47 -97 -67 -149c-8 -19 -17 -45 -25 -70
c61 44 122 112 154 182l3 11c-17 15 -26 42 -13 70c2 5 7 4 7 0c10 -34 56 -27 78 -10zM771 842h18c8 0 12 -3 13 -11l11 -125c1 -10 -1 -14 -10 -14h-21c-11 0 -17 4 -19 14c-6 24 -11 51 -11 51l-49 -55c-8 -7 -14 -10 -21 -10h-25c-9 0 -13 7 -7 16l103 125
c6 8 14 9 18 9z" />
    <glyph glyph-name="Atilde" unicode="&#xc3;" horiz-adv-x="759" 
d="M814 655c70 -35 63 -118 -1 -158c-21 -79 -45 -168 -66 -246c-5 -23 -5 -43 14 -58c3 -1 2 -3 -1 -5c-27 -14 -38 -35 -45 -57c-14 -50 -24 -88 -37 -138c-8 -29 -5 -58 9 -74c3 -3 1 -6 -2 -6h-168c-3 0 -4 3 0 6c24 16 42 45 50 74l39 147c3 19 1 35 -16 48
c-2 1 -1 4 2 5c23 13 34 29 42 48l31 118v-1l8 28c-37 -49 -87 -95 -141 -132c-1 0 -2 -1 -2 -1c-22 -59 -42 -119 -65 -176c-30 -74 -68 -143 -128 -194c-40 -33 -93 -68 -158 -76c-160 -21 -217 118 -154 236c27 50 74 86 132 88c22 1 43 -4 58 -16c20 -15 31 -39 25 -75
c-7 -43 -49 -87 -111 -82c-6 1 -6 7 -1 9c9 3 17 14 21 27c10 40 -33 49 -65 18c-47 -45 -39 -164 53 -173c90 -9 136 65 171 136c34 70 58 143 81 216c-69 -19 -143 -22 -192 11c-61 40 -76 133 -24 189c20 21 48 36 77 43c24 6 51 7 83 2c9 -1 5 -12 0 -13
c-16 -4 -30 -15 -41 -29c-69 -87 -2 -171 114 -150c17 51 34 102 56 152c26 61 57 121 97 169c21 26 45 50 72 68c48 32 129 50 183 22zM778 561c17 12 30 36 26 53c-8 31 -57 24 -78 12c-37 -20 -67 -66 -85 -99c-24 -44 -47 -97 -67 -149c-8 -19 -17 -45 -25 -70
c61 44 122 112 154 182l3 11c-17 15 -26 42 -13 70c2 5 7 4 7 0c10 -34 56 -27 78 -10zM652 731c-13 0 -31 -10 -45 -25c-10 -10 -23 -7 -21 5c7 37 49 69 89 69c50 0 65 -33 107 -33c13 0 31 10 44 25c9 10 24 8 21 -6c-7 -35 -50 -69 -88 -69c-51 0 -66 34 -107 34z" />
    <glyph glyph-name="Adieresis" unicode="&#xc4;" horiz-adv-x="759" 
d="M814 655c70 -35 63 -118 -1 -158c-21 -79 -45 -168 -66 -246c-5 -23 -5 -43 14 -58c3 -1 2 -3 -1 -5c-27 -14 -38 -35 -45 -57c-14 -50 -24 -88 -37 -138c-8 -29 -5 -58 9 -74c3 -3 1 -6 -2 -6h-168c-3 0 -4 3 0 6c24 16 42 45 50 74l39 147c3 19 1 35 -16 48
c-2 1 -1 4 2 5c23 13 34 29 42 48l31 118v-1l8 28c-37 -49 -87 -95 -141 -132c-1 0 -2 -1 -2 -1c-22 -59 -42 -119 -65 -176c-30 -74 -68 -143 -128 -194c-40 -33 -93 -68 -158 -76c-160 -21 -217 118 -154 236c27 50 74 86 132 88c22 1 43 -4 58 -16c20 -15 31 -39 25 -75
c-7 -43 -49 -87 -111 -82c-6 1 -6 7 -1 9c9 3 17 14 21 27c10 40 -33 49 -65 18c-47 -45 -39 -164 53 -173c90 -9 136 65 171 136c34 70 58 143 81 216c-69 -19 -143 -22 -192 11c-61 40 -76 133 -24 189c20 21 48 36 77 43c24 6 51 7 83 2c9 -1 5 -12 0 -13
c-16 -4 -30 -15 -41 -29c-69 -87 -2 -171 114 -150c17 51 34 102 56 152c26 61 57 121 97 169c21 26 45 50 72 68c48 32 129 50 183 22zM778 561c17 12 30 36 26 53c-8 31 -57 24 -78 12c-37 -20 -67 -66 -85 -99c-24 -44 -47 -97 -67 -149c-8 -19 -17 -45 -25 -70
c61 44 122 112 154 182l3 11c-17 15 -26 42 -13 70c2 5 7 4 7 0c10 -34 56 -27 78 -10zM852 733c-5 -24 -27 -45 -51 -45c-25 0 -41 21 -37 45c3 25 27 47 51 47s41 -22 37 -47zM721 733c-5 -24 -28 -45 -52 -45s-41 21 -36 45c3 25 26 47 50 47s41 -22 38 -47z" />
    <glyph glyph-name="Amacron" unicode="&#x100;" horiz-adv-x="759" 
d="M814 655c70 -35 63 -118 -1 -158c-21 -79 -45 -168 -66 -246c-5 -23 -5 -43 14 -58c3 -1 2 -3 -1 -5c-27 -14 -38 -35 -45 -57c-14 -50 -24 -88 -37 -138c-8 -29 -5 -58 9 -74c3 -3 1 -6 -2 -6h-168c-3 0 -4 3 0 6c24 16 42 45 50 74l39 147c3 19 1 35 -16 48
c-2 1 -1 4 2 5c23 13 34 29 42 48l31 118v-1l8 28c-37 -49 -87 -95 -141 -132c-1 0 -2 -1 -2 -1c-22 -59 -42 -119 -65 -176c-30 -74 -68 -143 -128 -194c-40 -33 -93 -68 -158 -76c-160 -21 -217 118 -154 236c27 50 74 86 132 88c22 1 43 -4 58 -16c20 -15 31 -39 25 -75
c-7 -43 -49 -87 -111 -82c-6 1 -6 7 -1 9c9 3 17 14 21 27c10 40 -33 49 -65 18c-47 -45 -39 -164 53 -173c90 -9 136 65 171 136c34 70 58 143 81 216c-69 -19 -143 -22 -192 11c-61 40 -76 133 -24 189c20 21 48 36 77 43c24 6 51 7 83 2c9 -1 5 -12 0 -13
c-16 -4 -30 -15 -41 -29c-69 -87 -2 -171 114 -150c17 51 34 102 56 152c26 61 57 121 97 169c21 26 45 50 72 68c48 32 129 50 183 22zM778 561c17 12 30 36 26 53c-8 31 -57 24 -78 12c-37 -20 -67 -66 -85 -99c-24 -44 -47 -97 -67 -149c-8 -19 -17 -45 -25 -70
c61 44 122 112 154 182l3 11c-17 15 -26 42 -13 70c2 5 7 4 7 0c10 -34 56 -27 78 -10zM652 758h161c9 0 14 -7 12 -15l-5 -17c-2 -9 -11 -16 -19 -16h-161c-9 0 -14 7 -12 16l5 17c2 8 11 15 19 15z" />
    <glyph glyph-name="Abreve" unicode="&#x102;" horiz-adv-x="759" 
d="M814 655c70 -35 63 -118 -1 -158c-21 -79 -45 -168 -66 -246c-5 -23 -5 -43 14 -58c3 -1 2 -3 -1 -5c-27 -14 -38 -35 -45 -57c-14 -50 -24 -88 -37 -138c-8 -29 -5 -58 9 -74c3 -3 1 -6 -2 -6h-168c-3 0 -4 3 0 6c24 16 42 45 50 74l39 147c3 19 1 35 -16 48
c-2 1 -1 4 2 5c23 13 34 29 42 48l31 118v-1l8 28c-37 -49 -87 -95 -141 -132c-1 0 -2 -1 -2 -1c-22 -59 -42 -119 -65 -176c-30 -74 -68 -143 -128 -194c-40 -33 -93 -68 -158 -76c-160 -21 -217 118 -154 236c27 50 74 86 132 88c22 1 43 -4 58 -16c20 -15 31 -39 25 -75
c-7 -43 -49 -87 -111 -82c-6 1 -6 7 -1 9c9 3 17 14 21 27c10 40 -33 49 -65 18c-47 -45 -39 -164 53 -173c90 -9 136 65 171 136c34 70 58 143 81 216c-69 -19 -143 -22 -192 11c-61 40 -76 133 -24 189c20 21 48 36 77 43c24 6 51 7 83 2c9 -1 5 -12 0 -13
c-16 -4 -30 -15 -41 -29c-69 -87 -2 -171 114 -150c17 51 34 102 56 152c26 61 57 121 97 169c21 26 45 50 72 68c48 32 129 50 183 22zM778 561c17 12 30 36 26 53c-8 31 -57 24 -78 12c-37 -20 -67 -66 -85 -99c-24 -44 -47 -97 -67 -149c-8 -19 -17 -45 -25 -70
c61 44 122 112 154 182l3 11c-17 15 -26 42 -13 70c2 5 7 4 7 0c10 -34 56 -27 78 -10zM809 768c-9 -44 -48 -80 -91 -80c-44 0 -73 36 -65 80c0 2 0 4 1 5h46c-1 -1 -1 -3 -1 -4c-3 -18 9 -33 27 -33c17 0 33 15 37 33v4h47c-1 -1 -1 -3 -1 -5z" />
    <glyph glyph-name="Aring" unicode="&#xc5;" horiz-adv-x="759" 
d="M814 655c70 -35 63 -118 -1 -158c-21 -79 -45 -168 -66 -246c-5 -23 -5 -43 14 -58c3 -1 2 -3 -1 -5c-27 -14 -38 -35 -45 -57c-14 -50 -24 -88 -37 -138c-8 -29 -5 -58 9 -74c3 -3 1 -6 -2 -6h-168c-3 0 -4 3 0 6c24 16 42 45 50 74l39 147c3 19 1 35 -16 48
c-2 1 -1 4 2 5c23 13 34 29 42 48l31 118v-1l8 28c-37 -49 -87 -95 -141 -132c-1 0 -2 -1 -2 -1c-22 -59 -42 -119 -65 -176c-30 -74 -68 -143 -128 -194c-40 -33 -93 -68 -158 -76c-160 -21 -217 118 -154 236c27 50 74 86 132 88c22 1 43 -4 58 -16c20 -15 31 -39 25 -75
c-7 -43 -49 -87 -111 -82c-6 1 -6 7 -1 9c9 3 17 14 21 27c10 40 -33 49 -65 18c-47 -45 -39 -164 53 -173c90 -9 136 65 171 136c34 70 58 143 81 216c-69 -19 -143 -22 -192 11c-61 40 -76 133 -24 189c20 21 48 36 77 43c24 6 51 7 83 2c9 -1 5 -12 0 -13
c-16 -4 -30 -15 -41 -29c-69 -87 -2 -171 114 -150c17 51 34 102 56 152c26 61 57 121 97 169c21 26 45 50 72 68c48 32 129 50 183 22zM778 561c17 12 30 36 26 53c-8 31 -57 24 -78 12c-37 -20 -67 -66 -85 -99c-24 -44 -47 -97 -67 -149c-8 -19 -17 -45 -25 -70
c61 44 122 112 154 182l3 11c-17 15 -26 42 -13 70c2 5 7 4 7 0c10 -34 56 -27 78 -10zM812 750c-7 -34 -37 -62 -70 -62s-55 28 -50 62s36 63 69 63s56 -29 51 -63zM777 750c2 14 -8 26 -21 26c-14 0 -26 -12 -28 -26c-3 -14 6 -25 20 -25c13 0 26 11 29 25z" />
    <glyph glyph-name="Aringacute" unicode="&#x1fa;" horiz-adv-x="759" 
d="M814 655c70 -35 63 -118 -1 -158c-21 -79 -45 -168 -66 -246c-5 -23 -5 -43 14 -58c3 -1 2 -3 -1 -5c-27 -14 -38 -35 -45 -57c-14 -50 -24 -88 -37 -138c-8 -29 -5 -58 9 -74c3 -3 1 -6 -2 -6h-168c-3 0 -4 3 0 6c24 16 42 45 50 74l39 147c3 19 1 35 -16 48
c-2 1 -1 4 2 5c23 13 34 29 42 48l31 118v-1l8 28c-37 -49 -87 -95 -141 -132c-1 0 -2 -1 -2 -1c-22 -59 -42 -119 -65 -176c-30 -74 -68 -143 -128 -194c-40 -33 -93 -68 -158 -76c-160 -21 -217 118 -154 236c27 50 74 86 132 88c22 1 43 -4 58 -16c20 -15 31 -39 25 -75
c-7 -43 -49 -87 -111 -82c-6 1 -6 7 -1 9c9 3 17 14 21 27c10 40 -33 49 -65 18c-47 -45 -39 -164 53 -173c90 -9 136 65 171 136c34 70 58 143 81 216c-69 -19 -143 -22 -192 11c-61 40 -76 133 -24 189c20 21 48 36 77 43c24 6 51 7 83 2c9 -1 5 -12 0 -13
c-16 -4 -30 -15 -41 -29c-69 -87 -2 -171 114 -150c17 51 34 102 56 152c26 61 57 121 97 169c21 26 45 50 72 68c48 32 129 50 183 22zM778 561c17 12 30 36 26 53c-8 31 -57 24 -78 12c-37 -20 -67 -66 -85 -99c-24 -44 -47 -97 -67 -149c-8 -19 -17 -45 -25 -70
c61 44 122 112 154 182l3 11c-17 15 -26 42 -13 70c2 5 7 4 7 0c10 -34 56 -27 78 -10zM812 750c-7 -34 -37 -62 -70 -62s-55 28 -50 62s36 63 69 63s56 -29 51 -63zM777 750c2 14 -8 26 -21 26c-14 0 -26 -12 -28 -26c-3 -14 6 -25 20 -25c13 0 26 11 29 25zM912 967
l-121 -118c-7 -5 -12 -9 -24 -9h-17c-8 0 -12 10 -5 18l96 121c5 8 13 11 21 11h43c12 0 18 -12 7 -23z" />
    <glyph glyph-name="Aogonek" unicode="&#x104;" horiz-adv-x="759" 
d="M814 655c70 -35 63 -118 -1 -158c-21 -79 -45 -168 -66 -246c-5 -23 -5 -43 14 -58c3 -1 2 -3 -1 -5c-27 -14 -38 -35 -45 -57c-14 -50 -24 -88 -37 -138c-8 -29 -5 -58 9 -74c3 -3 1 -6 -2 -6c-39 0 -81 -7 -95 -50c-6 -20 2 -38 24 -36c7 1 18 3 23 8c3 3 7 2 8 -3
c0 -11 -4 -28 -12 -39c-21 -28 -53 -39 -81 -35c-11 1 -20 5 -27 12c-42 38 -15 103 40 143h-48c-3 0 -4 3 0 6c24 16 42 45 50 74l39 147c3 19 1 35 -16 48c-2 1 -1 4 2 5c23 13 34 29 42 48l31 118v-1l8 28c-37 -49 -87 -95 -141 -132c-1 0 -2 -1 -2 -1l-11 -29h-1
c-43 -123 -82 -257 -181 -341c-40 -33 -93 -68 -158 -76c-160 -21 -217 118 -154 236c27 50 74 86 132 88c22 1 43 -4 58 -16c20 -15 31 -39 25 -75c-7 -43 -49 -87 -111 -82c-6 1 -6 7 -1 9c9 3 17 14 21 27c10 40 -33 49 -65 18c-47 -45 -39 -164 53 -173
c90 -9 136 65 171 136c34 70 58 143 81 216c-69 -19 -143 -22 -192 11c-61 40 -76 133 -24 189c20 21 48 36 77 43c24 6 51 7 83 2c9 -1 5 -12 0 -13c-16 -4 -30 -15 -41 -29c-69 -87 -2 -171 114 -150c17 51 34 102 56 152c26 61 57 121 97 169c21 26 45 50 72 68
c48 32 129 50 183 22zM778 561c17 12 30 36 26 53c-8 31 -57 24 -78 12c-37 -20 -67 -66 -85 -99c-24 -44 -47 -97 -67 -149c-8 -19 -17 -45 -25 -70c61 44 122 112 154 182l3 11c-17 15 -26 42 -13 70c2 5 7 4 7 0c10 -34 56 -27 78 -10z" />
    <glyph glyph-name="AE" unicode="&#xc6;" horiz-adv-x="914" 
d="M1083 669c2 5 9 3 7 -2c-22 -66 -44 -132 -65 -197c-3 -10 -15 -8 -14 0c21 104 -43 122 -148 119c4 -33 -14 -69 -50 -92l-34 -126c59 -2 131 2 151 47c2 5 10 5 8 -3c-30 -85 -53 -167 -81 -252c-6 -21 -11 -45 -2 -57c13 -16 34 -2 35 18c0 4 0 5 3 3
c25 -12 26 -48 9 -69c-31 -40 -112 -14 -83 83l40 136c-8 36 -39 53 -89 59c-8 -28 -16 -57 -23 -85c-5 -23 -5 -43 14 -58c3 -1 2 -3 -1 -5c-27 -14 -38 -35 -45 -57l-43 -158c38 -6 73 -14 93 -20c83 -25 179 -32 212 8c1 2 4 2 4 0c3 -17 -2 -38 -13 -58
c-62 -108 -204 -50 -275 -27c-82 26 -176 56 -220 11c-2 -2 -4 -2 -3 1c18 58 44 82 93 89l43 163c3 19 1 35 -16 48c-2 1 -1 4 2 5c23 13 34 29 42 48c13 49 25 98 39 145c-39 -51 -90 -98 -143 -133c-9 -24 -18 -47 -26 -71c-39 -111 -79 -224 -167 -299
c-40 -33 -93 -68 -158 -76c-160 -21 -217 118 -154 236c27 50 74 86 132 88c22 1 43 -4 58 -16c20 -15 31 -39 25 -75c-7 -43 -49 -87 -111 -82c-6 1 -6 7 -1 9c9 3 17 14 21 27c10 40 -33 49 -65 18c-47 -45 -39 -164 53 -173c90 -9 136 65 171 136c34 70 58 143 81 216
c-69 -19 -143 -22 -192 11c-61 40 -76 133 -24 189c20 21 48 36 77 43c24 6 51 7 83 2c9 -1 5 -12 0 -13c-16 -4 -30 -15 -41 -29c-69 -87 -2 -171 114 -150c17 51 34 102 56 152c26 61 57 121 97 169c21 26 45 50 72 68c48 32 129 50 183 22c16 -8 29 -19 37 -31h25
c55 0 179 -16 207 45zM778 561c17 12 30 36 26 53c-8 31 -57 24 -78 12c-37 -20 -67 -66 -85 -99c-24 -44 -47 -97 -67 -149c-8 -19 -17 -45 -25 -70c61 44 122 112 154 182l3 11c-17 15 -26 42 -13 70c2 5 7 4 7 0c10 -34 56 -27 78 -10z" />
    <glyph glyph-name="AEacute" unicode="&#x1fc;" horiz-adv-x="914" 
d="M1083 669c2 5 9 3 7 -2c-22 -66 -44 -132 -65 -197c-3 -10 -15 -8 -14 0c21 104 -43 122 -148 119c4 -33 -14 -69 -50 -92l-34 -126c59 -2 131 2 151 47c2 5 10 5 8 -3c-30 -85 -53 -167 -81 -252c-6 -21 -11 -45 -2 -57c13 -16 34 -2 35 18c0 4 0 5 3 3
c25 -12 26 -48 9 -69c-31 -40 -112 -14 -83 83l40 136c-8 36 -39 53 -89 59c-8 -28 -16 -57 -23 -85c-5 -23 -5 -43 14 -58c3 -1 2 -3 -1 -5c-27 -14 -38 -35 -45 -57l-43 -158c38 -6 73 -14 93 -20c83 -25 179 -32 212 8c1 2 4 2 4 0c3 -17 -2 -38 -13 -58
c-62 -108 -204 -50 -275 -27c-82 26 -176 56 -220 11c-2 -2 -4 -2 -3 1c18 58 44 82 93 89l43 163c3 19 1 35 -16 48c-2 1 -1 4 2 5c23 13 34 29 42 48c13 49 25 98 39 145c-39 -51 -90 -98 -143 -133c-9 -24 -18 -47 -26 -71c-39 -111 -79 -224 -167 -299
c-40 -33 -93 -68 -158 -76c-160 -21 -217 118 -154 236c27 50 74 86 132 88c22 1 43 -4 58 -16c20 -15 31 -39 25 -75c-7 -43 -49 -87 -111 -82c-6 1 -6 7 -1 9c9 3 17 14 21 27c10 40 -33 49 -65 18c-47 -45 -39 -164 53 -173c90 -9 136 65 171 136c34 70 58 143 81 216
c-69 -19 -143 -22 -192 11c-61 40 -76 133 -24 189c20 21 48 36 77 43c24 6 51 7 83 2c9 -1 5 -12 0 -13c-16 -4 -30 -15 -41 -29c-69 -87 -2 -171 114 -150c17 51 34 102 56 152c26 61 57 121 97 169c21 26 45 50 72 68c48 32 129 50 183 22c16 -8 29 -19 37 -31h25
c55 0 179 -16 207 45zM778 561c17 12 30 36 26 53c-8 31 -57 24 -78 12c-37 -20 -67 -66 -85 -99c-24 -44 -47 -97 -67 -149c-8 -19 -17 -45 -25 -70c61 44 122 112 154 182l3 11c-17 15 -26 42 -13 70c2 5 7 4 7 0c10 -34 56 -27 78 -10zM977 819l-121 -118
c-7 -5 -12 -9 -24 -9h-17c-8 0 -12 10 -5 18l96 121c5 8 13 11 21 11h43c12 0 18 -12 7 -23z" />
    <glyph glyph-name="Cacute" unicode="&#x106;" horiz-adv-x="438" 
d="M443 -31c-155 -88 -259 15 -242 156c3 23 3 49 29 64c3 1 3 3 1 4c-22 15 -19 36 -12 62c20 77 53 150 102 212c135 172 294 134 211 7c-17 -26 -47 -50 -70 -71c-24 -20 -55 -45 -78 -73c-20 -24 -44 -56 -39 -90c5 -33 41 -48 71 -37c28 10 48 45 31 71
c-2 4 -3 3 -5 -1c-13 -18 -41 -20 -44 3c-1 11 6 27 20 40c13 13 26 28 37 38c85 73 171 144 256 216c4 4 0 9 -5 6c-11 -8 -24 -11 -37 -12s-26 3 -38 9c-5 3 -10 6 -16 10c-32 21 -55 36 -83 43c-145 39 -288 -82 -364 -195c-36 -53 -63 -113 -79 -172
c-7 -25 -8 -50 -36 -66c-2 -1 -3 -3 -1 -4c21 -14 22 -27 20 -51c-18 -181 113 -271 257 -242c-16 -15 -31 -43 -35 -60c-18 -72 62 -101 96 -58c11 13 15 32 7 48c-1 3 -2 2 -5 -1c-7 -10 -20 -14 -32 -11c-21 7 -23 30 -15 49c19 44 73 69 105 94c9 9 3 17 -7 12zM611 819
l-121 -118c-7 -5 -12 -9 -24 -9h-17c-8 0 -12 10 -5 18l96 121c5 8 13 11 21 11h43c12 0 18 -12 7 -23z" />
    <glyph glyph-name="Ccircumflex" unicode="&#x108;" horiz-adv-x="438" 
d="M443 -31c-155 -88 -259 15 -242 156c3 23 3 49 29 64c3 1 3 3 1 4c-22 15 -19 36 -12 62c20 77 53 150 102 212c135 172 294 134 211 7c-17 -26 -47 -50 -70 -71c-24 -20 -55 -45 -78 -73c-20 -24 -44 -56 -39 -90c5 -33 41 -48 71 -37c28 10 48 45 31 71
c-2 4 -3 3 -5 -1c-13 -18 -41 -20 -44 3c-1 11 6 27 20 40c13 13 26 28 37 38c85 73 171 144 256 216c4 4 0 9 -5 6c-11 -8 -24 -11 -37 -12s-26 3 -38 9c-5 3 -10 6 -16 10c-32 21 -55 36 -83 43c-145 39 -288 -82 -364 -195c-36 -53 -63 -113 -79 -172
c-7 -25 -8 -50 -36 -66c-2 -1 -3 -3 -1 -4c21 -14 22 -27 20 -51c-18 -181 113 -271 257 -242c-16 -15 -31 -43 -35 -60c-18 -72 62 -101 96 -58c11 13 15 32 7 48c-1 3 -2 2 -5 -1c-7 -10 -20 -14 -32 -11c-21 7 -23 30 -15 49c19 44 73 69 105 94c9 9 3 17 -7 12zM535 842
h18c8 0 12 -3 13 -11l11 -125c1 -10 -1 -14 -10 -14h-21c-11 0 -17 4 -19 14c-6 24 -11 51 -11 51l-49 -55c-8 -7 -14 -10 -21 -10h-25c-9 0 -13 7 -7 16l103 125c6 8 14 9 18 9z" />
    <glyph glyph-name="Ccaron" unicode="&#x10c;" horiz-adv-x="438" 
d="M443 -31c-155 -88 -259 15 -242 156c3 23 3 49 29 64c3 1 3 3 1 4c-22 15 -19 36 -12 62c20 77 53 150 102 212c135 172 294 134 211 7c-17 -26 -47 -50 -70 -71c-24 -20 -55 -45 -78 -73c-20 -24 -44 -56 -39 -90c5 -33 41 -48 71 -37c28 10 48 45 31 71
c-2 4 -3 3 -5 -1c-13 -18 -41 -20 -44 3c-1 11 6 27 20 40c13 13 26 28 37 38c85 73 171 144 256 216c4 4 0 9 -5 6c-11 -8 -24 -11 -37 -12s-26 3 -38 9c-5 3 -10 6 -16 10c-32 21 -55 36 -83 43c-145 39 -288 -82 -364 -195c-36 -53 -63 -113 -79 -172
c-7 -25 -8 -50 -36 -66c-2 -1 -3 -3 -1 -4c21 -14 22 -27 20 -51c-18 -181 113 -271 257 -242c-16 -15 -31 -43 -35 -60c-18 -72 62 -101 96 -58c11 13 15 32 7 48c-1 3 -2 2 -5 -1c-7 -10 -20 -14 -32 -11c-21 7 -23 30 -15 49c19 44 73 69 105 94c9 9 3 17 -7 12zM490 692
h-18c-8 0 -12 3 -13 11l-11 125c-1 10 1 14 10 14h21c11 0 17 -4 19 -14c6 -24 11 -51 11 -51l49 54c8 8 14 11 21 11h25c9 0 13 -8 7 -16l-103 -126c-6 -7 -14 -8 -18 -8z" />
    <glyph glyph-name="Cdotaccent" unicode="&#x10a;" horiz-adv-x="438" 
d="M443 -31c-155 -88 -259 15 -242 156c3 23 3 49 29 64c3 1 3 3 1 4c-22 15 -19 36 -12 62c20 77 53 150 102 212c135 172 294 134 211 7c-17 -26 -47 -50 -70 -71c-24 -20 -55 -45 -78 -73c-20 -24 -44 -56 -39 -90c5 -33 41 -48 71 -37c28 10 48 45 31 71
c-2 4 -3 3 -5 -1c-13 -18 -41 -20 -44 3c-1 11 6 27 20 40c13 13 26 28 37 38c85 73 171 144 256 216c4 4 0 9 -5 6c-11 -8 -24 -11 -37 -12s-26 3 -38 9c-5 3 -10 6 -16 10c-32 21 -55 36 -83 43c-145 39 -288 -82 -364 -195c-36 -53 -63 -113 -79 -172
c-7 -25 -8 -50 -36 -66c-2 -1 -3 -3 -1 -4c21 -14 22 -27 20 -51c-18 -181 113 -271 257 -242c-16 -15 -31 -43 -35 -60c-18 -72 62 -101 96 -58c11 13 15 32 7 48c-1 3 -2 2 -5 -1c-7 -10 -20 -14 -32 -11c-21 7 -23 30 -15 49c19 44 73 69 105 94c9 9 3 17 -7 12zM568 733
c-5 -24 -28 -45 -52 -45s-41 21 -36 45c3 25 26 47 50 47s41 -22 38 -47z" />
    <glyph glyph-name="Ccedilla" unicode="&#xc7;" horiz-adv-x="50" 
d="M392 -31c10 5 16 -3 7 -12c-48 -37 -117 -67 -177 -66h-7l-34 -34c-10 -10 -16 -14 -3 -17c28 -7 41 -28 42 -51c2 -62 -77 -91 -123 -61c-15 10 -4 25 10 19c75 -28 91 74 21 67c-21 -3 -30 17 -16 31l55 53c-93 24 -159 108 -146 240c2 24 1 37 -20 51c-2 1 -1 3 1 4
c28 16 29 41 36 66c16 59 43 119 79 172c76 113 219 234 364 195c28 -7 51 -22 83 -43c6 -4 11 -7 16 -10c12 -6 25 -10 38 -9s26 4 37 12c5 3 9 -2 5 -6c-85 -72 -171 -143 -256 -216c-11 -10 -24 -25 -37 -38c-14 -13 -21 -29 -20 -40c3 -23 31 -21 44 -3c2 4 3 5 5 1
c17 -26 -3 -61 -31 -71c-30 -11 -66 4 -71 37c-5 34 19 66 39 90c23 28 54 53 78 73c23 21 53 45 70 71c83 127 -76 165 -211 -7c-49 -62 -82 -135 -102 -212c-7 -26 -10 -47 12 -62c2 -1 2 -3 -1 -4c-26 -15 -26 -41 -29 -64c-17 -141 87 -244 242 -156z" />
    <glyph glyph-name="Dcaron" unicode="&#x10e;" horiz-adv-x="724" 
d="M343 358c-27 -99 -3 -9 -29 -107c-7 -22 -18 -43 -45 -57c-3 -2 -4 -4 -1 -5c19 -15 19 -35 14 -57c-12 -46 -24 -92 -37 -138c-7 -29 -26 -58 -49 -74c-5 -3 -4 -6 -1 -6c54 8 98 3 134 -1c141 -12 284 106 343 224c3 6 9 15 13 20c8 10 24 25 36 32c3 1 4 3 2 4
c-21 18 3 89 9 122c11 62 5 121 -15 169c-33 82 -118 143 -225 156c-176 22 -395 -68 -471 -258c-44 -110 -23 -229 98 -239c54 -4 126 26 152 82c5 10 2 11 -9 8c-70 -17 -124 20 -126 87c-10 161 169 306 335 279c165 -24 177 -175 148 -310c-8 -36 -17 -77 -60 -96
c-3 -1 -3 -3 -2 -4c17 -17 9 -48 -4 -73c-36 -67 -126 -153 -201 -148c0 8 2 17 4 26c8 30 29 108 37 138c7 22 18 42 45 57c3 1 3 3 1 5c-19 14 -19 35 -14 57c42 159 34 129 77 288c1 4 -6 4 -8 0c-16 -35 -80 -92 -134 -114c-12 -5 -24 -7 -34 -7c-20 -1 -41 11 -39 33
c1 12 10 22 22 25c4 1 5 2 3 5c-12 13 -31 16 -47 11c-53 -16 -57 -106 17 -111c21 -2 45 1 65 8c1 -9 -1 -20 -4 -31zM526 692h-18c-8 0 -12 3 -13 11l-11 125c-1 10 1 14 10 14h21c11 0 17 -4 19 -14c6 -24 11 -51 11 -51l49 54c8 8 14 11 21 11h25c9 0 13 -8 7 -16
l-103 -126c-6 -7 -14 -8 -18 -8z" />
    <glyph glyph-name="Dcroat" unicode="&#x110;" horiz-adv-x="724" 
d="M343 358c3 11 5 22 4 31c-20 -7 -44 -10 -65 -8c-74 5 -70 95 -17 111c16 5 35 2 47 -11c2 -3 1 -4 -3 -5c-12 -3 -21 -13 -22 -25c-2 -22 19 -34 39 -33c10 0 22 2 34 7c54 22 118 79 134 114c2 4 9 4 8 0c-33 -124 -36 -133 -55 -206h68c9 0 15 -8 13 -18l-6 -19
c-2 -10 -12 -17 -22 -17h-68c-32 -129 -35 -160 -80 -311c75 -5 165 81 201 148c13 25 21 56 4 73c-1 1 -1 3 2 4c43 19 52 60 60 96c29 135 17 286 -148 310c-166 27 -345 -118 -335 -279c2 -67 56 -104 126 -87c11 3 14 2 9 -8c-26 -56 -98 -86 -152 -82
c-121 10 -142 129 -98 239c76 190 295 280 471 258c107 -13 192 -74 225 -156c20 -48 26 -107 15 -169c-6 -33 -30 -104 -9 -122c2 -1 1 -3 -2 -4c-6 -3 -12 -8 -18 -13c-8 -7 -13 -13 -18 -19c-4 -5 -10 -14 -13 -20c-59 -118 -202 -236 -343 -224c-36 4 -80 9 -134 1
c-3 0 -4 3 1 6c23 16 42 45 49 74l76 285h-69c-10 0 -15 7 -13 17l5 19c3 10 13 18 22 18h70z" />
    <glyph glyph-name="Egrave" unicode="&#xc8;" horiz-adv-x="422" 
d="M400 274c-21 -40 -36 -69 -38 -71c-10 -20 -21 -42 -15 -56c9 -19 33 -9 38 9c1 4 2 6 5 3c21 -17 13 -52 -8 -69c-39 -32 -110 10 -62 99l61 116c-14 19 -53 30 -81 31c-22 -81 -42 -159 -64 -242c-4 -14 -24 -80 -103 -116c42 2 126 -14 162 -25c83 -25 179 -32 212 8
c1 2 5 2 5 0c2 -17 -3 -38 -14 -58c-61 -108 -204 -50 -275 -27c-82 26 -176 56 -220 11c-2 -2 -4 -2 -3 1c15 47 39 74 74 90c16 14 27 35 36 61l26 101c3 19 1 35 -16 48c-2 1 -1 4 2 5c23 13 34 29 42 48c27 103 55 206 82 309c4 14 5 27 3 40h-58
c-84 -1 -141 -81 -104 -119c18 -18 47 -8 50 20c1 10 -3 19 -9 22c-3 2 -1 6 4 6c94 3 70 -149 -31 -139c-44 4 -71 35 -78 74c-15 86 60 172 169 171c71 -2 142 -1 214 -1c52 0 164 -14 201 35c3 5 9 1 7 -3c-35 -57 -69 -114 -104 -172c-14 -26 -69 -132 -108 -206l-1 -4
h-1zM309 371c31 -5 85 -10 120 23l66 124c5 68 -28 76 -128 70c-21 -79 -40 -149 -58 -217zM311 825c-6 12 -2 17 8 17h40c9 0 19 -4 22 -15c10 -38 30 -116 32 -123c1 -7 -1 -12 -9 -12h-11c-12 0 -18 6 -22 14z" />
    <glyph glyph-name="Eacute" unicode="&#xc9;" horiz-adv-x="422" 
d="M400 274c-21 -40 -36 -69 -38 -71c-10 -20 -21 -42 -15 -56c9 -19 33 -9 38 9c1 4 2 6 5 3c21 -17 13 -52 -8 -69c-39 -32 -110 10 -62 99l61 116c-14 19 -53 30 -81 31c-22 -81 -42 -159 -64 -242c-4 -14 -24 -80 -103 -116c42 2 126 -14 162 -25c83 -25 179 -32 212 8
c1 2 5 2 5 0c2 -17 -3 -38 -14 -58c-61 -108 -204 -50 -275 -27c-82 26 -176 56 -220 11c-2 -2 -4 -2 -3 1c15 47 39 74 74 90c16 14 27 35 36 61l26 101c3 19 1 35 -16 48c-2 1 -1 4 2 5c23 13 34 29 42 48c27 103 55 206 82 309c4 14 5 27 3 40h-58
c-84 -1 -141 -81 -104 -119c18 -18 47 -8 50 20c1 10 -3 19 -9 22c-3 2 -1 6 4 6c94 3 70 -149 -31 -139c-44 4 -71 35 -78 74c-15 86 60 172 169 171c71 -2 142 -1 214 -1c52 0 164 -14 201 35c3 5 9 1 7 -3c-35 -57 -69 -114 -104 -172c-14 -26 -69 -132 -108 -206l-1 -4
h-1zM309 371c31 -5 85 -10 120 23l66 124c5 68 -28 76 -128 70c-21 -79 -40 -149 -58 -217zM551 819l-121 -118c-7 -5 -12 -9 -24 -9h-17c-8 0 -12 10 -5 18l96 121c5 8 13 11 21 11h43c12 0 18 -12 7 -23z" />
    <glyph glyph-name="Ecircumflex" unicode="&#xca;" horiz-adv-x="422" 
d="M400 274c-21 -40 -36 -69 -38 -71c-10 -20 -21 -42 -15 -56c9 -19 33 -9 38 9c1 4 2 6 5 3c21 -17 13 -52 -8 -69c-39 -32 -110 10 -62 99l61 116c-14 19 -53 30 -81 31c-22 -81 -42 -159 -64 -242c-4 -14 -24 -80 -103 -116c42 2 126 -14 162 -25c83 -25 179 -32 212 8
c1 2 5 2 5 0c2 -17 -3 -38 -14 -58c-61 -108 -204 -50 -275 -27c-82 26 -176 56 -220 11c-2 -2 -4 -2 -3 1c15 47 39 74 74 90c16 14 27 35 36 61l26 101c3 19 1 35 -16 48c-2 1 -1 4 2 5c23 13 34 29 42 48c27 103 55 206 82 309c4 14 5 27 3 40h-58
c-84 -1 -141 -81 -104 -119c18 -18 47 -8 50 20c1 10 -3 19 -9 22c-3 2 -1 6 4 6c94 3 70 -149 -31 -139c-44 4 -71 35 -78 74c-15 86 60 172 169 171c71 -2 142 -1 214 -1c52 0 164 -14 201 35c3 5 9 1 7 -3c-35 -57 -69 -114 -104 -172c-14 -26 -69 -132 -108 -206l-1 -4
h-1zM309 371c31 -5 85 -10 120 23l66 124c5 68 -28 76 -128 70c-21 -79 -40 -149 -58 -217zM446 842h18c8 0 12 -3 13 -11l11 -125c1 -10 -1 -14 -10 -14h-21c-11 0 -17 4 -19 14c-6 24 -11 51 -11 51l-49 -55c-8 -7 -14 -10 -21 -10h-25c-9 0 -13 7 -7 16l103 125
c6 8 14 9 18 9z" />
    <glyph glyph-name="Ecaron" unicode="&#x11a;" horiz-adv-x="422" 
d="M400 274c-21 -40 -36 -69 -38 -71c-10 -20 -21 -42 -15 -56c9 -19 33 -9 38 9c1 4 2 6 5 3c21 -17 13 -52 -8 -69c-39 -32 -110 10 -62 99l61 116c-14 19 -53 30 -81 31c-22 -81 -42 -159 -64 -242c-4 -14 -24 -80 -103 -116c42 2 126 -14 162 -25c83 -25 179 -32 212 8
c1 2 5 2 5 0c2 -17 -3 -38 -14 -58c-61 -108 -204 -50 -275 -27c-82 26 -176 56 -220 11c-2 -2 -4 -2 -3 1c15 47 39 74 74 90c16 14 27 35 36 61l26 101c3 19 1 35 -16 48c-2 1 -1 4 2 5c23 13 34 29 42 48c27 103 55 206 82 309c4 14 5 27 3 40h-58
c-84 -1 -141 -81 -104 -119c18 -18 47 -8 50 20c1 10 -3 19 -9 22c-3 2 -1 6 4 6c94 3 70 -149 -31 -139c-44 4 -71 35 -78 74c-15 86 60 172 169 171c71 -2 142 -1 214 -1c52 0 164 -14 201 35c3 5 9 1 7 -3c-35 -57 -69 -114 -104 -172c-14 -26 -69 -132 -108 -206l-1 -4
h-1zM309 371c31 -5 85 -10 120 23l66 124c5 68 -28 76 -128 70c-21 -79 -40 -149 -58 -217zM408 692h-18c-8 0 -12 3 -13 11l-11 125c-1 10 1 14 10 14h21c11 0 17 -4 19 -14c6 -24 11 -51 11 -51l49 54c8 8 14 11 21 11h25c9 0 13 -8 7 -16l-103 -126c-6 -7 -14 -8 -18 -8z
" />
    <glyph glyph-name="Edieresis" unicode="&#xcb;" horiz-adv-x="422" 
d="M400 274c-21 -40 -36 -69 -38 -71c-10 -20 -21 -42 -15 -56c9 -19 33 -9 38 9c1 4 2 6 5 3c21 -17 13 -52 -8 -69c-39 -32 -110 10 -62 99l61 116c-14 19 -53 30 -81 31c-22 -81 -42 -159 -64 -242c-4 -14 -24 -80 -103 -116c42 2 126 -14 162 -25c83 -25 179 -32 212 8
c1 2 5 2 5 0c2 -17 -3 -38 -14 -58c-61 -108 -204 -50 -275 -27c-82 26 -176 56 -220 11c-2 -2 -4 -2 -3 1c15 47 39 74 74 90c16 14 27 35 36 61l26 101c3 19 1 35 -16 48c-2 1 -1 4 2 5c23 13 34 29 42 48c27 103 55 206 82 309c4 14 5 27 3 40h-58
c-84 -1 -141 -81 -104 -119c18 -18 47 -8 50 20c1 10 -3 19 -9 22c-3 2 -1 6 4 6c94 3 70 -149 -31 -139c-44 4 -71 35 -78 74c-15 86 60 172 169 171c71 -2 142 -1 214 -1c52 0 164 -14 201 35c3 5 9 1 7 -3c-35 -57 -69 -114 -104 -172c-14 -26 -69 -132 -108 -206l-1 -4
h-1zM309 371c31 -5 85 -10 120 23l66 124c5 68 -28 76 -128 70c-21 -79 -40 -149 -58 -217zM529 733c-5 -24 -27 -45 -51 -45c-25 0 -41 21 -37 45c3 25 27 47 51 47s41 -22 37 -47zM398 733c-5 -24 -28 -45 -52 -45s-41 21 -36 45c3 25 26 47 50 47s41 -22 38 -47z" />
    <glyph glyph-name="Emacron" unicode="&#x112;" horiz-adv-x="422" 
d="M400 274c-21 -40 -36 -69 -38 -71c-10 -20 -21 -42 -15 -56c9 -19 33 -9 38 9c1 4 2 6 5 3c21 -17 13 -52 -8 -69c-39 -32 -110 10 -62 99l61 116c-14 19 -53 30 -81 31c-22 -81 -42 -159 -64 -242c-4 -14 -24 -80 -103 -116c42 2 126 -14 162 -25c83 -25 179 -32 212 8
c1 2 5 2 5 0c2 -17 -3 -38 -14 -58c-61 -108 -204 -50 -275 -27c-82 26 -176 56 -220 11c-2 -2 -4 -2 -3 1c15 47 39 74 74 90c16 14 27 35 36 61l26 101c3 19 1 35 -16 48c-2 1 -1 4 2 5c23 13 34 29 42 48c27 103 55 206 82 309c4 14 5 27 3 40h-58
c-84 -1 -141 -81 -104 -119c18 -18 47 -8 50 20c1 10 -3 19 -9 22c-3 2 -1 6 4 6c94 3 70 -149 -31 -139c-44 4 -71 35 -78 74c-15 86 60 172 169 171c71 -2 142 -1 214 -1c52 0 164 -14 201 35c3 5 9 1 7 -3c-35 -57 -69 -114 -104 -172c-14 -26 -69 -132 -108 -206l-1 -4
h-1zM309 371c31 -5 85 -10 120 23l66 124c5 68 -28 76 -128 70c-21 -79 -40 -149 -58 -217zM343 758h161c9 0 14 -7 12 -15l-5 -17c-2 -9 -11 -16 -19 -16h-161c-9 0 -14 7 -12 16l5 17c2 8 11 15 19 15z" />
    <glyph glyph-name="Ebreve" unicode="&#x114;" horiz-adv-x="422" 
d="M400 274c-21 -40 -36 -69 -38 -71c-10 -20 -21 -42 -15 -56c9 -19 33 -9 38 9c1 4 2 6 5 3c21 -17 13 -52 -8 -69c-39 -32 -110 10 -62 99l61 116c-14 19 -53 30 -81 31c-22 -81 -42 -159 -64 -242c-4 -14 -24 -80 -103 -116c42 2 126 -14 162 -25c83 -25 179 -32 212 8
c1 2 5 2 5 0c2 -17 -3 -38 -14 -58c-61 -108 -204 -50 -275 -27c-82 26 -176 56 -220 11c-2 -2 -4 -2 -3 1c15 47 39 74 74 90c16 14 27 35 36 61l26 101c3 19 1 35 -16 48c-2 1 -1 4 2 5c23 13 34 29 42 48c27 103 55 206 82 309c4 14 5 27 3 40h-58
c-84 -1 -141 -81 -104 -119c18 -18 47 -8 50 20c1 10 -3 19 -9 22c-3 2 -1 6 4 6c94 3 70 -149 -31 -139c-44 4 -71 35 -78 74c-15 86 60 172 169 171c71 -2 142 -1 214 -1c52 0 164 -14 201 35c3 5 9 1 7 -3c-35 -57 -69 -114 -104 -172c-14 -26 -69 -132 -108 -206l-1 -4
h-1zM309 371c31 -5 85 -10 120 23l66 124c5 68 -28 76 -128 70c-21 -79 -40 -149 -58 -217zM516 768c-9 -44 -48 -80 -91 -80c-44 0 -73 36 -65 80c0 2 0 4 1 5h46c-1 -1 -1 -3 -1 -4c-3 -18 9 -33 27 -33c17 0 33 15 37 33v4h47c-1 -1 -1 -3 -1 -5z" />
    <glyph glyph-name="Edotaccent" unicode="&#x116;" horiz-adv-x="422" 
d="M400 274c-21 -40 -36 -69 -38 -71c-10 -20 -21 -42 -15 -56c9 -19 33 -9 38 9c1 4 2 6 5 3c21 -17 13 -52 -8 -69c-39 -32 -110 10 -62 99l61 116c-14 19 -53 30 -81 31c-22 -81 -42 -159 -64 -242c-4 -14 -24 -80 -103 -116c42 2 126 -14 162 -25c83 -25 179 -32 212 8
c1 2 5 2 5 0c2 -17 -3 -38 -14 -58c-61 -108 -204 -50 -275 -27c-82 26 -176 56 -220 11c-2 -2 -4 -2 -3 1c15 47 39 74 74 90c16 14 27 35 36 61l26 101c3 19 1 35 -16 48c-2 1 -1 4 2 5c23 13 34 29 42 48c27 103 55 206 82 309c4 14 5 27 3 40h-58
c-84 -1 -141 -81 -104 -119c18 -18 47 -8 50 20c1 10 -3 19 -9 22c-3 2 -1 6 4 6c94 3 70 -149 -31 -139c-44 4 -71 35 -78 74c-15 86 60 172 169 171c71 -2 142 -1 214 -1c52 0 164 -14 201 35c3 5 9 1 7 -3c-35 -57 -69 -114 -104 -172c-14 -26 -69 -132 -108 -206l-1 -4
h-1zM309 371c31 -5 85 -10 120 23l66 124c5 68 -28 76 -128 70c-21 -79 -40 -149 -58 -217zM460 733c-5 -24 -28 -45 -52 -45s-41 21 -36 45c3 25 26 47 50 47s41 -22 38 -47z" />
    <glyph glyph-name="Eogonek" unicode="&#x118;" horiz-adv-x="422" 
d="M400 274c-21 -40 -36 -69 -38 -71c-10 -20 -21 -42 -15 -56c9 -19 33 -9 38 9c1 4 2 6 5 3c21 -17 13 -52 -8 -69c-39 -32 -110 10 -62 99l61 116c-14 19 -53 30 -81 31c-22 -81 -42 -159 -64 -242c-4 -14 -24 -80 -103 -116c42 2 126 -14 162 -25c83 -25 179 -32 212 8
c1 2 5 2 5 0c2 -17 -3 -38 -14 -58c-51 -91 -162 -64 -237 -39c-13 -6 -24 -12 -33 -18c-35 -26 -33 -70 0 -67c7 1 19 3 24 8c3 2 7 2 7 -3c1 -12 -3 -29 -12 -39c-21 -28 -53 -39 -80 -36c-11 2 -21 6 -28 12c-44 42 -10 112 51 151c6 3 11 6 17 10c-78 24 -163 47 -204 5
c-2 -2 -4 -2 -3 1c15 47 39 74 74 90c16 14 27 35 36 61l26 101c3 19 1 35 -16 48c-2 1 -1 4 2 5c23 13 34 29 42 48l82 309c4 14 5 27 3 40h-58c-84 -1 -141 -81 -104 -119c18 -18 47 -8 50 20c1 10 -3 19 -9 22c-3 2 -1 6 4 6c94 3 70 -149 -31 -139c-44 4 -71 35 -78 74
c-15 86 60 172 169 171c71 -2 142 -1 214 -1c52 0 164 -14 201 35c3 5 9 1 7 -3l-104 -172l-108 -206l-1 -4h-1zM309 371c31 -5 85 -10 120 23l66 124c5 68 -28 76 -128 70z" />
    <glyph glyph-name="Gcircumflex" unicode="&#x11c;" horiz-adv-x="592" 
d="M387 318c-24 -8 -53 -15 -83 -19c-16 -71 -8 -141 68 -138c23 1 48 11 70 31c14 13 15 21 19 37c7 24 8 43 -9 55c-3 2 -1 4 1 5c42 7 128 53 160 121c2 5 8 5 8 0l-43 -159c-5 -23 -4 -43 14 -58c3 -1 2 -3 -1 -5c-27 -14 -38 -34 -45 -57c-8 -31 -17 -60 -30 -90
c-46 -112 -140 -223 -265 -239c-247 -32 -200 270 -19 276c22 1 43 -4 59 -16c19 -14 31 -39 25 -74c-7 -44 -50 -88 -111 -83c-7 1 -7 7 -2 9c9 3 18 15 21 27c2 9 2 17 -1 23c-4 8 -12 13 -23 15c-34 4 -59 -28 -66 -58c-8 -34 8 -67 45 -82c37 -14 89 -10 139 35
c69 62 100 188 121 269c-124 -113 -310 -42 -258 154c-102 11 -191 58 -180 172c3 39 27 76 75 99c38 18 91 21 155 -8c8 -5 2 -15 -4 -14c-17 1 -34 -6 -49 -17c-77 -58 -57 -141 25 -174c10 23 24 47 40 72c69 108 196 223 318 236c87 9 127 -45 94 -132
c-42 -111 -161 -177 -268 -213zM346 411c-10 -18 -21 -42 -30 -68c32 4 64 11 95 22c27 10 56 23 84 39c-41 11 -62 57 -31 113c3 6 8 6 9 2c10 -29 33 -34 56 -26c95 36 124 158 41 135c-69 -13 -172 -122 -224 -217zM582 842h18c8 0 12 -3 13 -11l11 -125
c1 -10 -1 -14 -10 -14h-21c-11 0 -17 4 -19 14c-6 24 -11 51 -11 51l-49 -55c-8 -7 -14 -10 -21 -10h-25c-9 0 -13 7 -7 16l103 125c6 8 14 9 18 9z" />
    <glyph glyph-name="Gbreve" unicode="&#x11e;" horiz-adv-x="592" 
d="M387 318c-24 -8 -53 -15 -83 -19c-16 -71 -8 -141 68 -138c23 1 48 11 70 31c14 13 15 21 19 37c7 24 8 43 -9 55c-3 2 -1 4 1 5c42 7 128 53 160 121c2 5 8 5 8 0l-43 -159c-5 -23 -4 -43 14 -58c3 -1 2 -3 -1 -5c-27 -14 -38 -34 -45 -57c-8 -31 -17 -60 -30 -90
c-46 -112 -140 -223 -265 -239c-247 -32 -200 270 -19 276c22 1 43 -4 59 -16c19 -14 31 -39 25 -74c-7 -44 -50 -88 -111 -83c-7 1 -7 7 -2 9c9 3 18 15 21 27c2 9 2 17 -1 23c-4 8 -12 13 -23 15c-34 4 -59 -28 -66 -58c-8 -34 8 -67 45 -82c37 -14 89 -10 139 35
c69 62 100 188 121 269c-124 -113 -310 -42 -258 154c-102 11 -191 58 -180 172c3 39 27 76 75 99c38 18 91 21 155 -8c8 -5 2 -15 -4 -14c-17 1 -34 -6 -49 -17c-77 -58 -57 -141 25 -174c10 23 24 47 40 72c69 108 196 223 318 236c87 9 127 -45 94 -132
c-42 -111 -161 -177 -268 -213zM346 411c-10 -18 -21 -42 -30 -68c32 4 64 11 95 22c27 10 56 23 84 39c-41 11 -62 57 -31 113c3 6 8 6 9 2c10 -29 33 -34 56 -26c95 36 124 158 41 135c-69 -13 -172 -122 -224 -217zM626 768c-9 -44 -48 -80 -91 -80c-44 0 -73 36 -65 80
c0 2 0 4 1 5h46c-1 -1 -1 -3 -1 -4c-3 -18 9 -33 27 -33c17 0 33 15 37 33v4h47c-1 -1 -1 -3 -1 -5z" />
    <glyph glyph-name="Gdotaccent" unicode="&#x120;" horiz-adv-x="592" 
d="M387 318c-24 -8 -53 -15 -83 -19c-16 -71 -8 -141 68 -138c23 1 48 11 70 31c14 13 15 21 19 37c7 24 8 43 -9 55c-3 2 -1 4 1 5c42 7 128 53 160 121c2 5 8 5 8 0l-43 -159c-5 -23 -4 -43 14 -58c3 -1 2 -3 -1 -5c-27 -14 -38 -34 -45 -57c-8 -31 -17 -60 -30 -90
c-46 -112 -140 -223 -265 -239c-247 -32 -200 270 -19 276c22 1 43 -4 59 -16c19 -14 31 -39 25 -74c-7 -44 -50 -88 -111 -83c-7 1 -7 7 -2 9c9 3 18 15 21 27c2 9 2 17 -1 23c-4 8 -12 13 -23 15c-34 4 -59 -28 -66 -58c-8 -34 8 -67 45 -82c37 -14 89 -10 139 35
c69 62 100 188 121 269c-124 -113 -310 -42 -258 154c-102 11 -191 58 -180 172c3 39 27 76 75 99c38 18 91 21 155 -8c8 -5 2 -15 -4 -14c-17 1 -34 -6 -49 -17c-77 -58 -57 -141 25 -174c10 23 24 47 40 72c69 108 196 223 318 236c87 9 127 -45 94 -132
c-42 -111 -161 -177 -268 -213zM346 411c-10 -18 -21 -42 -30 -68c32 4 64 11 95 22c27 10 56 23 84 39c-41 11 -62 57 -31 113c3 6 8 6 9 2c10 -29 33 -34 56 -26c95 36 124 158 41 135c-69 -13 -172 -122 -224 -217zM548 733c-5 -24 -28 -45 -52 -45s-41 21 -36 45
c3 25 26 47 50 47s41 -22 38 -47z" />
    <glyph glyph-name="Gcommaaccent" unicode="&#x122;" horiz-adv-x="592" 
d="M387 318c-24 -8 -53 -15 -83 -19c-16 -71 -8 -141 68 -138c23 1 48 11 70 31c14 13 15 21 19 37c7 24 8 43 -9 55c-3 2 -1 4 1 5c42 7 128 53 160 121c2 5 8 5 8 0l-43 -159c-5 -23 -4 -43 14 -58c3 -1 2 -3 -1 -5c-27 -14 -38 -34 -45 -57c-8 -31 -17 -60 -30 -90
c-46 -112 -140 -223 -265 -239c-247 -32 -200 270 -19 276c22 1 43 -4 59 -16c19 -14 31 -39 25 -74c-7 -44 -50 -88 -111 -83c-7 1 -7 7 -2 9c9 3 18 15 21 27c2 9 2 17 -1 23c-4 8 -12 13 -23 15c-34 4 -59 -28 -66 -58c-8 -34 8 -67 45 -82c37 -14 89 -10 139 35
c69 62 100 188 121 269c-124 -113 -310 -42 -258 154c-102 11 -191 58 -180 172c3 39 27 76 75 99c38 18 91 21 155 -8c8 -5 2 -15 -4 -14c-17 1 -34 -6 -49 -17c-77 -58 -57 -141 25 -174c10 23 24 47 40 72c69 108 196 223 318 236c87 9 127 -45 94 -132
c-42 -111 -161 -177 -268 -213zM346 411c-10 -18 -21 -42 -30 -68c32 4 64 11 95 22c27 10 56 23 84 39c-41 11 -62 57 -31 113c3 6 8 6 9 2c10 -29 33 -34 56 -26c95 36 124 158 41 135c-69 -13 -172 -122 -224 -217zM289 -239c26 0 47 -22 43 -52c-6 -41 -47 -82 -98 -98
c-20 -7 -21 15 -3 21s32 21 41 34c-24 1 -37 19 -37 43c0 28 26 52 54 52z" />
    <glyph glyph-name="Hcircumflex" unicode="&#x124;" horiz-adv-x="719" 
d="M660 498l-15 -57c-35 -62 -89 -120 -143 -159c-5 -4 -11 -8 -17 -12c5 26 10 51 15 74c19 87 34 199 124 237c7 3 8 12 -3 13c-52 5 -90 25 -135 40c-65 21 -146 27 -205 -12c-56 -36 -77 -118 -37 -165c40 -45 131 -31 147 24c1 6 -2 6 -5 5c-30 -15 -66 4 -58 45
c22 113 170 56 235 49c-8 -3 -16 -6 -24 -10c-123 -60 -139 -192 -164 -314c-3 -13 -5 -26 -8 -39c-117 -26 -184 56 -115 146c11 14 24 25 40 30c6 1 9 12 1 13c-32 4 -59 2 -83 -5c-29 -8 -57 -25 -77 -47c-52 -58 -37 -150 24 -188c50 -31 127 -24 198 -1
c-9 -41 -19 -82 -32 -123c-22 -71 -49 -136 -82 -168c-47 -45 -101 -51 -139 -37c-39 15 -54 50 -49 84c5 30 29 62 63 58c11 -2 19 -7 24 -15c3 -6 4 -14 2 -23c-2 -12 -10 -24 -19 -27c-5 -2 -4 -8 2 -9c62 -5 102 39 106 83c4 35 -9 60 -30 74c-16 12 -37 17 -59 16
c-181 -6 -210 -303 36 -271c164 21 234 165 274 317c9 33 16 64 23 97c6 4 11 7 16 11c50 35 96 79 131 124l-28 -106c-7 -22 -18 -42 -45 -57c-3 -1 -4 -3 -1 -5c18 -14 19 -34 14 -56l-37 -138c-7 -29 -26 -58 -49 -74c-5 -3 -4 -6 -1 -6h168c3 0 5 3 3 6
c-15 16 -18 45 -10 74c8 30 29 107 37 137c7 23 18 43 45 57c3 2 3 4 1 5c-19 15 -19 35 -14 58c42 158 72 270 115 429c0 4 -6 4 -8 0c-32 -69 -118 -115 -160 -122c-2 0 -4 -3 -1 -4c17 -12 16 -32 9 -56zM681 842h18c8 0 12 -3 13 -11l11 -125c1 -10 -1 -14 -10 -14h-21
c-11 0 -17 4 -19 14c-6 24 -11 51 -11 51l-49 -55c-8 -7 -14 -10 -21 -10h-25c-9 0 -13 7 -7 16l103 125c6 8 14 9 18 9z" />
    <glyph glyph-name="Hbar" unicode="&#x126;" horiz-adv-x="719" 
d="M812 680c2 4 8 4 8 0c-26 -95 -47 -173 -68 -254h45c9 0 15 -8 12 -18l-5 -19c-2 -10 -12 -17 -22 -17h-45l-32 -121c-5 -23 -5 -43 14 -58c2 -1 2 -3 -1 -5c-27 -14 -38 -34 -45 -57c-8 -30 -29 -107 -37 -137c-8 -29 -5 -58 10 -74c2 -3 0 -6 -3 -6h-168c-3 0 -4 3 1 6
c23 16 42 45 49 74l37 138c5 22 4 42 -14 56c-3 2 -2 4 1 5c27 15 38 35 45 57l28 106c-35 -45 -81 -89 -131 -124c-5 -4 -10 -7 -16 -11c-7 -33 -14 -64 -23 -97c-40 -152 -110 -296 -274 -317c-246 -32 -217 265 -36 271c22 1 43 -4 59 -16c21 -14 34 -39 30 -74
c-4 -44 -44 -88 -106 -83c-6 1 -7 7 -2 9c9 3 17 15 19 27c2 9 1 17 -2 23c-5 8 -13 13 -24 15c-34 4 -58 -28 -63 -58c-5 -34 10 -69 49 -84c38 -14 92 -8 139 37c33 32 60 97 82 168c13 41 23 82 32 123c-71 -23 -148 -30 -198 1c-61 38 -76 130 -24 188
c20 22 48 39 77 47c24 7 51 9 83 5c8 -1 5 -12 -1 -13c-16 -5 -29 -16 -40 -30c-69 -90 -2 -172 115 -146c3 13 5 26 8 39c8 38 15 78 25 116h-49c-10 0 -15 7 -13 17l5 19c3 10 13 18 22 18h51c23 60 58 112 123 144c8 4 16 7 24 10c-65 7 -213 64 -235 -49
c-8 -41 28 -60 58 -45c3 1 6 1 5 -5c-16 -55 -107 -69 -147 -24c-40 47 -19 129 37 165c59 39 140 33 205 12c45 -15 83 -35 135 -40c11 -1 10 -10 3 -13c-63 -27 -89 -90 -106 -155h118l9 15l15 57c7 24 8 44 -9 56c-3 1 -1 4 1 4c42 7 128 53 160 122zM502 282
c33 24 66 55 95 90h-91c-2 -10 -4 -19 -6 -28c-5 -23 -10 -48 -15 -74c6 4 12 8 17 12z" />
    <glyph glyph-name="Igrave" unicode="&#xcc;" horiz-adv-x="258" 
d="M215 541c-26 -98 -52 -192 -79 -291c-7 -22 -18 -42 -45 -57c-3 -1 -3 -3 -1 -5c19 -14 19 -34 14 -57c-15 -54 -34 -108 -50 -162c-9 -31 -18 -64 -15 -93c12 -107 181 -118 215 8c9 34 5 66 -22 86c-10 8 -23 12 -36 12c-16 0 -34 -8 -48 -26c-17 -23 -17 -58 15 -76
c3 -2 6 1 5 3c-3 5 -2 13 3 20c14 22 40 7 40 -13c0 -86 -156 -96 -135 26c11 65 78 133 141 134c2 1 4 3 1 5c-12 9 -12 32 -7 56c3 12 6 23 9 35c8 16 19 31 40 42c3 2 4 4 1 5c-19 15 -19 35 -14 58c43 158 83 305 125 464c1 4 -5 4 -7 0c-52 -112 -183 -121 -277 -172
c-29 -16 -54 -38 -67 -66c-23 -47 -5 -112 42 -127c45 -15 102 31 91 75c-2 5 -4 4 -6 1c-14 -22 -47 -24 -58 8c-28 79 75 110 129 130c0 -7 -2 -15 -4 -23zM182 825c-6 12 -2 17 8 17h40c9 0 19 -4 22 -15c10 -38 30 -116 32 -123c1 -7 -1 -12 -9 -12h-11
c-12 0 -18 6 -22 14z" />
    <glyph glyph-name="Iacute" unicode="&#xcd;" horiz-adv-x="258" 
d="M215 541c-26 -98 -52 -192 -79 -291c-7 -22 -18 -42 -45 -57c-3 -1 -3 -3 -1 -5c19 -14 19 -34 14 -57c-15 -54 -34 -108 -50 -162c-9 -31 -18 -64 -15 -93c12 -107 181 -118 215 8c9 34 5 66 -22 86c-10 8 -23 12 -36 12c-16 0 -34 -8 -48 -26c-17 -23 -17 -58 15 -76
c3 -2 6 1 5 3c-3 5 -2 13 3 20c14 22 40 7 40 -13c0 -86 -156 -96 -135 26c11 65 78 133 141 134c2 1 4 3 1 5c-12 9 -12 32 -7 56c3 12 6 23 9 35c8 16 19 31 40 42c3 2 4 4 1 5c-19 15 -19 35 -14 58c43 158 83 305 125 464c1 4 -5 4 -7 0c-52 -112 -183 -121 -277 -172
c-29 -16 -54 -38 -67 -66c-23 -47 -5 -112 42 -127c45 -15 102 31 91 75c-2 5 -4 4 -6 1c-14 -22 -47 -24 -58 8c-28 79 75 110 129 130c0 -7 -2 -15 -4 -23zM428 819l-121 -118c-7 -5 -12 -9 -24 -9h-17c-8 0 -12 10 -5 18l96 121c5 8 13 11 21 11h43c12 0 18 -12 7 -23z
" />
    <glyph glyph-name="Icircumflex" unicode="&#xce;" horiz-adv-x="258" 
d="M390 706c1 -10 -1 -14 -10 -14h-14c-40 -150 -78 -290 -119 -441c-5 -23 -5 -43 14 -58c3 -1 2 -3 -1 -5c-21 -11 -32 -26 -40 -42l-9 -35c-5 -24 -5 -47 7 -56c3 -2 1 -4 -1 -5c-63 -1 -130 -69 -141 -134c-21 -122 135 -112 135 -26c0 20 -26 35 -40 13
c-5 -7 -6 -15 -3 -20c1 -2 -2 -5 -5 -3c-32 18 -32 53 -15 76c14 18 32 26 48 26c13 0 26 -4 36 -12c27 -20 31 -52 22 -86c-34 -126 -203 -115 -215 -8c-3 29 6 62 15 93c16 54 35 108 50 162c5 23 5 43 -14 57c-2 2 -2 4 1 5c27 15 38 35 45 57c27 99 53 193 79 291
c2 8 4 16 4 23c-54 -20 -157 -51 -129 -130c11 -32 44 -30 58 -8c2 3 4 4 6 -1c11 -44 -46 -90 -91 -75c-47 15 -65 80 -42 127c13 28 38 50 67 66c87 48 206 59 265 150c-7 1 -11 6 -13 13c-6 24 -11 51 -11 51l-49 -55c-8 -7 -14 -10 -21 -10h-25c-9 0 -13 7 -7 16
l103 125c6 8 14 9 18 9h18c8 0 12 -3 13 -11z" />
    <glyph glyph-name="Itilde" unicode="&#x128;" horiz-adv-x="258" 
d="M419 772c9 10 24 8 21 -6c-6 -30 -39 -59 -72 -67c-41 -153 -80 -295 -121 -448c-5 -23 -5 -43 14 -58c3 -1 2 -3 -1 -5c-21 -11 -32 -26 -40 -42l-9 -35c-5 -24 -5 -47 7 -56c3 -2 1 -4 -1 -5c-63 -1 -130 -69 -141 -134c-21 -122 135 -112 135 -26c0 20 -26 35 -40 13
c-5 -7 -6 -15 -3 -20c1 -2 -2 -5 -5 -3c-32 18 -32 53 -15 76c14 18 32 26 48 26c13 0 26 -4 36 -12c27 -20 31 -52 22 -86c-34 -126 -203 -115 -215 -8c-3 29 6 62 15 93c16 54 35 108 50 162c5 23 5 43 -14 57c-2 2 -2 4 1 5c27 15 38 35 45 57c27 99 53 193 79 291
c2 8 4 16 4 23c-54 -20 -157 -51 -129 -130c11 -32 44 -30 58 -8c2 3 4 4 6 -1c11 -44 -46 -90 -91 -75c-47 15 -65 80 -42 127c13 28 38 50 67 66c89 49 210 59 267 155c-1 -1 -2 -1 -3 -1c-51 0 -66 34 -107 34c-13 0 -31 -10 -45 -25c-10 -10 -23 -7 -21 5
c7 37 49 69 89 69c50 0 65 -33 107 -33c13 0 31 10 44 25z" />
    <glyph glyph-name="Idieresis" unicode="&#xcf;" horiz-adv-x="258" 
d="M390 780c24 0 41 -22 37 -47c-5 -24 -27 -45 -51 -45c-4 0 -7 1 -11 2c-39 -149 -77 -289 -118 -439c-5 -23 -5 -43 14 -58c3 -1 2 -3 -1 -5c-21 -11 -32 -26 -40 -42l-9 -35c-5 -24 -5 -47 7 -56c3 -2 1 -4 -1 -5c-63 -1 -130 -69 -141 -134c-21 -122 135 -112 135 -26
c0 20 -26 35 -40 13c-5 -7 -6 -15 -3 -20c1 -2 -2 -5 -5 -3c-32 18 -32 53 -15 76c14 18 32 26 48 26c13 0 26 -4 36 -12c27 -20 31 -52 22 -86c-34 -126 -203 -115 -215 -8c-3 29 6 62 15 93c16 54 35 108 50 162c5 23 5 43 -14 57c-2 2 -2 4 1 5c27 15 38 35 45 57
c27 99 53 193 79 291c2 8 4 16 4 23c-54 -20 -157 -51 -129 -130c11 -32 44 -30 58 -8c2 3 4 4 6 -1c11 -44 -46 -90 -91 -75c-47 15 -65 80 -42 127c13 28 38 50 67 66c88 48 208 59 266 152c-12 8 -18 23 -15 38c3 25 27 47 51 47zM244 688c-24 0 -41 21 -36 45
c3 25 26 47 50 47s41 -22 38 -47c-5 -24 -28 -45 -52 -45z" />
    <glyph glyph-name="Imacron" unicode="&#x12a;" horiz-adv-x="258" 
d="M395 757c9 0 14 -7 12 -15l-5 -17c-2 -9 -11 -16 -19 -16h-13c-41 -157 -81 -302 -124 -459c-5 -23 -5 -43 14 -58c3 -1 2 -3 -1 -5c-21 -11 -32 -26 -40 -42l-9 -35c-5 -24 -5 -47 7 -56c3 -2 1 -4 -1 -5c-63 -1 -130 -69 -141 -134c-21 -122 135 -112 135 -26
c0 20 -26 35 -40 13c-5 -7 -6 -15 -3 -20c1 -2 -2 -5 -5 -3c-32 18 -32 53 -15 76c14 18 32 26 48 26c13 0 26 -4 36 -12c27 -20 31 -52 22 -86c-34 -126 -203 -115 -215 -8c-3 29 6 62 15 93c16 54 35 108 50 162c5 23 5 43 -14 57c-2 2 -2 4 1 5c27 15 38 35 45 57
c27 99 53 193 79 291c2 8 4 16 4 23c-54 -20 -157 -51 -129 -130c11 -32 44 -30 58 -8c2 3 4 4 6 -1c11 -44 -46 -90 -91 -75c-47 15 -65 80 -42 127c13 28 38 50 67 66c93 51 222 60 275 167h-140c-9 0 -14 7 -12 16l5 17c2 8 11 15 19 15h161z" />
    <glyph glyph-name="Ibreve" unicode="&#x12c;" horiz-adv-x="258" 
d="M359 774h47c-1 -1 -1 -3 -1 -5c-4 -23 -17 -43 -34 -58c-41 -157 -81 -303 -124 -459c-5 -23 -5 -43 14 -58c3 -1 2 -3 -1 -5c-21 -11 -32 -26 -40 -42l-9 -35c-5 -24 -5 -47 7 -56c3 -2 1 -4 -1 -5c-63 -1 -130 -69 -141 -134c-21 -122 135 -112 135 -26
c0 20 -26 35 -40 13c-5 -7 -6 -15 -3 -20c1 -2 -2 -5 -5 -3c-32 18 -32 53 -15 76c14 18 32 26 48 26c13 0 26 -4 36 -12c27 -20 31 -52 22 -86c-34 -126 -203 -115 -215 -8c-3 29 6 62 15 93c16 54 35 108 50 162c5 23 5 43 -14 57c-2 2 -2 4 1 5c27 15 38 35 45 57
c27 99 53 193 79 291c2 8 4 16 4 23c-54 -20 -157 -51 -129 -130c11 -32 44 -30 58 -8c2 3 4 4 6 -1c11 -44 -46 -90 -91 -75c-47 15 -65 80 -42 127c13 28 38 50 67 66c90 49 214 59 270 158c-13 -8 -28 -13 -44 -13c-44 0 -73 36 -65 80c0 2 0 4 1 5h46c-1 -1 -1 -3 -1 -4
c-3 -18 9 -33 27 -33c17 0 33 15 37 33v4z" />
    <glyph glyph-name="Idotaccent" unicode="&#x130;" horiz-adv-x="258" 
d="M215 541c-26 -98 -52 -192 -79 -291c-7 -22 -18 -42 -45 -57c-3 -1 -3 -3 -1 -5c19 -14 19 -34 14 -57c-15 -54 -34 -108 -50 -162c-9 -31 -18 -64 -15 -93c12 -107 181 -118 215 8c9 34 5 66 -22 86c-10 8 -23 12 -36 12c-16 0 -34 -8 -48 -26c-17 -23 -17 -58 15 -76
c3 -2 6 1 5 3c-3 5 -2 13 3 20c14 22 40 7 40 -13c0 -86 -156 -96 -135 26c11 65 78 133 141 134c2 1 4 3 1 5c-12 9 -12 32 -7 56c3 12 6 23 9 35c8 16 19 31 40 42c3 2 4 4 1 5c-19 15 -19 35 -14 58c43 158 83 305 125 464c1 4 -5 4 -7 0c-52 -112 -183 -121 -277 -172
c-29 -16 -54 -38 -67 -66c-23 -47 -5 -112 42 -127c45 -15 102 31 91 75c-2 5 -4 4 -6 1c-14 -22 -47 -24 -58 8c-28 79 75 110 129 130c0 -7 -2 -15 -4 -23zM352 733c-5 -24 -28 -45 -52 -45s-41 21 -36 45c3 25 26 47 50 47s41 -22 38 -47z" />
    <glyph glyph-name="Iogonek" unicode="&#x12e;" horiz-adv-x="258" 
d="M219 506c2 8 4 16 4 23c-54 -20 -157 -51 -129 -130c11 -32 43 -30 58 -8c2 3 4 4 5 -1c12 -44 -45 -90 -90 -75c-47 15 -66 80 -42 127c13 28 38 50 67 66c93 51 224 60 277 172c2 4 8 4 7 0c-42 -159 -72 -271 -114 -429c-5 -23 -5 -43 14 -58c3 -1 2 -3 -1 -5
c-21 -11 -32 -26 -40 -42c-14 -50 -39 -143 -53 -193c-7 -29 -4 -58 10 -75c3 -3 0 -6 -3 -5c-39 0 -89 -9 -103 -53c-7 -20 1 -38 23 -36c7 1 19 3 24 8c2 2 7 2 7 -3c1 -12 -4 -29 -12 -39c-21 -28 -53 -39 -80 -36c-12 2 -21 6 -28 12c-43 40 -13 107 45 147h-43
c-3 -1 -4 2 0 5c23 17 42 46 50 75c12 47 35 133 47 178c5 23 5 43 -14 57c-3 2 -2 4 1 5c27 15 38 35 45 57c26 99 42 158 68 256z" />
    <glyph glyph-name="Jcircumflex" unicode="&#x134;" horiz-adv-x="494" 
d="M539 570c-123 -60 -139 -192 -164 -314c-6 -30 -12 -47 -42 -63c-3 -1 -3 -4 -1 -5c26 -19 18 -45 12 -71c-25 -96 -59 -201 -103 -243c-47 -45 -101 -51 -139 -37c-39 15 -54 50 -49 84c5 30 29 62 63 58c11 -2 19 -7 24 -15c3 -6 4 -14 2 -23c-2 -12 -10 -24 -19 -27
c-5 -2 -4 -8 2 -9c62 -5 102 39 106 83c4 35 -9 60 -30 74c-16 12 -37 17 -59 16c-181 -6 -210 -303 36 -271c164 21 234 165 274 317c8 30 11 47 42 64c3 2 4 4 1 5c-23 18 -16 47 -11 71c5 28 11 55 16 80c19 87 34 199 124 237c7 3 8 12 -3 13c-52 5 -90 25 -135 40
c-65 21 -146 27 -205 -12c-56 -36 -77 -118 -37 -165c40 -45 131 -31 147 24c1 6 -2 6 -5 5c-30 -15 -66 4 -58 45c22 113 170 56 235 49c-8 -3 -16 -6 -24 -10zM534 842h18c8 0 12 -3 13 -11l11 -125c1 -10 -1 -14 -10 -14h-21c-11 0 -17 4 -19 14c-6 24 -11 51 -11 51
l-49 -55c-8 -7 -14 -10 -21 -10h-25c-9 0 -13 7 -7 16l103 125c6 8 14 9 18 9z" />
    <glyph glyph-name="Kcommaaccent" unicode="&#x136;" horiz-adv-x="447" 
d="M657 668c44 -2 72 -28 63 -65c-9 -38 -65 -57 -91 -29c-3 3 -1 4 3 5c7 3 11 6 14 10c8 10 5 19 -3 25c-13 10 -29 9 -45 2c-31 -12 -93 -58 -123 -78c-40 -27 -81 -55 -120 -84c67 -15 78 -115 72 -221c1 -16 6 -30 20 -40c2 -1 2 -3 -1 -4c-13 -8 -21 -18 -25 -29
c-8 -75 -19 -144 -20 -178c-1 -64 12 -119 81 -129c3 0 4 -5 -1 -7c-31 -17 -63 -22 -95 -21c-141 7 -117 170 -83 327c1 14 -2 27 -15 37c-2 1 -2 3 1 4c16 9 26 25 32 40c19 91 32 169 4 199c-20 -17 -40 -35 -58 -50c-2 -8 -4 -16 -7 -23c-4 -16 -11 -44 -21 -79
c-8 -30 -22 -68 2 -87c2 -1 1 -3 -1 -4c-24 -13 -32 -30 -38 -49c-6 -21 -35 -129 -40 -150c-8 -29 -5 -58 9 -74c3 -3 1 -6 -3 -6h-165c-4 0 -4 3 0 6c18 13 34 34 43 57c5 16 33 121 39 142c7 30 19 56 -5 74c-2 1 -2 3 1 4c23 12 34 37 40 55c2 7 4 15 6 22
c-7 -5 -14 -9 -21 -12c-36 -16 -64 1 -45 39c4 10 11 20 17 27c19 23 49 46 82 67l1 1c25 72 73 148 157 173c-81 -11 -203 82 -286 -15c-1 -1 -3 -1 -3 1c1 43 31 96 80 115c122 45 197 -73 287 -77c5 0 4 -5 -1 -6c-39 -20 -65 -46 -84 -77c-11 -18 -19 -38 -26 -58
c9 3 18 6 26 8c32 25 65 51 99 76c45 33 96 70 144 101c33 21 70 38 103 35zM139 319c4 13 7 26 11 39c-42 -28 -70 -78 -38 -61c8 4 17 12 27 22zM212 -159c26 0 47 -22 43 -52c-6 -41 -47 -82 -98 -98c-20 -7 -21 15 -3 21s32 21 41 34c-24 1 -37 19 -37 43
c0 28 26 52 54 52z" />
    <glyph glyph-name="Lacute" unicode="&#x139;" horiz-adv-x="333" 
d="M279 564c-54 -64 -81 -183 -105 -300c-6 -33 -8 -52 -42 -71c-3 -1 -3 -4 -1 -5c23 -16 21 -36 16 -58c-18 -82 -38 -143 -72 -172c-35 -15 -59 -42 -74 -90c-2 -5 3 -7 5 -5c93 96 306 -79 449 -22c39 15 77 66 68 111c0 3 -3 2 -5 0c-58 -85 -280 14 -383 7
c54 34 88 96 113 174c7 21 15 44 37 56c2 1 3 3 1 4c-18 13 -11 43 -7 61c18 90 31 185 61 263c8 22 19 44 35 62c45 53 133 39 128 -28c-1 -24 -17 -50 -43 -48c-8 0 -15 4 -19 10c-3 4 -5 11 -4 18c1 10 6 19 13 22c3 1 2 6 -3 6c-47 1 -74 -34 -74 -68
c0 -28 11 -46 28 -57c13 -8 30 -11 46 -9c106 10 132 151 53 196c-75 42 -175 -3 -221 -57zM576 819l-121 -118c-7 -5 -12 -9 -24 -9h-17c-8 0 -12 10 -5 18l96 121c5 8 13 11 21 11h43c12 0 18 -12 7 -23z" />
    <glyph glyph-name="Lcaron" unicode="&#x13d;" horiz-adv-x="333" 
d="M279 564c-54 -64 -81 -183 -105 -300c-6 -33 -8 -52 -42 -71c-3 -1 -3 -4 -1 -5c23 -16 21 -36 16 -58c-18 -82 -38 -143 -72 -172c-35 -15 -59 -42 -74 -90c-2 -5 3 -7 5 -5c93 96 306 -79 449 -22c39 15 77 66 68 111c0 3 -3 2 -5 0c-58 -85 -280 14 -383 7
c54 34 88 96 113 174c7 21 15 44 37 56c2 1 3 3 1 4c-18 13 -11 43 -7 61c18 90 31 185 61 263c8 22 19 44 35 62c45 53 133 39 128 -28c-1 -24 -17 -50 -43 -48c-8 0 -15 4 -19 10c-3 4 -5 11 -4 18c1 10 6 19 13 22c3 1 2 6 -3 6c-47 1 -74 -34 -74 -68
c0 -28 11 -46 28 -57c13 -8 30 -11 46 -9c106 10 132 151 53 196c-75 42 -175 -3 -221 -57zM439 692h-18c-8 0 -12 3 -13 11l-11 125c-1 10 1 14 10 14h21c11 0 17 -4 19 -14c6 -24 11 -51 11 -51l49 54c8 8 14 11 21 11h25c9 0 13 -8 7 -16l-103 -126c-6 -7 -14 -8 -18 -8z
" />
    <glyph glyph-name="Lcommaaccent" unicode="&#x13b;" horiz-adv-x="333" 
d="M279 564c46 54 146 99 221 57c79 -45 53 -186 -53 -196c-16 -2 -33 1 -46 9c-17 11 -28 29 -28 57c0 34 27 69 74 68c5 0 6 -5 3 -6c-7 -3 -12 -12 -13 -22c-1 -7 1 -14 4 -18c4 -6 11 -10 19 -10c26 -2 42 24 43 48c5 67 -83 81 -128 28c-16 -18 -27 -40 -35 -62
c-30 -78 -43 -173 -61 -263c-4 -18 -11 -48 7 -61c2 -1 1 -3 -1 -4c-22 -12 -30 -35 -37 -56c-25 -78 -59 -140 -113 -174c103 7 325 -92 383 -7c2 2 5 3 5 0c9 -45 -29 -96 -68 -111c-143 -57 -356 118 -449 22c-2 -2 -7 0 -5 5c15 48 39 75 74 90c34 29 54 90 72 172
c5 22 7 42 -16 58c-2 1 -2 4 1 5c34 19 36 38 42 71c24 117 51 236 105 300zM221 -191c26 0 47 -22 43 -52c-6 -41 -47 -82 -98 -98c-20 -7 -21 15 -3 21s32 21 41 34c-24 1 -37 19 -37 43c0 28 26 52 54 52z" />
    <glyph glyph-name="Lslash" unicode="&#x141;" horiz-adv-x="333" 
d="M279 564c46 54 146 99 221 57c79 -45 53 -186 -53 -196c-16 -2 -33 1 -46 9c-17 11 -28 29 -28 57c0 34 27 69 74 68c5 0 6 -5 3 -6c-7 -3 -12 -12 -13 -22c-1 -7 1 -14 4 -18c4 -6 11 -10 19 -10c26 -2 42 24 43 48c5 67 -83 81 -128 28c-16 -18 -27 -40 -35 -62
c-29 -76 -42 -167 -60 -254l99 48l-21 -77l-91 -45c-3 -9 -9 -26 -19 -56c-25 -78 -60 -147 -114 -181c103 7 406 -109 464 -24c2 2 5 3 5 0c3 -17 -3 -38 -14 -57c-98 -176 -478 101 -586 -11c-2 -1 -4 -1 -3 1c15 48 39 75 74 90c34 29 55 97 73 179c1 1 1 3 1 5l-99 -45
l20 77l75 33c22 17 25 35 30 64c24 117 51 236 105 300z" />
    <glyph glyph-name="Nacute" unicode="&#x143;" horiz-adv-x="737" 
d="M415 598c63 -1 122 -4 184 0c4 0 6 -3 3 -7c-15 -15 -19 -32 -17 -49l64 -375l66 244c19 71 40 176 105 220c52 37 109 37 136 -9s-18 -115 -74 -111c-6 1 -5 3 -2 9c5 8 7 16 6 23c-1 16 -13 23 -28 22c-53 -5 -66 -72 -77 -112l-56 -211c-4 -19 -4 -36 12 -49
c2 -1 1 -3 -1 -4c-33 -17 -37 -43 -45 -72l-53 -191c-7 -15 -30 -23 -41 0l-102 486l-47 -171c-4 -19 -3 -36 13 -48c2 -1 1 -3 -2 -4c-32 -18 -36 -44 -44 -72c-13 -49 -28 -100 -49 -146c-35 -79 -90 -152 -187 -164c-160 -21 -217 118 -154 236c27 50 74 86 132 88
c22 1 43 -4 58 -16c20 -15 31 -39 25 -75c-7 -43 -49 -87 -111 -82c-6 1 -6 7 -1 9c9 3 17 14 21 27c10 40 -33 49 -65 18c-47 -45 -42 -161 46 -173c97 -14 152 61 186 142c23 53 37 109 52 165c3 17 1 31 -13 43c-2 1 -2 3 1 4c21 12 31 28 37 45l63 228
c11 40 15 71 -3 97h-39c-84 0 -141 -80 -103 -118c18 -19 46 -8 49 20c1 9 -3 18 -9 22c-3 1 -1 6 4 6c48 0 69 -36 63 -69c-8 -46 -49 -76 -94 -71c-44 6 -70 36 -77 75c-16 85 59 172 168 170zM812 819l-121 -118c-7 -5 -12 -9 -24 -9h-17c-8 0 -12 10 -5 18l96 121
c5 8 13 11 21 11h43c12 0 18 -12 7 -23z" />
    <glyph glyph-name="Ncaron" unicode="&#x147;" horiz-adv-x="737" 
d="M415 598c63 -1 122 -4 184 0c4 0 6 -3 3 -7c-15 -15 -19 -32 -17 -49l64 -375l66 244c19 71 40 176 105 220c52 37 109 37 136 -9s-18 -115 -74 -111c-6 1 -5 3 -2 9c5 8 7 16 6 23c-1 16 -13 23 -28 22c-53 -5 -66 -72 -77 -112l-56 -211c-4 -19 -4 -36 12 -49
c2 -1 1 -3 -1 -4c-33 -17 -37 -43 -45 -72l-53 -191c-7 -15 -30 -23 -41 0l-102 486l-47 -171c-4 -19 -3 -36 13 -48c2 -1 1 -3 -2 -4c-32 -18 -36 -44 -44 -72c-13 -49 -28 -100 -49 -146c-35 -79 -90 -152 -187 -164c-160 -21 -217 118 -154 236c27 50 74 86 132 88
c22 1 43 -4 58 -16c20 -15 31 -39 25 -75c-7 -43 -49 -87 -111 -82c-6 1 -6 7 -1 9c9 3 17 14 21 27c10 40 -33 49 -65 18c-47 -45 -42 -161 46 -173c97 -14 152 61 186 142c23 53 37 109 52 165c3 17 1 31 -13 43c-2 1 -2 3 1 4c21 12 31 28 37 45l63 228
c11 40 15 71 -3 97h-39c-84 0 -141 -80 -103 -118c18 -19 46 -8 49 20c1 9 -3 18 -9 22c-3 1 -1 6 4 6c48 0 69 -36 63 -69c-8 -46 -49 -76 -94 -71c-44 6 -70 36 -77 75c-16 85 59 172 168 170zM657 692h-18c-8 0 -12 3 -13 11l-11 125c-1 10 1 14 10 14h21
c11 0 17 -4 19 -14c6 -24 11 -51 11 -51l49 54c8 8 14 11 21 11h25c9 0 13 -8 7 -16l-103 -126c-6 -7 -14 -8 -18 -8z" />
    <glyph glyph-name="Ntilde" unicode="&#xd1;" horiz-adv-x="737" 
d="M415 598c63 -1 122 -4 184 0c4 0 6 -3 3 -7c-15 -15 -19 -32 -17 -49l64 -375l66 244c19 71 40 176 105 220c52 37 109 37 136 -9s-18 -115 -74 -111c-6 1 -5 3 -2 9c5 8 7 16 6 23c-1 16 -13 23 -28 22c-53 -5 -66 -72 -77 -112l-56 -211c-4 -19 -4 -36 12 -49
c2 -1 1 -3 -1 -4c-33 -17 -37 -43 -45 -72l-53 -191c-7 -15 -30 -23 -41 0l-102 486l-47 -171c-4 -19 -3 -36 13 -48c2 -1 1 -3 -2 -4c-32 -18 -36 -44 -44 -72c-13 -49 -28 -100 -49 -146c-35 -79 -90 -152 -187 -164c-160 -21 -217 118 -154 236c27 50 74 86 132 88
c22 1 43 -4 58 -16c20 -15 31 -39 25 -75c-7 -43 -49 -87 -111 -82c-6 1 -6 7 -1 9c9 3 17 14 21 27c10 40 -33 49 -65 18c-47 -45 -42 -161 46 -173c97 -14 152 61 186 142c23 53 37 109 52 165c3 17 1 31 -13 43c-2 1 -2 3 1 4c21 12 31 28 37 45l63 228
c11 40 15 71 -3 97h-39c-84 0 -141 -80 -103 -118c18 -19 46 -8 49 20c1 9 -3 18 -9 22c-3 1 -1 6 4 6c48 0 69 -36 63 -69c-8 -46 -49 -76 -94 -71c-44 6 -70 36 -77 75c-16 85 59 172 168 170zM617 731c-13 0 -31 -10 -45 -25c-10 -10 -23 -7 -21 5c7 37 49 69 89 69
c50 0 65 -33 107 -33c13 0 31 10 44 25c9 10 24 8 21 -6c-7 -35 -50 -69 -88 -69c-51 0 -66 34 -107 34z" />
    <glyph glyph-name="Ncommaaccent" unicode="&#x145;" horiz-adv-x="737" 
d="M415 598c63 -1 122 -4 184 0c4 0 6 -3 3 -7c-15 -15 -19 -32 -17 -49l64 -375l66 244c19 71 40 176 105 220c52 37 109 37 136 -9s-18 -115 -74 -111c-6 1 -5 3 -2 9c5 8 7 16 6 23c-1 16 -13 23 -28 22c-53 -5 -66 -72 -77 -112l-56 -211c-4 -19 -4 -36 12 -49
c2 -1 1 -3 -1 -4c-33 -17 -37 -43 -45 -72l-53 -191c-7 -15 -30 -23 -41 0l-102 486l-47 -171c-4 -19 -3 -36 13 -48c2 -1 1 -3 -2 -4c-32 -18 -36 -44 -44 -72c-13 -49 -28 -100 -49 -146c-35 -79 -90 -152 -187 -164c-160 -21 -217 118 -154 236c27 50 74 86 132 88
c22 1 43 -4 58 -16c20 -15 31 -39 25 -75c-7 -43 -49 -87 -111 -82c-6 1 -6 7 -1 9c9 3 17 14 21 27c10 40 -33 49 -65 18c-47 -45 -42 -161 46 -173c97 -14 152 61 186 142c23 53 37 109 52 165c3 17 1 31 -13 43c-2 1 -2 3 1 4c21 12 31 28 37 45l63 228
c11 40 15 71 -3 97h-39c-84 0 -141 -80 -103 -118c18 -19 46 -8 49 20c1 9 -3 18 -9 22c-3 1 -1 6 4 6c48 0 69 -36 63 -69c-8 -46 -49 -76 -94 -71c-44 6 -70 36 -77 75c-16 85 59 172 168 170zM462 -130c26 0 47 -22 43 -52c-6 -41 -47 -82 -98 -98c-20 -7 -21 15 -3 21
s32 21 41 34c-24 1 -37 19 -37 43c0 28 26 52 54 52z" />
    <glyph glyph-name="Ograve" unicode="&#xd2;" horiz-adv-x="609" 
d="M613 193c2 -1 1 -3 -2 -4c-25 -14 -42 -37 -57 -62c-62 -109 -180 -227 -308 -236c-75 -6 -108 10 -133 36c-15 -18 -26 -31 -30 -37c-8 -14 -10 -28 1 -40c6 -7 17 -9 28 -3c5 2 9 6 12 12c2 4 3 5 6 3c31 -23 7 -73 -37 -80c-43 -7 -71 18 -72 57c-1 29 20 60 46 89
c5 6 11 13 19 21c-38 37 -61 91 -62 160c-1 29 5 61 -23 80c-2 1 -1 3 1 4c27 16 30 41 36 66c14 59 40 119 75 172c35 54 84 109 142 148c87 59 194 78 281 17c100 -71 104 -207 72 -329c-6 -22 -16 -57 5 -74zM456 207c16 114 -99 139 -143 84c-22 -27 -9 -63 25 -54
c10 3 15 9 17 16c1 4 6 4 8 -1c10 -38 1 -56 -34 -91l-69 -72c-12 -13 -55 -59 -96 -104c4 -7 9 -13 14 -18c64 -64 166 16 210 82c32 47 60 107 68 158zM507 386c18 227 -120 261 -246 95c-50 -66 -84 -144 -103 -226c-12 -51 -26 -162 -7 -235c46 50 97 104 119 126
c4 4 8 8 12 11c-18 2 -32 10 -42 21c-12 13 -20 31 -22 49c-12 90 73 148 153 136c50 -7 101 -43 115 -92c10 38 18 78 21 115zM343 825c-6 12 -2 17 8 17h40c9 0 19 -4 22 -15c10 -38 30 -116 32 -123c1 -7 -1 -12 -9 -12h-11c-12 0 -18 6 -22 14z" />
    <glyph glyph-name="Oacute" unicode="&#xd3;" horiz-adv-x="609" 
d="M613 193c2 -1 1 -3 -2 -4c-25 -14 -42 -37 -57 -62c-62 -109 -180 -227 -308 -236c-75 -6 -108 10 -133 36c-15 -18 -26 -31 -30 -37c-8 -14 -10 -28 1 -40c6 -7 17 -9 28 -3c5 2 9 6 12 12c2 4 3 5 6 3c31 -23 7 -73 -37 -80c-43 -7 -71 18 -72 57c-1 29 20 60 46 89
c5 6 11 13 19 21c-38 37 -61 91 -62 160c-1 29 5 61 -23 80c-2 1 -1 3 1 4c27 16 30 41 36 66c14 59 40 119 75 172c35 54 84 109 142 148c87 59 194 78 281 17c100 -71 104 -207 72 -329c-6 -22 -16 -57 5 -74zM456 207c16 114 -99 139 -143 84c-22 -27 -9 -63 25 -54
c10 3 15 9 17 16c1 4 6 4 8 -1c10 -38 1 -56 -34 -91l-69 -72c-12 -13 -55 -59 -96 -104c4 -7 9 -13 14 -18c64 -64 166 16 210 82c32 47 60 107 68 158zM507 386c18 227 -120 261 -246 95c-50 -66 -84 -144 -103 -226c-12 -51 -26 -162 -7 -235c46 50 97 104 119 126
c4 4 8 8 12 11c-18 2 -32 10 -42 21c-12 13 -20 31 -22 49c-12 90 73 148 153 136c50 -7 101 -43 115 -92c10 38 18 78 21 115zM608 819l-121 -118c-7 -5 -12 -9 -24 -9h-17c-8 0 -12 10 -5 18l96 121c5 8 13 11 21 11h43c12 0 18 -12 7 -23z" />
    <glyph glyph-name="Ocircumflex" unicode="&#xd4;" horiz-adv-x="609" 
d="M613 193c2 -1 1 -3 -2 -4c-25 -14 -42 -37 -57 -62c-62 -109 -180 -227 -308 -236c-75 -6 -108 10 -133 36c-15 -18 -26 -31 -30 -37c-8 -14 -10 -28 1 -40c6 -7 17 -9 28 -3c5 2 9 6 12 12c2 4 3 5 6 3c31 -23 7 -73 -37 -80c-43 -7 -71 18 -72 57c-1 29 20 60 46 89
c5 6 11 13 19 21c-38 37 -61 91 -62 160c-1 29 5 61 -23 80c-2 1 -1 3 1 4c27 16 30 41 36 66c14 59 40 119 75 172c35 54 84 109 142 148c87 59 194 78 281 17c100 -71 104 -207 72 -329c-6 -22 -16 -57 5 -74zM456 207c16 114 -99 139 -143 84c-22 -27 -9 -63 25 -54
c10 3 15 9 17 16c1 4 6 4 8 -1c10 -38 1 -56 -34 -91l-69 -72c-12 -13 -55 -59 -96 -104c4 -7 9 -13 14 -18c64 -64 166 16 210 82c32 47 60 107 68 158zM507 386c18 227 -120 261 -246 95c-50 -66 -84 -144 -103 -226c-12 -51 -26 -162 -7 -235c46 50 97 104 119 126
c4 4 8 8 12 11c-18 2 -32 10 -42 21c-12 13 -20 31 -22 49c-12 90 73 148 153 136c50 -7 101 -43 115 -92c10 38 18 78 21 115zM483 842h18c8 0 12 -3 13 -11l11 -125c1 -10 -1 -14 -10 -14h-21c-11 0 -17 4 -19 14c-6 24 -11 51 -11 51l-49 -55c-8 -7 -14 -10 -21 -10h-25
c-9 0 -13 7 -7 16l103 125c6 8 14 9 18 9z" />
    <glyph glyph-name="Otilde" unicode="&#xd5;" horiz-adv-x="609" 
d="M613 193c2 -1 1 -3 -2 -4c-25 -14 -42 -37 -57 -62c-62 -109 -180 -227 -308 -236c-75 -6 -108 10 -133 36c-15 -18 -26 -31 -30 -37c-8 -14 -10 -28 1 -40c6 -7 17 -9 28 -3c5 2 9 6 12 12c2 4 3 5 6 3c31 -23 7 -73 -37 -80c-43 -7 -71 18 -72 57c-1 29 20 60 46 89
c5 6 11 13 19 21c-38 37 -61 91 -62 160c-1 29 5 61 -23 80c-2 1 -1 3 1 4c27 16 30 41 36 66c14 59 40 119 75 172c35 54 84 109 142 148c87 59 194 78 281 17c100 -71 104 -207 72 -329c-6 -22 -16 -57 5 -74zM456 207c16 114 -99 139 -143 84c-22 -27 -9 -63 25 -54
c10 3 15 9 17 16c1 4 6 4 8 -1c10 -38 1 -56 -34 -91l-69 -72c-12 -13 -55 -59 -96 -104c4 -7 9 -13 14 -18c64 -64 166 16 210 82c32 47 60 107 68 158zM507 386c18 227 -120 261 -246 95c-50 -66 -84 -144 -103 -226c-12 -51 -26 -162 -7 -235c46 50 97 104 119 126
c4 4 8 8 12 11c-18 2 -32 10 -42 21c-12 13 -20 31 -22 49c-12 90 73 148 153 136c50 -7 101 -43 115 -92c10 38 18 78 21 115zM413 731c-13 0 -31 -10 -45 -25c-10 -10 -23 -7 -21 5c7 37 49 69 89 69c50 0 65 -33 107 -33c13 0 31 10 44 25c9 10 24 8 21 -6
c-7 -35 -50 -69 -88 -69c-51 0 -66 34 -107 34z" />
    <glyph glyph-name="Odieresis" unicode="&#xd6;" horiz-adv-x="609" 
d="M613 193c2 -1 1 -3 -2 -4c-25 -14 -42 -37 -57 -62c-62 -109 -180 -227 -308 -236c-75 -6 -108 10 -133 36c-15 -18 -26 -31 -30 -37c-8 -14 -10 -28 1 -40c6 -7 17 -9 28 -3c5 2 9 6 12 12c2 4 3 5 6 3c31 -23 7 -73 -37 -80c-43 -7 -71 18 -72 57c-1 29 20 60 46 89
c5 6 11 13 19 21c-38 37 -61 91 -62 160c-1 29 5 61 -23 80c-2 1 -1 3 1 4c27 16 30 41 36 66c14 59 40 119 75 172c35 54 84 109 142 148c87 59 194 78 281 17c100 -71 104 -207 72 -329c-6 -22 -16 -57 5 -74zM456 207c16 114 -99 139 -143 84c-22 -27 -9 -63 25 -54
c10 3 15 9 17 16c1 4 6 4 8 -1c10 -38 1 -56 -34 -91l-69 -72c-12 -13 -55 -59 -96 -104c4 -7 9 -13 14 -18c64 -64 166 16 210 82c32 47 60 107 68 158zM507 386c18 227 -120 261 -246 95c-50 -66 -84 -144 -103 -226c-12 -51 -26 -162 -7 -235c46 50 97 104 119 126
c4 4 8 8 12 11c-18 2 -32 10 -42 21c-12 13 -20 31 -22 49c-12 90 73 148 153 136c50 -7 101 -43 115 -92c10 38 18 78 21 115zM588 733c-5 -24 -27 -45 -51 -45c-25 0 -41 21 -37 45c3 25 27 47 51 47s41 -22 37 -47zM457 733c-5 -24 -28 -45 -52 -45s-41 21 -36 45
c3 25 26 47 50 47s41 -22 38 -47z" />
    <glyph glyph-name="Omacron" unicode="&#x14c;" horiz-adv-x="609" 
d="M613 193c2 -1 1 -3 -2 -4c-25 -14 -42 -37 -57 -62c-62 -109 -180 -227 -308 -236c-75 -6 -108 10 -133 36c-15 -18 -26 -31 -30 -37c-8 -14 -10 -28 1 -40c6 -7 17 -9 28 -3c5 2 9 6 12 12c2 4 3 5 6 3c31 -23 7 -73 -37 -80c-43 -7 -71 18 -72 57c-1 29 20 60 46 89
c5 6 11 13 19 21c-38 37 -61 91 -62 160c-1 29 5 61 -23 80c-2 1 -1 3 1 4c27 16 30 41 36 66c14 59 40 119 75 172c35 54 84 109 142 148c87 59 194 78 281 17c100 -71 104 -207 72 -329c-6 -22 -16 -57 5 -74zM456 207c16 114 -99 139 -143 84c-22 -27 -9 -63 25 -54
c10 3 15 9 17 16c1 4 6 4 8 -1c10 -38 1 -56 -34 -91l-69 -72c-12 -13 -55 -59 -96 -104c4 -7 9 -13 14 -18c64 -64 166 16 210 82c32 47 60 107 68 158zM507 386c18 227 -120 261 -246 95c-50 -66 -84 -144 -103 -226c-12 -51 -26 -162 -7 -235c46 50 97 104 119 126
c4 4 8 8 12 11c-18 2 -32 10 -42 21c-12 13 -20 31 -22 49c-12 90 73 148 153 136c50 -7 101 -43 115 -92c10 38 18 78 21 115zM393 758h161c9 0 14 -7 12 -15l-5 -17c-2 -9 -11 -16 -19 -16h-161c-9 0 -14 7 -12 16l5 17c2 8 11 15 19 15z" />
    <glyph glyph-name="Obreve" unicode="&#x14e;" horiz-adv-x="609" 
d="M613 193c2 -1 1 -3 -2 -4c-25 -14 -42 -37 -57 -62c-62 -109 -180 -227 -308 -236c-75 -6 -108 10 -133 36c-15 -18 -26 -31 -30 -37c-8 -14 -10 -28 1 -40c6 -7 17 -9 28 -3c5 2 9 6 12 12c2 4 3 5 6 3c31 -23 7 -73 -37 -80c-43 -7 -71 18 -72 57c-1 29 20 60 46 89
c5 6 11 13 19 21c-38 37 -61 91 -62 160c-1 29 5 61 -23 80c-2 1 -1 3 1 4c27 16 30 41 36 66c14 59 40 119 75 172c35 54 84 109 142 148c87 59 194 78 281 17c100 -71 104 -207 72 -329c-6 -22 -16 -57 5 -74zM456 207c16 114 -99 139 -143 84c-22 -27 -9 -63 25 -54
c10 3 15 9 17 16c1 4 6 4 8 -1c10 -38 1 -56 -34 -91l-69 -72c-12 -13 -55 -59 -96 -104c4 -7 9 -13 14 -18c64 -64 166 16 210 82c32 47 60 107 68 158zM507 386c18 227 -120 261 -246 95c-50 -66 -84 -144 -103 -226c-12 -51 -26 -162 -7 -235c46 50 97 104 119 126
c4 4 8 8 12 11c-18 2 -32 10 -42 21c-12 13 -20 31 -22 49c-12 90 73 148 153 136c50 -7 101 -43 115 -92c10 38 18 78 21 115zM542 768c-9 -44 -48 -80 -91 -80c-44 0 -73 36 -65 80c0 2 0 4 1 5h46c-1 -1 -1 -3 -1 -4c-3 -18 9 -33 27 -33c17 0 33 15 37 33v4h47
c-1 -1 -1 -3 -1 -5z" />
    <glyph glyph-name="Ohungarumlaut" unicode="&#x150;" horiz-adv-x="609" 
d="M613 193c2 -1 1 -3 -2 -4c-25 -14 -42 -37 -57 -62c-62 -109 -180 -227 -308 -236c-75 -6 -108 10 -133 36c-15 -18 -26 -31 -30 -37c-8 -14 -10 -28 1 -40c6 -7 17 -9 28 -3c5 2 9 6 12 12c2 4 3 5 6 3c31 -23 7 -73 -37 -80c-43 -7 -71 18 -72 57c-1 29 20 60 46 89
c5 6 11 13 19 21c-38 37 -61 91 -62 160c-1 29 5 61 -23 80c-2 1 -1 3 1 4c27 16 30 41 36 66c14 59 40 119 75 172c35 54 84 109 142 148c87 59 194 78 281 17c100 -71 104 -207 72 -329c-6 -22 -16 -57 5 -74zM456 207c16 114 -99 139 -143 84c-22 -27 -9 -63 25 -54
c10 3 15 9 17 16c1 4 6 4 8 -1c10 -38 1 -56 -34 -91l-69 -72c-12 -13 -55 -59 -96 -104c4 -7 9 -13 14 -18c64 -64 166 16 210 82c32 47 60 107 68 158zM507 386c18 227 -120 261 -246 95c-50 -66 -84 -144 -103 -226c-12 -51 -26 -162 -7 -235c46 50 97 104 119 126
c4 4 8 8 12 11c-18 2 -32 10 -42 21c-12 13 -20 31 -22 49c-12 90 73 148 153 136c50 -7 101 -43 115 -92c10 38 18 78 21 115zM544 819l-121 -118c-7 -5 -12 -9 -24 -9h-17c-8 0 -12 10 -5 18l96 121c5 8 13 11 21 11h43c12 0 18 -12 7 -23zM665 819l-121 -118
c-7 -5 -12 -9 -24 -9h-17c-8 0 -12 10 -5 18l96 121c5 8 13 11 21 11h43c12 0 18 -12 7 -23z" />
    <glyph glyph-name="Oslash" unicode="&#xd8;" horiz-adv-x="609" 
d="M644 703c1 0 0 -2 -2 -3c-17 -10 -33 -28 -43 -46c-14 -27 -28 -52 -41 -76c78 -75 80 -199 50 -311c-6 -22 -16 -57 5 -74c2 -1 1 -3 -2 -4c-25 -14 -42 -37 -57 -62c-67 -119 -202 -247 -343 -235c-3 -7 -7 -14 -11 -22c-9 -17 -12 -35 -6 -45c1 -1 -1 -4 -2 -4h-104
c-2 0 -1 3 2 4c17 10 33 28 42 45c7 13 13 24 19 36c-53 21 -95 65 -114 123c-11 31 -15 68 -12 109c-5 26 -3 37 -24 51c-2 1 -1 3 1 4c27 16 30 41 36 66c14 59 40 119 75 172c35 54 84 109 142 148c79 53 173 74 254 33c7 13 15 27 22 42c10 18 13 36 7 46c-1 1 0 3 2 3
h104zM181 -38c44 83 75 144 101 196c-16 2 -31 9 -42 20c-12 13 -20 31 -22 49c-12 90 73 148 153 136c3 0 6 -1 10 -1c25 51 54 109 96 189c-45 62 -133 39 -216 -70c-50 -66 -84 -144 -103 -226c-10 -40 -20 -115 -15 -181c2 -39 11 -86 38 -112zM359 318
c-18 -4 -34 -12 -46 -27c-18 -22 -13 -49 7 -54c14 27 26 54 39 81zM456 207c7 52 -13 86 -41 101c-20 -38 -37 -72 -53 -101c-2 -8 -6 -15 -11 -21c-126 -245 -64 -148 -113 -243c57 3 119 58 150 106c32 47 60 107 68 158zM507 386c2 35 2 65 -2 91
c-28 -51 -52 -97 -73 -137c26 -17 46 -41 54 -69c10 38 18 78 21 115z" />
    <glyph glyph-name="Oslashacute" unicode="&#x1fe;" horiz-adv-x="609" 
d="M644 703c1 0 0 -2 -2 -3c-17 -10 -33 -28 -43 -46c-14 -27 -28 -52 -41 -76c78 -75 80 -199 50 -311c-6 -22 -16 -57 5 -74c2 -1 1 -3 -2 -4c-25 -14 -42 -37 -57 -62c-67 -119 -202 -247 -343 -235c-3 -7 -7 -14 -11 -22c-9 -17 -12 -35 -6 -45c1 -1 -1 -4 -2 -4h-104
c-2 0 -1 3 2 4c17 10 33 28 42 45c7 13 13 24 19 36c-53 21 -95 65 -114 123c-11 31 -15 68 -12 109c-5 26 -3 37 -24 51c-2 1 -1 3 1 4c27 16 30 41 36 66c14 59 40 119 75 172c35 54 84 109 142 148c79 53 173 74 254 33c7 13 15 27 22 42c10 18 13 36 7 46c-1 1 0 3 2 3
h104zM181 -38c44 83 75 144 101 196c-16 2 -31 9 -42 20c-12 13 -20 31 -22 49c-12 90 73 148 153 136c3 0 6 -1 10 -1c25 51 54 109 96 189c-45 62 -133 39 -216 -70c-50 -66 -84 -144 -103 -226c-10 -40 -20 -115 -15 -181c2 -39 11 -86 38 -112zM359 318
c-18 -4 -34 -12 -46 -27c-18 -22 -13 -49 7 -54c14 27 26 54 39 81zM456 207c7 52 -13 86 -41 101c-20 -38 -37 -72 -53 -101c-2 -8 -6 -15 -11 -21c-126 -245 -64 -148 -113 -243c57 3 119 58 150 106c32 47 60 107 68 158zM507 386c2 35 2 65 -2 91
c-28 -51 -52 -97 -73 -137c26 -17 46 -41 54 -69c10 38 18 78 21 115zM592 819l-121 -118c-7 -5 -12 -9 -24 -9h-17c-8 0 -12 10 -5 18l96 121c5 8 13 11 21 11h43c12 0 18 -12 7 -23z" />
    <glyph glyph-name="OE" unicode="&#x152;" horiz-adv-x="797" 
d="M937 669c3 5 9 2 8 -2c-23 -66 -44 -132 -66 -197c-3 -9 -14 -7 -13 0c22 113 -54 125 -174 118c-22 -79 -40 -149 -58 -217c58 -2 130 2 150 47c3 4 10 3 8 -3c-22 -65 -43 -130 -65 -194c-5 -20 -8 -42 0 -52c12 -17 33 -3 34 17c1 4 1 6 4 4c25 -13 25 -48 9 -69
c-32 -40 -114 -15 -84 82c8 25 16 49 23 74c-8 36 -39 53 -89 59c-30 -113 -58 -220 -91 -342c-2 -7 -3 -13 -3 -20c101 -1 216 10 250 86c4 8 15 4 14 -5c-16 -47 -32 -95 -48 -142h-373c-4 0 -5 3 0 6c13 9 25 23 35 39c-70 -52 -152 -82 -234 -60c0 0 -1 1 -2 1v0
c-21 6 -41 15 -59 28c-15 -18 -26 -31 -30 -37c-8 -14 -10 -28 1 -40c6 -7 17 -9 28 -3c5 2 9 6 12 12c2 4 3 5 6 3c31 -23 7 -73 -37 -80c-43 -7 -71 18 -72 57c-1 29 20 60 46 89c5 6 11 13 19 21c-43 42 -67 106 -61 189c-5 26 -3 37 -24 51c-2 1 -1 3 1 4
c27 16 30 41 36 66c14 59 40 119 75 172c35 54 84 109 142 148c87 59 194 78 281 17c14 -10 27 -22 37 -34c4 22 0 44 -12 56c0 2 1 4 1 6h168s180 -16 207 45zM456 207c16 114 -99 139 -143 84c-22 -27 -9 -63 25 -54c10 3 15 9 17 16c1 4 6 4 8 -1c7 -26 2 -53 -18 -75
c-29 -29 -57 -59 -85 -88c-12 -13 -55 -59 -96 -104c4 -7 9 -13 14 -18c64 -64 166 16 210 82c32 47 60 107 68 158zM507 386c18 227 -120 261 -246 95c-50 -66 -84 -144 -103 -226c-12 -51 -26 -162 -7 -235c46 50 97 104 119 126c4 4 8 8 12 11c-18 2 -32 10 -42 21
c-12 13 -20 31 -22 49c-12 90 73 148 153 136c50 -7 101 -43 115 -92c10 38 18 78 21 115z" />
    <glyph glyph-name="Racute" unicode="&#x154;" horiz-adv-x="539" 
d="M691 -65c9 5 15 -3 10 -9c-27 -37 -79 -51 -133 -45c-159 19 -215 187 -235 329c-23 -5 -46 -9 -70 -11l-19 -72c-7 -29 -11 -61 4 -72c3 -2 1 -4 -1 -5c-63 -1 -128 -70 -141 -134c-26 -131 138 -116 135 -26c-1 25 -26 35 -40 13c-4 -7 -6 -15 -3 -20c2 -2 -1 -5 -5 -3
c-32 18 -32 53 -14 76c14 18 31 26 47 26c13 0 26 -4 36 -12c27 -20 33 -53 22 -86c-42 -125 -203 -115 -215 -8c-3 29 6 62 15 93c21 70 35 102 54 173c2 17 1 33 -16 46c-3 1 -2 4 1 5c26 14 35 30 42 50c22 82 44 166 70 263l3 12c-49 -30 -118 -61 -175 -42
c-52 17 -80 82 -52 134c27 50 106 63 127 19c2 -5 -1 -6 -4 -6c-43 8 -84 -84 5 -95c81 -10 224 103 246 152c2 4 8 4 7 0l-28 -104c133 86 283 68 251 -103c-12 -66 -59 -134 -123 -188c-15 -14 -32 -25 -49 -35c-2 -137 117 -376 248 -315zM278 252c250 38 325 446 73 273
c-29 -108 -46 -172 -73 -273zM608 819l-121 -118c-7 -5 -12 -9 -24 -9h-17c-8 0 -12 10 -5 18l96 121c5 8 13 11 21 11h43c12 0 18 -12 7 -23z" />
    <glyph glyph-name="Rcaron" unicode="&#x158;" horiz-adv-x="539" 
d="M691 -65c9 5 15 -3 10 -9c-27 -37 -79 -51 -133 -45c-159 19 -215 187 -235 329c-23 -5 -46 -9 -70 -11l-19 -72c-7 -29 -11 -61 4 -72c3 -2 1 -4 -1 -5c-63 -1 -128 -70 -141 -134c-26 -131 138 -116 135 -26c-1 25 -26 35 -40 13c-4 -7 -6 -15 -3 -20c2 -2 -1 -5 -5 -3
c-32 18 -32 53 -14 76c14 18 31 26 47 26c13 0 26 -4 36 -12c27 -20 33 -53 22 -86c-42 -125 -203 -115 -215 -8c-3 29 6 62 15 93c21 70 35 102 54 173c2 17 1 33 -16 46c-3 1 -2 4 1 5c26 14 35 30 42 50c22 82 44 166 70 263l3 12c-49 -30 -118 -61 -175 -42
c-52 17 -80 82 -52 134c27 50 106 63 127 19c2 -5 -1 -6 -4 -6c-43 8 -84 -84 5 -95c81 -10 224 103 246 152c2 4 8 4 7 0l-28 -104c133 86 283 68 251 -103c-12 -66 -59 -134 -123 -188c-15 -14 -32 -25 -49 -35c-2 -137 117 -376 248 -315zM278 252c250 38 325 446 73 273
c-29 -108 -46 -172 -73 -273zM451 692h-18c-8 0 -12 3 -13 11l-11 125c-1 10 1 14 10 14h21c11 0 17 -4 19 -14c6 -24 11 -51 11 -51l49 54c8 8 14 11 21 11h25c9 0 13 -8 7 -16l-103 -126c-6 -7 -14 -8 -18 -8z" />
    <glyph glyph-name="Rcommaaccent" unicode="&#x156;" horiz-adv-x="539" 
d="M691 -65c9 5 15 -3 10 -9c-27 -37 -79 -51 -133 -45c-159 19 -215 187 -235 329c-23 -5 -46 -9 -70 -11l-19 -72c-7 -29 -11 -61 4 -72c3 -2 1 -4 -1 -5c-63 -1 -128 -70 -141 -134c-26 -131 138 -116 135 -26c-1 25 -26 35 -40 13c-4 -7 -6 -15 -3 -20c2 -2 -1 -5 -5 -3
c-32 18 -32 53 -14 76c14 18 31 26 47 26c13 0 26 -4 36 -12c27 -20 33 -53 22 -86c-42 -125 -203 -115 -215 -8c-3 29 6 62 15 93c21 70 35 102 54 173c2 17 1 33 -16 46c-3 1 -2 4 1 5c26 14 35 30 42 50c22 82 44 166 70 263l3 12c-49 -30 -118 -61 -175 -42
c-52 17 -80 82 -52 134c27 50 106 63 127 19c2 -5 -1 -6 -4 -6c-43 8 -84 -84 5 -95c81 -10 224 103 246 152c2 4 8 4 7 0l-28 -104c133 86 283 68 251 -103c-12 -66 -59 -134 -123 -188c-15 -14 -32 -25 -49 -35c-2 -137 117 -376 248 -315zM278 252c250 38 325 446 73 273
c-29 -108 -46 -172 -73 -273zM286 -225c26 0 47 -22 43 -52c-6 -41 -47 -82 -98 -98c-20 -7 -21 15 -3 21s32 21 41 34c-24 1 -37 19 -37 43c0 28 26 52 54 52z" />
    <glyph glyph-name="Sacute" unicode="&#x15a;" horiz-adv-x="583" 
d="M552 210c12 -28 19 -57 20 -86c6 -108 -66 -231 -159 -283c-146 -81 -329 -34 -367 99c-31 107 49 251 174 255c27 1 51 -5 70 -19c23 -17 37 -46 30 -88c-9 -52 -53 -101 -126 -97c-10 -2 -11 5 -8 9c11 5 21 18 25 32c10 43 -30 56 -64 33c-31 -21 -44 -59 -42 -97
c6 -104 123 -148 211 -119c89 30 153 134 146 226c-4 46 -21 106 -78 102c-3 0 -5 2 -3 4c15 38 -6 59 -30 84c-16 17 -32 35 -46 53c-14 -9 -28 -19 -42 -28c-42 -26 -118 -75 -169 -79c-28 -3 -57 4 -77 27c-31 38 -20 104 28 124c21 9 47 7 65 -9c4 -4 2 -5 -3 -7
c-16 -6 -26 -21 -26 -37c0 -24 18 -57 63 -41c20 7 106 54 142 77c-50 78 -45 177 4 241c58 77 193 89 258 13c20 -24 52 -46 83 -24l5 -6l-229 -180c21 -28 44 -51 66 -72c18 -17 29 -26 58 -21c2 1 4 -1 3 -3c-10 -41 3 -51 18 -83zM388 414c16 11 28 20 32 23
c34 26 49 52 57 78c4 11 6 23 6 35c0 55 -76 58 -107 0c-17 -32 -16 -86 12 -136zM607 819l-121 -118c-7 -5 -12 -9 -24 -9h-17c-8 0 -12 10 -5 18l96 121c5 8 13 11 21 11h43c12 0 18 -12 7 -23z" />
    <glyph glyph-name="Scircumflex" unicode="&#x15c;" horiz-adv-x="583" 
d="M552 210c12 -28 19 -57 20 -86c6 -108 -66 -231 -159 -283c-146 -81 -329 -34 -367 99c-31 107 49 251 174 255c27 1 51 -5 70 -19c23 -17 37 -46 30 -88c-9 -52 -53 -101 -126 -97c-10 -2 -11 5 -8 9c11 5 21 18 25 32c10 43 -30 56 -64 33c-31 -21 -44 -59 -42 -97
c6 -104 123 -148 211 -119c89 30 153 134 146 226c-4 46 -21 106 -78 102c-3 0 -5 2 -3 4c15 38 -6 59 -30 84c-16 17 -32 35 -46 53c-14 -9 -28 -19 -42 -28c-42 -26 -118 -75 -169 -79c-28 -3 -57 4 -77 27c-31 38 -20 104 28 124c21 9 47 7 65 -9c4 -4 2 -5 -3 -7
c-16 -6 -26 -21 -26 -37c0 -24 18 -57 63 -41c20 7 106 54 142 77c-50 78 -45 177 4 241c58 77 193 89 258 13c20 -24 52 -46 83 -24l5 -6l-229 -180c21 -28 44 -51 66 -72c18 -17 29 -26 58 -21c2 1 4 -1 3 -3c-10 -41 3 -51 18 -83zM388 414c16 11 28 20 32 23
c34 26 49 52 57 78c4 11 6 23 6 35c0 55 -76 58 -107 0c-17 -32 -16 -86 12 -136zM506 842h18c8 0 12 -3 13 -11l11 -125c1 -10 -1 -14 -10 -14h-21c-11 0 -17 4 -19 14c-6 24 -11 51 -11 51l-49 -55c-8 -7 -14 -10 -21 -10h-25c-9 0 -13 7 -7 16l103 125c6 8 14 9 18 9z
" />
    <glyph glyph-name="Scaron" unicode="&#x160;" horiz-adv-x="583" 
d="M552 210c12 -28 19 -57 20 -86c6 -108 -66 -231 -159 -283c-146 -81 -329 -34 -367 99c-31 107 49 251 174 255c27 1 51 -5 70 -19c23 -17 37 -46 30 -88c-9 -52 -53 -101 -126 -97c-10 -2 -11 5 -8 9c11 5 21 18 25 32c10 43 -30 56 -64 33c-31 -21 -44 -59 -42 -97
c6 -104 123 -148 211 -119c89 30 153 134 146 226c-4 46 -21 106 -78 102c-3 0 -5 2 -3 4c15 38 -6 59 -30 84c-16 17 -32 35 -46 53c-14 -9 -28 -19 -42 -28c-42 -26 -118 -75 -169 -79c-28 -3 -57 4 -77 27c-31 38 -20 104 28 124c21 9 47 7 65 -9c4 -4 2 -5 -3 -7
c-16 -6 -26 -21 -26 -37c0 -24 18 -57 63 -41c20 7 106 54 142 77c-50 78 -45 177 4 241c58 77 193 89 258 13c20 -24 52 -46 83 -24l5 -6l-229 -180c21 -28 44 -51 66 -72c18 -17 29 -26 58 -21c2 1 4 -1 3 -3c-10 -41 3 -51 18 -83zM388 414c16 11 28 20 32 23
c34 26 49 52 57 78c4 11 6 23 6 35c0 55 -76 58 -107 0c-17 -32 -16 -86 12 -136zM462 692h-18c-8 0 -12 3 -13 11l-11 125c-1 10 1 14 10 14h21c11 0 17 -4 19 -14c6 -24 11 -51 11 -51l49 54c8 8 14 11 21 11h25c9 0 13 -8 7 -16l-103 -126c-6 -7 -14 -8 -18 -8z" />
    <glyph glyph-name="Scedilla" unicode="&#x15e;" horiz-adv-x="583" 
d="M552 210c12 -28 19 -57 20 -86c6 -108 -66 -224 -159 -276c-35 -22 -92 -37 -151 -39c-10 -10 -20 -20 -22 -23c-10 -9 -16 -13 -3 -16c28 -7 41 -29 42 -51c2 -63 -77 -91 -123 -62c-15 10 -4 25 10 20c75 -29 91 74 21 66c-21 -2 -30 18 -16 32l39 36
c-141 19 -220 140 -146 280c32 59 88 102 156 104c27 1 51 -5 70 -19c23 -17 37 -46 30 -88c-9 -52 -53 -101 -126 -97c-10 -2 -11 5 -8 9c11 5 21 18 25 32c10 43 -30 56 -64 33c-38 -26 -49 -79 -38 -125c20 -87 129 -114 205 -89c89 30 155 132 148 224
c-4 46 -21 106 -78 102c-3 0 -5 2 -3 4c15 38 -6 59 -30 84c-16 17 -32 35 -46 53c-14 -9 -28 -19 -42 -28c-42 -26 -118 -75 -169 -79c-28 -3 -57 4 -77 27c-31 38 -20 104 28 124c21 9 47 7 65 -9c4 -4 2 -5 -3 -7c-16 -6 -26 -21 -26 -37c0 -24 18 -57 63 -41
c20 7 106 54 142 77c-50 78 -45 177 4 241c58 77 193 89 258 13c20 -24 52 -46 83 -24l5 -6l-229 -180c21 -28 44 -51 66 -72c18 -17 29 -26 58 -21c2 1 4 -1 3 -3c-10 -41 3 -51 18 -83zM388 414c16 11 28 20 32 23c34 26 49 52 57 78c4 11 6 23 6 35c0 55 -76 58 -107 0
c-17 -32 -16 -86 12 -136z" />
    <glyph glyph-name="Scommaaccent" unicode="&#x218;" horiz-adv-x="583" 
d="M274 -239c26 0 47 -22 43 -52c-6 -41 -47 -82 -98 -98c-20 -7 -21 15 -3 21s32 21 41 34c-24 1 -37 19 -37 43c0 28 26 52 54 52zM552 210c12 -28 19 -57 20 -86c6 -108 -66 -231 -159 -283c-146 -81 -329 -34 -367 99c-31 107 49 251 174 255c27 1 51 -5 70 -19
c23 -17 37 -46 30 -88c-9 -52 -53 -101 -126 -97c-10 -2 -11 5 -8 9c11 5 21 18 25 32c10 43 -30 56 -64 33c-31 -21 -44 -59 -42 -97c6 -104 123 -148 211 -119c89 30 153 134 146 226c-4 46 -21 106 -78 102c-3 0 -5 2 -3 4c15 38 -6 59 -30 84c-16 17 -32 35 -46 53
c-14 -9 -28 -19 -42 -28c-42 -26 -118 -75 -169 -79c-28 -3 -57 4 -77 27c-31 38 -20 104 28 124c21 9 47 7 65 -9c4 -4 2 -5 -3 -7c-16 -6 -26 -21 -26 -37c0 -24 18 -57 63 -41c20 7 106 54 142 77c-50 78 -45 177 4 241c58 77 193 89 258 13c20 -24 52 -46 83 -24l5 -6
l-229 -180c21 -28 44 -51 66 -72c18 -17 29 -26 58 -21c2 1 4 -1 3 -3c-10 -41 3 -51 18 -83zM388 414c16 11 28 20 32 23c34 26 49 52 57 78c4 11 6 23 6 35c0 55 -76 58 -107 0c-17 -32 -16 -86 12 -136z" />
    <glyph glyph-name="Tcaron" unicode="&#x164;" horiz-adv-x="502" 
d="M823 720c114 14 189 -80 101 -161c-71 -64 -232 -34 -318 -5c-51 -52 -88 -209 -113 -303c-6 -21 -11 -42 9 -58c2 -1 2 -3 -1 -4c-28 -15 -32 -36 -40 -63c-24 -95 -56 -188 -123 -249c-74 -67 -204 -111 -292 -44c-91 69 -41 240 96 245c55 2 95 -32 89 -90
c-4 -44 -44 -88 -106 -83c-6 1 -7 7 -2 9c9 3 17 15 19 27c4 20 -5 35 -26 38c-34 4 -58 -28 -63 -58c-14 -85 158 -166 245 42c25 60 43 135 53 183c4 17 3 31 -12 43c-2 1 -2 3 1 4c21 11 29 26 35 42l15 47c7 23 58 170 175 283c-33 5 -93 31 -161 31
c-85 0 -173 -53 -175 -145c-3 -50 36 -89 92 -91c9 0 11 -2 7 -8c-25 -36 -83 -43 -124 -29c-93 33 -102 126 -60 198c40 69 112 107 191 117c91 12 178 -22 256 -47c51 63 148 119 232 129zM791 573c168 49 8 189 -164 8c45 -12 126 -19 164 -8zM586 692h-18
c-8 0 -12 3 -13 11l-11 125c-1 10 1 14 10 14h21c11 0 17 -4 19 -14c6 -24 11 -51 11 -51l49 54c8 8 14 11 21 11h25c9 0 13 -8 7 -16l-103 -126c-6 -7 -14 -8 -18 -8z" />
    <glyph glyph-name="Tcommaaccent" unicode="&#x162;" horiz-adv-x="502" 
d="M823 720c114 14 189 -80 101 -161c-71 -64 -232 -34 -318 -5c-51 -52 -88 -209 -113 -303c-6 -21 -11 -42 9 -58c2 -1 2 -3 -1 -4c-28 -15 -32 -36 -40 -63c-24 -95 -56 -188 -123 -249c-74 -67 -204 -111 -292 -44c-91 69 -41 240 96 245c55 2 95 -32 89 -90
c-4 -44 -44 -88 -106 -83c-6 1 -7 7 -2 9c9 3 17 15 19 27c4 20 -5 35 -26 38c-34 4 -58 -28 -63 -58c-14 -85 158 -166 245 42c25 60 43 135 53 183c4 17 3 31 -12 43c-2 1 -2 3 1 4c21 11 29 26 35 42l15 47c7 23 58 170 175 283c-33 5 -93 31 -161 31
c-85 0 -173 -53 -175 -145c-3 -50 36 -89 92 -91c9 0 11 -2 7 -8c-25 -36 -83 -43 -124 -29c-93 33 -102 126 -60 198c40 69 112 107 191 117c91 12 178 -22 256 -47c51 63 148 119 232 129zM791 573c168 49 8 189 -164 8c45 -12 126 -19 164 -8zM273 -232
c26 0 47 -22 43 -52c-6 -41 -47 -82 -98 -98c-20 -7 -21 15 -3 21s32 21 41 34c-24 1 -37 19 -37 43c0 28 26 52 54 52z" />
    <glyph glyph-name="Tbar" unicode="&#x166;" horiz-adv-x="502" 
d="M823 720c114 14 189 -80 101 -161c-71 -64 -232 -34 -318 -5c-20 -20 -38 -57 -54 -100h140c9 0 15 -8 13 -17l-6 -19c-2 -10 -12 -18 -22 -18h-143c-16 -52 -30 -107 -41 -149c-6 -21 -11 -42 9 -58c2 -1 2 -3 -1 -4c-28 -15 -32 -36 -40 -63
c-24 -95 -56 -188 -123 -249c-74 -67 -204 -111 -292 -44c-91 69 -41 240 96 245c55 2 95 -32 89 -90c-4 -44 -44 -88 -106 -83c-6 1 -7 7 -2 9c9 3 17 15 19 27c4 20 -5 35 -26 38c-34 4 -58 -28 -63 -58c-14 -85 158 -166 245 42c25 60 43 135 53 183c4 17 3 31 -12 43
c-2 1 -2 3 1 4c21 11 29 26 35 42l15 47c4 12 20 60 52 118h-126c-9 0 -15 8 -12 18l5 19c2 9 12 17 22 17h143c24 37 54 76 91 111c-33 5 -93 31 -161 31c-85 0 -173 -53 -175 -145c-3 -50 36 -89 92 -91c9 0 11 -2 7 -8c-25 -36 -83 -43 -124 -29c-93 33 -102 126 -60 198
c40 69 112 107 191 117c91 12 178 -22 256 -47c51 63 148 119 232 129zM791 573c168 49 8 189 -164 8c45 -12 126 -19 164 -8z" />
    <glyph glyph-name="Ugrave" unicode="&#xd9;" horiz-adv-x="464" 
d="M252 -89c35 6 71 23 99 51c29 29 44 68 55 109l13 46c8 28 12 54 44 72c3 1 4 3 1 4c-15 12 -16 30 -12 48l56 206c11 40 24 108 77 112c15 1 27 -6 28 -22c1 -7 -1 -14 -6 -23c-3 -5 -4 -8 2 -8c56 -5 101 65 74 111c-28 45 -84 45 -136 9c-65 -45 -86 -149 -105 -220
l-45 -169c-6 -17 -15 -33 -36 -44c-3 -1 -3 -3 -1 -4c17 -13 16 -31 11 -51l-18 -68c-5 -18 -10 -37 -18 -54c-23 -46 -70 -67 -111 -52c-36 13 -35 61 -23 97c9 35 13 49 23 85c6 16 15 31 36 43c2 1 3 3 1 4c-15 11 -16 27 -13 44c11 44 33 124 43 162c10 39 20 82 43 118
c16 27 38 51 70 69c4 2 4 10 -7 9c-30 4 -61 17 -93 29c-31 11 -82 25 -132 27c-41 1 -83 -8 -115 -29c-55 -36 -77 -118 -36 -165c39 -45 131 -31 146 24c2 6 -1 6 -5 5c-30 -15 -66 4 -58 45c23 115 176 53 240 48l-7 -2c-49 -16 -85 -54 -111 -94
c-40 -61 -55 -140 -72 -204l-5 -20c-8 -27 -12 -49 -43 -66c-3 -1 -3 -3 -1 -4c21 -16 15 -37 8 -63l-20 -72c-23 -85 27 -138 103 -145c-16 -13 -34 -37 -40 -52c-28 -68 48 -111 88 -75c12 11 19 29 13 46c-1 3 -2 2 -5 0c-8 -8 -22 -10 -33 -5c-20 10 -19 34 -9 51
c10 16 25 27 42 37zM361 825c-6 12 -2 17 8 17h40c9 0 19 -4 22 -15c10 -38 30 -116 32 -123c1 -7 -1 -12 -9 -12h-11c-12 0 -18 6 -22 14z" />
    <glyph glyph-name="Uacute" unicode="&#xda;" horiz-adv-x="464" 
d="M252 -89c35 6 71 23 99 51c29 29 44 68 55 109l13 46c8 28 12 54 44 72c3 1 4 3 1 4c-15 12 -16 30 -12 48l56 206c11 40 24 108 77 112c15 1 27 -6 28 -22c1 -7 -1 -14 -6 -23c-3 -5 -4 -8 2 -8c56 -5 101 65 74 111c-28 45 -84 45 -136 9c-65 -45 -86 -149 -105 -220
l-45 -169c-6 -17 -15 -33 -36 -44c-3 -1 -3 -3 -1 -4c17 -13 16 -31 11 -51l-18 -68c-5 -18 -10 -37 -18 -54c-23 -46 -70 -67 -111 -52c-36 13 -35 61 -23 97c9 35 13 49 23 85c6 16 15 31 36 43c2 1 3 3 1 4c-15 11 -16 27 -13 44c11 44 33 124 43 162c10 39 20 82 43 118
c16 27 38 51 70 69c4 2 4 10 -7 9c-30 4 -61 17 -93 29c-31 11 -82 25 -132 27c-41 1 -83 -8 -115 -29c-55 -36 -77 -118 -36 -165c39 -45 131 -31 146 24c2 6 -1 6 -5 5c-30 -15 -66 4 -58 45c23 115 176 53 240 48l-7 -2c-49 -16 -85 -54 -111 -94
c-40 -61 -55 -140 -72 -204l-5 -20c-8 -27 -12 -49 -43 -66c-3 -1 -3 -3 -1 -4c21 -16 15 -37 8 -63l-20 -72c-23 -85 27 -138 103 -145c-16 -13 -34 -37 -40 -52c-28 -68 48 -111 88 -75c12 11 19 29 13 46c-1 3 -2 2 -5 0c-8 -8 -22 -10 -33 -5c-20 10 -19 34 -9 51
c10 16 25 27 42 37zM610 819l-121 -118c-7 -5 -12 -9 -24 -9h-17c-8 0 -12 10 -5 18l96 121c5 8 13 11 21 11h43c12 0 18 -12 7 -23z" />
    <glyph glyph-name="Ucircumflex" unicode="&#xdb;" horiz-adv-x="464" 
d="M252 -89c35 6 71 23 99 51c29 29 44 68 55 109l13 46c8 28 12 54 44 72c3 1 4 3 1 4c-15 12 -16 30 -12 48l56 206c11 40 24 108 77 112c15 1 27 -6 28 -22c1 -7 -1 -14 -6 -23c-3 -5 -4 -8 2 -8c56 -5 101 65 74 111c-28 45 -84 45 -136 9c-65 -45 -86 -149 -105 -220
l-45 -169c-6 -17 -15 -33 -36 -44c-3 -1 -3 -3 -1 -4c17 -13 16 -31 11 -51l-18 -68c-5 -18 -10 -37 -18 -54c-23 -46 -70 -67 -111 -52c-36 13 -35 61 -23 97c9 35 13 49 23 85c6 16 15 31 36 43c2 1 3 3 1 4c-15 11 -16 27 -13 44c11 44 33 124 43 162c10 39 20 82 43 118
c16 27 38 51 70 69c4 2 4 10 -7 9c-30 4 -61 17 -93 29c-31 11 -82 25 -132 27c-41 1 -83 -8 -115 -29c-55 -36 -77 -118 -36 -165c39 -45 131 -31 146 24c2 6 -1 6 -5 5c-30 -15 -66 4 -58 45c23 115 176 53 240 48l-7 -2c-49 -16 -85 -54 -111 -94
c-40 -61 -55 -140 -72 -204l-5 -20c-8 -27 -12 -49 -43 -66c-3 -1 -3 -3 -1 -4c21 -16 15 -37 8 -63l-20 -72c-23 -85 27 -138 103 -145c-16 -13 -34 -37 -40 -52c-28 -68 48 -111 88 -75c12 11 19 29 13 46c-1 3 -2 2 -5 0c-8 -8 -22 -10 -33 -5c-20 10 -19 34 -9 51
c10 16 25 27 42 37zM497 842h18c8 0 12 -3 13 -11l11 -125c1 -10 -1 -14 -10 -14h-21c-11 0 -17 4 -19 14c-6 24 -11 51 -11 51l-49 -55c-8 -7 -14 -10 -21 -10h-25c-9 0 -13 7 -7 16l103 125c6 8 14 9 18 9z" />
    <glyph glyph-name="Utilde" unicode="&#x168;" horiz-adv-x="464" 
d="M252 -89c35 6 71 23 99 51c29 29 44 68 55 109l13 46c8 28 12 54 44 72c3 1 4 3 1 4c-15 12 -16 30 -12 48l56 206c11 40 24 108 77 112c15 1 27 -6 28 -22c1 -7 -1 -14 -6 -23c-3 -5 -4 -8 2 -8c56 -5 101 65 74 111c-28 45 -84 45 -136 9c-65 -45 -86 -149 -105 -220
l-45 -169c-6 -17 -15 -33 -36 -44c-3 -1 -3 -3 -1 -4c17 -13 16 -31 11 -51l-18 -68c-5 -18 -10 -37 -18 -54c-23 -46 -70 -67 -111 -52c-36 13 -35 61 -23 97c9 35 13 49 23 85c6 16 15 31 36 43c2 1 3 3 1 4c-15 11 -16 27 -13 44c11 44 33 124 43 162c10 39 20 82 43 118
c16 27 38 51 70 69c4 2 4 10 -7 9c-30 4 -61 17 -93 29c-31 11 -82 25 -132 27c-41 1 -83 -8 -115 -29c-55 -36 -77 -118 -36 -165c39 -45 131 -31 146 24c2 6 -1 6 -5 5c-30 -15 -66 4 -58 45c23 115 176 53 240 48l-7 -2c-49 -16 -85 -54 -111 -94
c-40 -61 -55 -140 -72 -204l-5 -20c-8 -27 -12 -49 -43 -66c-3 -1 -3 -3 -1 -4c21 -16 15 -37 8 -63l-20 -72c-23 -85 27 -138 103 -145c-16 -13 -34 -37 -40 -52c-28 -68 48 -111 88 -75c12 11 19 29 13 46c-1 3 -2 2 -5 0c-8 -8 -22 -10 -33 -5c-20 10 -19 34 -9 51
c10 16 25 27 42 37zM409 731c-13 0 -31 -10 -45 -25c-10 -10 -23 -7 -21 5c7 37 49 69 89 69c50 0 65 -33 107 -33c13 0 31 10 44 25c9 10 24 8 21 -6c-7 -35 -50 -69 -88 -69c-51 0 -66 34 -107 34z" />
    <glyph glyph-name="Udieresis" unicode="&#xdc;" horiz-adv-x="464" 
d="M252 -89c35 6 71 23 99 51c29 29 44 68 55 109l13 46c8 28 12 54 44 72c3 1 4 3 1 4c-15 12 -16 30 -12 48l56 206c11 40 24 108 77 112c15 1 27 -6 28 -22c1 -7 -1 -14 -6 -23c-3 -5 -4 -8 2 -8c56 -5 101 65 74 111c-28 45 -84 45 -136 9c-65 -45 -86 -149 -105 -220
l-45 -169c-6 -17 -15 -33 -36 -44c-3 -1 -3 -3 -1 -4c17 -13 16 -31 11 -51l-18 -68c-5 -18 -10 -37 -18 -54c-23 -46 -70 -67 -111 -52c-36 13 -35 61 -23 97c9 35 13 49 23 85c6 16 15 31 36 43c2 1 3 3 1 4c-15 11 -16 27 -13 44c11 44 33 124 43 162c10 39 20 82 43 118
c16 27 38 51 70 69c4 2 4 10 -7 9c-30 4 -61 17 -93 29c-31 11 -82 25 -132 27c-41 1 -83 -8 -115 -29c-55 -36 -77 -118 -36 -165c39 -45 131 -31 146 24c2 6 -1 6 -5 5c-30 -15 -66 4 -58 45c23 115 176 53 240 48l-7 -2c-49 -16 -85 -54 -111 -94
c-40 -61 -55 -140 -72 -204l-5 -20c-8 -27 -12 -49 -43 -66c-3 -1 -3 -3 -1 -4c21 -16 15 -37 8 -63l-20 -72c-23 -85 27 -138 103 -145c-16 -13 -34 -37 -40 -52c-28 -68 48 -111 88 -75c12 11 19 29 13 46c-1 3 -2 2 -5 0c-8 -8 -22 -10 -33 -5c-20 10 -19 34 -9 51
c10 16 25 27 42 37zM579 733c-5 -24 -27 -45 -51 -45c-25 0 -41 21 -37 45c3 25 27 47 51 47s41 -22 37 -47zM448 733c-5 -24 -28 -45 -52 -45s-41 21 -36 45c3 25 26 47 50 47s41 -22 38 -47z" />
    <glyph glyph-name="Umacron" unicode="&#x16a;" horiz-adv-x="464" 
d="M252 -89c-17 -10 -32 -21 -42 -37c-10 -17 -11 -41 9 -51c11 -5 25 -3 33 5c3 2 4 3 5 0c6 -17 -1 -35 -13 -46c-40 -36 -116 7 -88 75c6 15 24 39 40 52c-76 7 -126 60 -103 145l20 72c7 26 13 47 -8 63c-2 1 -2 3 1 4c31 17 35 39 43 66l5 20c17 64 32 143 72 204
c26 40 62 78 111 94l7 2c-64 5 -217 67 -240 -48c-8 -41 28 -60 58 -45c4 1 7 1 5 -5c-15 -55 -107 -69 -146 -24c-41 47 -19 129 36 165c32 21 74 30 115 29c50 -2 101 -16 132 -27c32 -12 63 -25 93 -29c11 1 11 -7 7 -9c-32 -18 -54 -42 -70 -69
c-23 -36 -33 -79 -43 -118c-10 -38 -32 -118 -43 -162c-3 -17 -2 -33 13 -44c2 -1 1 -3 -1 -4c-21 -12 -30 -27 -36 -43c-10 -36 -14 -50 -23 -85c-12 -36 -13 -84 23 -97c41 -15 88 6 111 52c8 17 13 36 18 54l18 68c5 20 6 38 -11 51c-2 1 -2 3 1 4c21 11 30 27 36 44
l45 169c19 71 40 175 105 220c52 36 108 36 136 -9c27 -46 -18 -116 -74 -111c-6 0 -5 3 -2 8c5 9 7 16 6 23c-1 16 -13 23 -28 22c-53 -4 -66 -72 -77 -112l-56 -206c-4 -18 -3 -36 12 -48c3 -1 2 -3 -1 -4c-32 -18 -36 -44 -44 -72l-13 -46c-11 -41 -26 -80 -55 -109
c-28 -28 -64 -45 -99 -51zM405 758h161c9 0 14 -7 12 -15l-5 -17c-2 -9 -11 -16 -19 -16h-161c-9 0 -14 7 -12 16l5 17c2 8 11 15 19 15z" />
    <glyph glyph-name="Ubreve" unicode="&#x16c;" horiz-adv-x="464" 
d="M252 -89c35 6 71 23 99 51c29 29 44 68 55 109l13 46c8 28 12 54 44 72c3 1 4 3 1 4c-15 12 -16 30 -12 48l56 206c11 40 24 108 77 112c15 1 27 -6 28 -22c1 -7 -1 -14 -6 -23c-3 -5 -4 -8 2 -8c56 -5 101 65 74 111c-28 45 -84 45 -136 9c-65 -45 -86 -149 -105 -220
l-45 -169c-6 -17 -15 -33 -36 -44c-3 -1 -3 -3 -1 -4c17 -13 16 -31 11 -51l-18 -68c-5 -18 -10 -37 -18 -54c-23 -46 -70 -67 -111 -52c-36 13 -35 61 -23 97c9 35 13 49 23 85c6 16 15 31 36 43c2 1 3 3 1 4c-15 11 -16 27 -13 44c11 44 33 124 43 162c10 39 20 82 43 118
c16 27 38 51 70 69c4 2 4 10 -7 9c-30 4 -61 17 -93 29c-31 11 -82 25 -132 27c-41 1 -83 -8 -115 -29c-55 -36 -77 -118 -36 -165c39 -45 131 -31 146 24c2 6 -1 6 -5 5c-30 -15 -66 4 -58 45c23 115 176 53 240 48l-7 -2c-49 -16 -85 -54 -111 -94
c-40 -61 -55 -140 -72 -204l-5 -20c-8 -27 -12 -49 -43 -66c-3 -1 -3 -3 -1 -4c21 -16 15 -37 8 -63l-20 -72c-23 -85 27 -138 103 -145c-16 -13 -34 -37 -40 -52c-28 -68 48 -111 88 -75c12 11 19 29 13 46c-1 3 -2 2 -5 0c-8 -8 -22 -10 -33 -5c-20 10 -19 34 -9 51
c10 16 25 27 42 37zM547 768c-9 -44 -48 -80 -91 -80c-44 0 -73 36 -65 80c0 2 0 4 1 5h46c-1 -1 -1 -3 -1 -4c-3 -18 9 -33 27 -33c17 0 33 15 37 33v4h47c-1 -1 -1 -3 -1 -5z" />
    <glyph glyph-name="Uring" unicode="&#x16e;" horiz-adv-x="464" 
d="M252 -89c35 6 71 23 99 51c29 29 44 68 55 109l13 46c8 28 12 54 44 72c3 1 4 3 1 4c-15 12 -16 30 -12 48l56 206c11 40 24 108 77 112c15 1 27 -6 28 -22c1 -7 -1 -14 -6 -23c-3 -5 -4 -8 2 -8c56 -5 101 65 74 111c-28 45 -84 45 -136 9c-65 -45 -86 -149 -105 -220
l-45 -169c-6 -17 -15 -33 -36 -44c-3 -1 -3 -3 -1 -4c17 -13 16 -31 11 -51l-18 -68c-5 -18 -10 -37 -18 -54c-23 -46 -70 -67 -111 -52c-36 13 -35 61 -23 97c9 35 13 49 23 85c6 16 15 31 36 43c2 1 3 3 1 4c-15 11 -16 27 -13 44c11 44 33 124 43 162c10 39 20 82 43 118
c16 27 38 51 70 69c4 2 4 10 -7 9c-30 4 -61 17 -93 29c-31 11 -82 25 -132 27c-41 1 -83 -8 -115 -29c-55 -36 -77 -118 -36 -165c39 -45 131 -31 146 24c2 6 -1 6 -5 5c-30 -15 -66 4 -58 45c23 115 176 53 240 48l-7 -2c-49 -16 -85 -54 -111 -94
c-40 -61 -55 -140 -72 -204l-5 -20c-8 -27 -12 -49 -43 -66c-3 -1 -3 -3 -1 -4c21 -16 15 -37 8 -63l-20 -72c-23 -85 27 -138 103 -145c-16 -13 -34 -37 -40 -52c-28 -68 48 -111 88 -75c12 11 19 29 13 46c-1 3 -2 2 -5 0c-8 -8 -22 -10 -33 -5c-20 10 -19 34 -9 51
c10 16 25 27 42 37zM536 750c-7 -34 -37 -62 -70 -62s-55 28 -50 62s36 63 69 63s56 -29 51 -63zM501 750c2 14 -8 26 -21 26c-14 0 -26 -12 -28 -26c-3 -14 6 -25 20 -25c13 0 26 11 29 25z" />
    <glyph glyph-name="Uhungarumlaut" unicode="&#x170;" horiz-adv-x="464" 
d="M252 -89c35 6 71 23 99 51c29 29 44 68 55 109l13 46c8 28 12 54 44 72c3 1 4 3 1 4c-15 12 -16 30 -12 48l56 206c11 40 24 108 77 112c15 1 27 -6 28 -22c1 -7 -1 -14 -6 -23c-3 -5 -4 -8 2 -8c56 -5 101 65 74 111c-28 45 -84 45 -136 9c-65 -45 -86 -149 -105 -220
l-45 -169c-6 -17 -15 -33 -36 -44c-3 -1 -3 -3 -1 -4c17 -13 16 -31 11 -51l-18 -68c-5 -18 -10 -37 -18 -54c-23 -46 -70 -67 -111 -52c-36 13 -35 61 -23 97c9 35 13 49 23 85c6 16 15 31 36 43c2 1 3 3 1 4c-15 11 -16 27 -13 44c11 44 33 124 43 162c10 39 20 82 43 118
c16 27 38 51 70 69c4 2 4 10 -7 9c-30 4 -61 17 -93 29c-31 11 -82 25 -132 27c-41 1 -83 -8 -115 -29c-55 -36 -77 -118 -36 -165c39 -45 131 -31 146 24c2 6 -1 6 -5 5c-30 -15 -66 4 -58 45c23 115 176 53 240 48l-7 -2c-49 -16 -85 -54 -111 -94
c-40 -61 -55 -140 -72 -204l-5 -20c-8 -27 -12 -49 -43 -66c-3 -1 -3 -3 -1 -4c21 -16 15 -37 8 -63l-20 -72c-23 -85 27 -138 103 -145c-16 -13 -34 -37 -40 -52c-28 -68 48 -111 88 -75c12 11 19 29 13 46c-1 3 -2 2 -5 0c-8 -8 -22 -10 -33 -5c-20 10 -19 34 -9 51
c10 16 25 27 42 37zM544 819l-121 -118c-7 -5 -12 -9 -24 -9h-17c-8 0 -12 10 -5 18l96 121c5 8 13 11 21 11h43c12 0 18 -12 7 -23zM665 819l-121 -118c-7 -5 -12 -9 -24 -9h-17c-8 0 -12 10 -5 18l96 121c5 8 13 11 21 11h43c12 0 18 -12 7 -23z" />
    <glyph glyph-name="Uogonek" unicode="&#x172;" horiz-adv-x="464" 
d="M252 -89c-14 -5 -33 -14 -46 -24c-36 -26 -34 -70 0 -67c7 1 18 3 23 8c3 2 7 2 8 -3c0 -12 -4 -29 -12 -39c-21 -28 -53 -39 -81 -36c-11 2 -20 6 -27 12c-45 42 -11 112 51 151c0 0 1 0 1 1c-60 16 -96 66 -76 140l20 72c7 26 13 47 -8 63c-2 1 -2 3 1 4
c31 17 35 39 43 66l5 20c17 64 32 143 72 204c26 40 62 78 111 94l7 2c-64 5 -217 67 -240 -48c-8 -41 28 -60 58 -45c4 1 7 1 5 -5c-15 -55 -107 -69 -146 -24c-41 47 -19 129 36 165c32 21 74 30 115 29c50 -2 101 -16 132 -27c32 -12 63 -25 93 -29c11 1 11 -7 7 -9
c-32 -18 -54 -42 -70 -69c-23 -36 -33 -79 -43 -118c-10 -38 -32 -118 -43 -162c-3 -17 -2 -33 13 -44c2 -1 1 -3 -1 -4c-21 -12 -30 -27 -36 -43c-10 -36 -14 -50 -23 -85c-12 -36 -13 -84 23 -97c41 -15 88 6 111 52c8 17 13 36 18 54l18 68c5 20 6 38 -11 51
c-2 1 -2 3 1 4c21 11 30 27 36 44l45 169c19 71 40 175 105 220c52 36 108 36 136 -9c27 -46 -18 -116 -74 -111c-6 0 -5 3 -2 8c5 9 7 16 6 23c-1 16 -13 23 -28 22c-53 -4 -66 -72 -77 -112l-56 -206c-4 -18 -3 -36 12 -48c3 -1 2 -3 -1 -4c-32 -18 -36 -44 -44 -72
l-13 -46c-11 -41 -26 -80 -55 -109c-28 -28 -64 -45 -99 -51z" />
    <glyph glyph-name="Wgrave" unicode="&#x1e80;" horiz-adv-x="698" 
d="M541 561l-234 -441c20 53 29 111 36 166c51 384 -282 410 -338 181c-12 -47 -4 -100 41 -148c7 -6 16 5 14 10c-36 164 179 219 229 69c14 -44 17 -143 -13 -181c-7 -9 -16 -17 -28 -24c-3 -1 -4 -3 -1 -5c19 -14 20 -38 15 -60c-5 -20 -11 -37 -19 -55
c-29 -73 -63 -133 -98 -160c-4 -3 -4 -6 -2 -6c55 2 113 2 166 0c3 0 5 3 2 6c-9 9 -13 24 -13 40c-1 33 16 61 31 93c47 91 78 152 126 245c-6 -155 -11 -310 -19 -465c0 -4 6 -3 7 1c18 67 92 124 131 139c2 1 3 3 0 4c-31 12 -11 50 1 76c14 26 26 51 39 75
c19 38 22 51 62 67c3 2 4 4 2 5c-16 16 1 54 10 71c29 55 67 124 96 181c23 40 50 102 95 100c14 -2 24 -12 21 -28c0 -7 -4 -15 -10 -23c-4 -5 -6 -7 0 -9c51 -16 107 48 91 101c-15 52 -68 63 -123 35c-68 -36 -134 -188 -174 -263l-128 -242c7 146 7 298 19 445
c2 21 -22 24 -34 0zM471 825c-6 12 -2 17 8 17h40c9 0 19 -4 22 -15c10 -38 30 -116 32 -123c1 -7 -1 -12 -9 -12h-11c-12 0 -18 6 -22 14z" />
    <glyph glyph-name="Wacute" unicode="&#x1e82;" horiz-adv-x="698" 
d="M541 561l-234 -441c20 53 29 111 36 166c51 384 -282 410 -338 181c-12 -47 -4 -100 41 -148c7 -6 16 5 14 10c-36 164 179 219 229 69c14 -44 17 -143 -13 -181c-7 -9 -16 -17 -28 -24c-3 -1 -4 -3 -1 -5c19 -14 20 -38 15 -60c-5 -20 -11 -37 -19 -55
c-29 -73 -63 -133 -98 -160c-4 -3 -4 -6 -2 -6c55 2 113 2 166 0c3 0 5 3 2 6c-9 9 -13 24 -13 40c-1 33 16 61 31 93c47 91 78 152 126 245c-6 -155 -11 -310 -19 -465c0 -4 6 -3 7 1c18 67 92 124 131 139c2 1 3 3 0 4c-31 12 -11 50 1 76c14 26 26 51 39 75
c19 38 22 51 62 67c3 2 4 4 2 5c-16 16 1 54 10 71c29 55 67 124 96 181c23 40 50 102 95 100c14 -2 24 -12 21 -28c0 -7 -4 -15 -10 -23c-4 -5 -6 -7 0 -9c51 -16 107 48 91 101c-15 52 -68 63 -123 35c-68 -36 -134 -188 -174 -263l-128 -242c7 146 7 298 19 445
c2 21 -22 24 -34 0zM707 819l-121 -118c-7 -5 -12 -9 -24 -9h-17c-8 0 -12 10 -5 18l96 121c5 8 13 11 21 11h43c12 0 18 -12 7 -23z" />
    <glyph glyph-name="Wcircumflex" unicode="&#x174;" horiz-adv-x="698" 
d="M541 561l-234 -441c20 53 29 111 36 166c51 384 -282 410 -338 181c-12 -47 -4 -100 41 -148c7 -6 16 5 14 10c-36 164 179 219 229 69c14 -44 17 -143 -13 -181c-7 -9 -16 -17 -28 -24c-3 -1 -4 -3 -1 -5c19 -14 20 -38 15 -60c-5 -20 -11 -37 -19 -55
c-29 -73 -63 -133 -98 -160c-4 -3 -4 -6 -2 -6c55 2 113 2 166 0c3 0 5 3 2 6c-9 9 -13 24 -13 40c-1 33 16 61 31 93c47 91 78 152 126 245c-6 -155 -11 -310 -19 -465c0 -4 6 -3 7 1c18 67 92 124 131 139c2 1 3 3 0 4c-31 12 -11 50 1 76c14 26 26 51 39 75
c19 38 22 51 62 67c3 2 4 4 2 5c-16 16 1 54 10 71c29 55 67 124 96 181c23 40 50 102 95 100c14 -2 24 -12 21 -28c0 -7 -4 -15 -10 -23c-4 -5 -6 -7 0 -9c51 -16 107 48 91 101c-15 52 -68 63 -123 35c-68 -36 -134 -188 -174 -263l-128 -242c7 146 7 298 19 445
c2 21 -22 24 -34 0zM617 842h18c8 0 12 -3 13 -11l11 -125c1 -10 -1 -14 -10 -14h-21c-11 0 -17 4 -19 14c-6 24 -11 51 -11 51l-49 -55c-8 -7 -14 -10 -21 -10h-25c-9 0 -13 7 -7 16l103 125c6 8 14 9 18 9z" />
    <glyph glyph-name="Wdieresis" unicode="&#x1e84;" horiz-adv-x="698" 
d="M541 561l-234 -441c20 53 29 111 36 166c51 384 -282 410 -338 181c-12 -47 -4 -100 41 -148c7 -6 16 5 14 10c-36 164 179 219 229 69c14 -44 17 -143 -13 -181c-7 -9 -16 -17 -28 -24c-3 -1 -4 -3 -1 -5c19 -14 20 -38 15 -60c-5 -20 -11 -37 -19 -55
c-29 -73 -63 -133 -98 -160c-4 -3 -4 -6 -2 -6c55 2 113 2 166 0c3 0 5 3 2 6c-9 9 -13 24 -13 40c-1 33 16 61 31 93c47 91 78 152 126 245c-6 -155 -11 -310 -19 -465c0 -4 6 -3 7 1c18 67 92 124 131 139c2 1 3 3 0 4c-31 12 -11 50 1 76c14 26 26 51 39 75
c19 38 22 51 62 67c3 2 4 4 2 5c-16 16 1 54 10 71c29 55 67 124 96 181c23 40 50 102 95 100c14 -2 24 -12 21 -28c0 -7 -4 -15 -10 -23c-4 -5 -6 -7 0 -9c51 -16 107 48 91 101c-15 52 -68 63 -123 35c-68 -36 -134 -188 -174 -263l-128 -242c7 146 7 298 19 445
c2 21 -22 24 -34 0zM698 733c-5 -24 -27 -45 -51 -45c-25 0 -41 21 -37 45c3 25 27 47 51 47s41 -22 37 -47zM567 733c-5 -24 -28 -45 -52 -45s-41 21 -36 45c3 25 26 47 50 47s41 -22 38 -47z" />
    <glyph glyph-name="Ygrave" unicode="&#x1ef2;" horiz-adv-x="512" 
d="M345 565c-110 -40 -139 -128 -165 -225c-9 -31 -14 -58 -22 -98c-19 -96 27 -143 87 -134c61 8 105 61 138 107c-14 -70 -48 -185 -78 -246c-18 -36 -40 -70 -67 -95c-50 -45 -104 -51 -142 -37c-37 15 -51 50 -43 84c7 30 32 62 67 58c10 -2 18 -7 22 -15
c3 -6 4 -14 1 -23c-3 -12 -11 -24 -20 -27c-5 -2 -5 -8 1 -9c62 -5 104 39 111 83c6 35 -5 60 -25 74c-16 12 -37 17 -59 16c-181 -6 -228 -303 19 -271c126 16 219 122 265 234c13 30 22 59 30 90c9 27 21 44 47 58c2 1 3 3 1 4c-24 19 -11 48 -5 72c37 138 75 277 113 415
c1 4 -6 4 -8 0c-32 -69 -118 -115 -159 -122c-2 0 -4 -3 -1 -4c16 -12 15 -32 9 -56l-49 -180c-13 -43 -128 -182 -155 -128c-6 13 -3 38 5 72c11 47 27 120 47 178c22 65 49 111 113 143c4 1 6 6 1 6c-91 4 -166 122 -287 77c-49 -19 -79 -72 -80 -115c0 -2 1 -2 2 -1
c84 97 205 4 286 15zM344 825c-6 12 -2 17 8 17h40c9 0 19 -4 22 -15c10 -38 30 -116 32 -123c1 -7 -1 -12 -9 -12h-11c-12 0 -18 6 -22 14z" />
    <glyph glyph-name="Yacute" unicode="&#xdd;" horiz-adv-x="512" 
d="M345 565c-110 -40 -139 -128 -165 -225c-9 -31 -14 -58 -22 -98c-19 -96 27 -143 87 -134c61 8 105 61 138 107c-14 -70 -48 -185 -78 -246c-18 -36 -40 -70 -67 -95c-50 -45 -104 -51 -142 -37c-37 15 -51 50 -43 84c7 30 32 62 67 58c10 -2 18 -7 22 -15
c3 -6 4 -14 1 -23c-3 -12 -11 -24 -20 -27c-5 -2 -5 -8 1 -9c62 -5 104 39 111 83c6 35 -5 60 -25 74c-16 12 -37 17 -59 16c-181 -6 -228 -303 19 -271c126 16 219 122 265 234c13 30 22 59 30 90c9 27 21 44 47 58c2 1 3 3 1 4c-24 19 -11 48 -5 72c37 138 75 277 113 415
c1 4 -6 4 -8 0c-32 -69 -118 -115 -159 -122c-2 0 -4 -3 -1 -4c16 -12 15 -32 9 -56l-49 -180c-13 -43 -128 -182 -155 -128c-6 13 -3 38 5 72c11 47 27 120 47 178c22 65 49 111 113 143c4 1 6 6 1 6c-91 4 -166 122 -287 77c-49 -19 -79 -72 -80 -115c0 -2 1 -2 2 -1
c84 97 205 4 286 15zM602 819l-121 -118c-7 -5 -12 -9 -24 -9h-17c-8 0 -12 10 -5 18l96 121c5 8 13 11 21 11h43c12 0 18 -12 7 -23z" />
    <glyph glyph-name="Ycircumflex" unicode="&#x176;" horiz-adv-x="512" 
d="M345 565c-110 -40 -139 -128 -165 -225c-9 -31 -14 -58 -22 -98c-19 -96 27 -143 87 -134c61 8 105 61 138 107c-14 -70 -48 -185 -78 -246c-18 -36 -40 -70 -67 -95c-50 -45 -104 -51 -142 -37c-37 15 -51 50 -43 84c7 30 32 62 67 58c10 -2 18 -7 22 -15
c3 -6 4 -14 1 -23c-3 -12 -11 -24 -20 -27c-5 -2 -5 -8 1 -9c62 -5 104 39 111 83c6 35 -5 60 -25 74c-16 12 -37 17 -59 16c-181 -6 -228 -303 19 -271c126 16 219 122 265 234c13 30 22 59 30 90c9 27 21 44 47 58c2 1 3 3 1 4c-24 19 -11 48 -5 72c37 138 75 277 113 415
c1 4 -6 4 -8 0c-32 -69 -118 -115 -159 -122c-2 0 -4 -3 -1 -4c16 -12 15 -32 9 -56l-49 -180c-13 -43 -128 -182 -155 -128c-6 13 -3 38 5 72c11 47 27 120 47 178c22 65 49 111 113 143c4 1 6 6 1 6c-91 4 -166 122 -287 77c-49 -19 -79 -72 -80 -115c0 -2 1 -2 2 -1
c84 97 205 4 286 15zM498 842h18c8 0 12 -3 13 -11l11 -125c1 -10 -1 -14 -10 -14h-21c-11 0 -17 4 -19 14c-6 24 -11 51 -11 51l-49 -55c-8 -7 -14 -10 -21 -10h-25c-9 0 -13 7 -7 16l103 125c6 8 14 9 18 9z" />
    <glyph glyph-name="Ydieresis" unicode="&#x178;" horiz-adv-x="512" 
d="M345 565c-110 -40 -139 -128 -165 -225c-9 -31 -14 -58 -22 -98c-19 -96 27 -143 87 -134c61 8 105 61 138 107c-14 -70 -48 -185 -78 -246c-18 -36 -40 -70 -67 -95c-50 -45 -104 -51 -142 -37c-37 15 -51 50 -43 84c7 30 32 62 67 58c10 -2 18 -7 22 -15
c3 -6 4 -14 1 -23c-3 -12 -11 -24 -20 -27c-5 -2 -5 -8 1 -9c62 -5 104 39 111 83c6 35 -5 60 -25 74c-16 12 -37 17 -59 16c-181 -6 -228 -303 19 -271c126 16 219 122 265 234c13 30 22 59 30 90c9 27 21 44 47 58c2 1 3 3 1 4c-24 19 -11 48 -5 72c37 138 75 277 113 415
c1 4 -6 4 -8 0c-32 -69 -118 -115 -159 -122c-2 0 -4 -3 -1 -4c16 -12 15 -32 9 -56l-49 -180c-13 -43 -128 -182 -155 -128c-6 13 -3 38 5 72c11 47 27 120 47 178c22 65 49 111 113 143c4 1 6 6 1 6c-91 4 -166 122 -287 77c-49 -19 -79 -72 -80 -115c0 -2 1 -2 2 -1
c84 97 205 4 286 15zM563 733c-5 -24 -27 -45 -51 -45c-25 0 -41 21 -37 45c3 25 27 47 51 47s41 -22 37 -47zM432 733c-5 -24 -28 -45 -52 -45s-41 21 -36 45c3 25 26 47 50 47s41 -22 38 -47z" />
    <glyph glyph-name="Zacute" unicode="&#x179;" horiz-adv-x="463" 
d="M20 -117c-5 -4 -11 -8 -17 -11c-7 -5 -2 -16 10 -11c16 6 37 12 62 13c154 10 262 -41 381 -37c116 3 167 72 169 131c0 1 -1 1 -3 0c-52 -56 -160 -50 -226 -46c-60 4 -184 12 -237 4c77 57 141 146 193 229c11 12 28 28 47 36c4 2 5 4 3 5c-16 18 0 39 14 63
c54 89 125 231 217 295c13 14 -4 17 -11 14c-27 -7 -59 -2 -89 10c-72 27 -142 76 -247 35c-57 -23 -93 -79 -94 -122c0 -2 1 -2 3 0c94 100 229 28 324 39l7 1c-103 -60 -184 -181 -238 -278c-18 -30 -30 -46 -66 -61c-3 -1 -5 -4 -3 -5c8 -9 14 -21 4 -43
c-54 -91 -128 -210 -203 -261zM621 819l-121 -118c-7 -5 -12 -9 -24 -9h-17c-8 0 -12 10 -5 18l96 121c5 8 13 11 21 11h43c12 0 18 -12 7 -23z" />
    <glyph glyph-name="Zcaron" unicode="&#x17d;" horiz-adv-x="463" 
d="M20 -117c-5 -4 -11 -8 -17 -11c-7 -5 -2 -16 10 -11c16 6 37 12 62 13c154 10 262 -41 381 -37c116 3 167 72 169 131c0 1 -1 1 -3 0c-52 -56 -160 -50 -226 -46c-60 4 -184 12 -237 4c77 57 141 146 193 229c11 12 28 28 47 36c4 2 5 4 3 5c-16 18 0 39 14 63
c54 89 125 231 217 295c13 14 -4 17 -11 14c-27 -7 -59 -2 -89 10c-72 27 -142 76 -247 35c-57 -23 -93 -79 -94 -122c0 -2 1 -2 3 0c94 100 229 28 324 39l7 1c-103 -60 -184 -181 -238 -278c-18 -30 -30 -46 -66 -61c-3 -1 -5 -4 -3 -5c8 -9 14 -21 4 -43
c-54 -91 -128 -210 -203 -261zM497 692h-18c-8 0 -12 3 -13 11l-11 125c-1 10 1 14 10 14h21c11 0 17 -4 19 -14c6 -24 11 -51 11 -51l49 54c8 8 14 11 21 11h25c9 0 13 -8 7 -16l-103 -126c-6 -7 -14 -8 -18 -8z" />
    <glyph glyph-name="Zdotaccent" unicode="&#x17b;" horiz-adv-x="463" 
d="M20 -117c-5 -4 -11 -8 -17 -11c-7 -5 -2 -16 10 -11c16 6 37 12 62 13c154 10 262 -41 381 -37c116 3 167 72 169 131c0 1 -1 1 -3 0c-52 -56 -160 -50 -226 -46c-60 4 -184 12 -237 4c77 57 141 146 193 229c11 12 28 28 47 36c4 2 5 4 3 5c-16 18 0 39 14 63
c54 89 125 231 217 295c13 14 -4 17 -11 14c-27 -7 -59 -2 -89 10c-72 27 -142 76 -247 35c-57 -23 -93 -79 -94 -122c0 -2 1 -2 3 0c94 100 229 28 324 39l7 1c-103 -60 -184 -181 -238 -278c-18 -30 -30 -46 -66 -61c-3 -1 -5 -4 -3 -5c8 -9 14 -21 4 -43
c-54 -91 -128 -210 -203 -261zM517 733c-5 -24 -28 -45 -52 -45s-41 21 -36 45c3 25 26 47 50 47s41 -22 38 -47z" />
    <glyph glyph-name="Eng" unicode="&#x14a;" horiz-adv-x="737" 
d="M415 598c63 -1 122 -4 184 0c4 0 6 -3 3 -7c-15 -15 -19 -32 -17 -49l64 -375c25 91 80 298 105 389c4 14 2 29 -5 37c-1 1 -1 3 1 3h84c2 0 1 -2 0 -3c-12 -8 -21 -23 -25 -37c-18 -67 -67 -248 -84 -314c-4 -19 -4 -36 12 -49c2 -1 1 -3 -1 -4c-33 -17 -37 -43 -45 -72
c-15 -56 -30 -122 -47 -177c-15 -48 -37 -94 -74 -119c-51 -37 -108 -37 -136 9s15 115 71 111c7 -1 5 -3 2 -9c-5 -8 -6 -16 -5 -23c1 -16 13 -23 28 -22c35 3 52 32 62 63l-97 462l-47 -171c-4 -19 -3 -36 13 -48c2 -1 1 -3 -2 -4c-32 -18 -36 -44 -44 -72
c-13 -49 -28 -100 -49 -146c-35 -79 -90 -152 -187 -164c-160 -21 -217 118 -154 236c27 50 74 86 132 88c22 1 43 -4 58 -16c20 -15 31 -39 25 -75c-7 -43 -49 -87 -111 -82c-6 1 -6 7 -1 9c9 3 17 14 21 27c10 40 -33 49 -65 18c-47 -45 -42 -161 46 -173
c97 -14 152 61 186 142c23 53 37 109 52 165c3 17 1 31 -13 43c-2 1 -2 3 1 4c21 12 31 28 37 45l63 228c11 40 15 71 -3 97h-39c-84 0 -141 -80 -103 -118c18 -19 46 -8 49 20c1 9 -3 18 -9 22c-3 1 -1 6 4 6c48 0 69 -36 63 -69c-8 -46 -49 -76 -94 -71
c-44 6 -70 36 -77 75c-16 85 59 172 168 170z" />
    <glyph glyph-name="Eth" unicode="&#xd0;" horiz-adv-x="724" 
d="M336 333l7 25c3 11 5 22 4 31c-20 -7 -44 -10 -65 -8c-74 5 -70 95 -17 111c16 5 35 2 47 -11c2 -3 1 -4 -3 -5c-12 -3 -21 -13 -22 -25c-2 -22 19 -34 39 -33c10 0 22 2 34 7c54 22 118 79 134 114c2 4 9 4 8 0c-33 -124 -36 -133 -55 -206h68c9 0 15 -8 13 -18l-6 -19
c-2 -10 -12 -17 -22 -17h-68c-32 -129 -35 -160 -80 -311c75 -5 165 81 201 148c13 25 21 56 4 73c-1 1 -1 3 2 4c43 19 52 60 60 96c29 135 17 286 -148 310c-166 27 -345 -118 -335 -279c2 -67 56 -104 126 -87c11 3 14 2 9 -8c-26 -56 -98 -86 -152 -82
c-121 10 -142 129 -98 239c76 190 295 280 471 258c107 -13 192 -74 225 -156c20 -48 26 -107 15 -169c-6 -33 -30 -104 -9 -122c2 -1 1 -3 -2 -4c-6 -3 -12 -8 -18 -13c-8 -7 -13 -13 -18 -19c-4 -5 -10 -14 -13 -20c-59 -118 -202 -236 -343 -224c-36 4 -80 9 -134 1
c-3 0 -4 3 1 6c23 16 42 45 49 74l76 285h-69c-10 0 -15 7 -13 17l5 19c3 10 13 18 22 18h70z" />
    <glyph glyph-name="a" unicode="a" horiz-adv-x="335" 
d="M330 79c2 4 5 2 5 0c-8 -56 -50 -91 -98 -91c-41 0 -55 25 -54 58c-103 -102 -215 -16 -139 92c51 70 163 86 194 129c7 26 19 63 14 86c-9 37 -77 9 -80 -52c-2 -24 9 -44 37 -39c3 1 4 -2 2 -4c-8 -8 -24 -18 -41 -24c-58 -21 -95 21 -68 76c38 80 124 100 188 82
c27 -8 48 -28 51 -63c0 -22 -8 -51 -16 -77c-7 -25 -11 -44 9 -59c2 -1 1 -3 -1 -4c-21 -12 -31 -27 -37 -44l-16 -61c-15 -47 25 -57 50 -5zM196 107l26 100c-18 -17 -54 -38 -82 -60c-39 -32 -48 -85 -4 -85c12 0 40 14 60 45z" />
    <glyph glyph-name="b" unicode="b" horiz-adv-x="352" 
d="M365 193c2 -1 1 -3 -1 -4c-29 -16 -33 -38 -42 -63c-42 -113 -163 -167 -224 -104c-35 -25 -64 -22 -96 -21c-2 -1 -3 2 0 4c20 14 35 38 41 62l20 75c4 18 4 35 -11 47c-2 1 -2 3 1 4c22 12 31 29 37 47c22 81 43 163 65 244c5 20 6 36 -7 45c-3 2 -1 4 1 4
c34 6 105 44 132 101c1 3 6 3 6 0c-24 -89 -49 -182 -73 -270c43 42 101 43 124 4c24 -41 19 -80 12 -132c-1 -17 1 -32 15 -43zM267 236c7 26 17 101 -5 112c-25 12 -53 -28 -65 -49c-3 -13 -12 -46 -16 -59c-4 -18 -3 -35 12 -47c2 -1 2 -3 -1 -4c-22 -12 -31 -29 -37 -47
c-5 -19 -17 -60 -22 -79c6 -22 27 -29 49 -18c37 18 61 79 62 113c1 12 -3 22 -14 31c-2 1 -1 3 1 4c22 12 32 26 36 43z" />
    <glyph glyph-name="c" unicode="c" horiz-adv-x="299" 
d="M289 142c1 3 7 3 7 0c0 -50 -22 -99 -62 -127c-58 -42 -155 -35 -183 41c-8 22 -10 49 -7 77c2 17 5 45 -9 56c-2 1 -1 3 1 4c17 9 26 22 33 37c11 22 19 40 34 61c14 20 31 40 50 56c108 94 232 55 199 -70c-16 -44 -53 -84 -102 -85c-47 0 -63 42 -36 90c2 4 7 4 7 -1
c-1 -13 9 -21 23 -19c37 8 74 71 57 97c-5 9 -15 11 -25 9c-41 -6 -83 -74 -100 -108c-9 -18 -26 -50 -5 -67c2 -1 1 -3 -1 -4c-26 -14 -32 -36 -33 -64c-1 -25 4 -47 18 -61c55 -52 125 34 134 78z" />
    <glyph glyph-name="d" unicode="d" horiz-adv-x="361" 
d="M453 634c-34 -128 -68 -256 -102 -383c-7 -24 -10 -44 9 -58c2 -1 1 -3 -2 -4c-20 -12 -30 -27 -36 -44l-16 -61c-15 -47 25 -57 50 -5c1 3 5 3 5 0c-8 -56 -50 -90 -98 -90c-40 0 -55 23 -55 55c-73 -78 -167 -51 -164 46c0 12 1 24 3 36c5 25 10 47 -10 63
c-2 1 -1 3 1 4c20 11 29 24 36 43c24 52 41 91 89 132c51 43 114 31 126 -8l33 124c5 20 6 36 -8 45c-2 2 -1 4 1 4c34 6 105 44 132 101c2 3 7 3 6 0zM270 291c1 12 0 25 -3 35c-15 54 -58 3 -77 -33c-11 -22 -21 -45 -25 -57c-5 -17 -4 -31 12 -43c2 -1 1 -3 -2 -4
c-13 -7 -22 -16 -28 -26c-17 -26 -25 -99 1 -108c34 -12 69 41 78 70c1 5 5 25 6 29c1 13 -2 26 -14 35c-2 1 -2 3 1 4c24 13 33 32 39 53z" />
    <glyph glyph-name="e" unicode="e" horiz-adv-x="304" 
d="M290 142c1 3 7 3 7 0c0 -50 -22 -99 -62 -127c-58 -42 -155 -35 -183 41c-8 22 -10 49 -7 77c2 17 5 45 -9 56c-2 1 -1 3 1 4c17 9 26 22 33 37c11 22 19 40 34 61c14 20 31 40 50 56c63 55 131 70 169 38c110 -94 -77 -314 -175 -214c-14 -66 -13 -138 59 -122
c41 9 77 62 83 93zM177 260c-4 -9 -11 -24 -16 -42c40 -98 189 158 108 142c-40 -6 -75 -66 -92 -100z" />
    <glyph glyph-name="f" unicode="f" 
d="M320 546c-28 -3 -62 -26 -80 -86c-11 -42 -5 -21 -17 -63h59c3 0 3 -3 1 -5l-20 -30c-2 -2 -6 -5 -8 -5h-42c-11 -39 -21 -78 -32 -117c-4 -18 -3 -35 12 -47c2 -1 2 -3 -1 -4c-22 -12 -31 -29 -37 -47c-7 -25 -13 -50 -20 -75c-6 -24 -4 -48 8 -62c2 -2 0 -5 -2 -4h-139
c-2 -1 -3 2 0 4c20 14 35 38 41 62l20 75c4 18 4 35 -11 47c-2 1 -2 3 1 4c22 12 31 29 37 47l31 117h-32c-2 0 -3 3 -1 5l20 30c2 2 6 5 9 5h15l21 71c31 104 153 138 225 103c27 -14 51 -39 80 -18c4 2 7 -2 5 -5c-42 -34 -83 -69 -124 -104c-6 -4 -11 2 -6 7
c5 6 11 12 15 19c19 29 19 82 -28 76z" />
    <glyph glyph-name="g" unicode="g" horiz-adv-x="321" 
d="M404 470c4 -7 6 -14 5 -24c-2 -21 -16 -44 -41 -56c-10 -4 -24 -5 -33 -2c-4 1 -4 4 -1 6c5 3 8 12 10 17c9 26 -26 35 -52 12c-8 -7 -16 -17 -24 -28c11 -2 20 -5 29 -10c49 -25 54 -89 45 -132c-9 -46 -61 -142 -134 -161c-26 -8 -48 -10 -67 -8c-6 -7 -13 -13 -19 -20
c85 24 192 -28 158 -132c-37 -113 -199 -139 -280 -113c-55 17 -94 75 -56 130c40 59 156 59 161 -2c1 -4 -2 -5 -5 -4c-63 20 -106 -67 -56 -93c11 -6 22 -9 37 -8c114 4 151 148 76 176c-36 14 -99 4 -139 -11c-5 -2 -8 -1 -4 5l75 90c-29 21 -40 57 -40 91
c0 53 26 111 73 157c30 30 72 46 111 48c12 20 28 41 46 59c40 41 101 55 125 13zM248 296c12 91 -23 97 -72 0c-17 -39 -27 -72 -29 -111c-13 -98 28 -93 71 0c18 39 27 72 30 111z" />
    <glyph glyph-name="h" unicode="h" horiz-adv-x="361" 
d="M155 484c5 20 6 36 -7 45c-3 2 -1 4 1 4c34 6 105 44 132 101c1 3 6 3 6 0l-81 -300c21 25 70 62 110 62c34 0 54 -23 55 -50c1 -28 -12 -66 -20 -95c-6 -24 -10 -44 9 -58c2 -1 1 -3 -1 -4c-21 -12 -30 -27 -36 -44l-17 -61c-15 -47 25 -57 50 -5c1 3 5 3 5 0
c-8 -56 -50 -90 -98 -90c-55 0 -62 44 -48 95l15 56c4 19 4 36 -12 49c-2 1 -1 3 1 4c25 13 33 32 39 53c4 13 18 61 17 72c0 7 -4 12 -11 12c-15 0 -58 -36 -80 -82c0 -1 -4 -13 -4 -14c-2 -16 -1 -30 13 -41c2 -1 2 -3 -1 -4c-22 -12 -31 -29 -37 -47
c-7 -25 -13 -50 -20 -75c-6 -24 -4 -48 8 -62c2 -2 0 -5 -2 -4h-139c-2 -1 -3 2 0 4c20 14 35 38 41 62l20 75c4 18 4 35 -11 47c-2 1 -2 3 1 4c22 12 31 29 37 47c22 81 43 163 65 244z" />
    <glyph glyph-name="i" unicode="i" horiz-adv-x="202" 
d="M230 405c1 2 4 2 4 0l-36 -135c-8 -29 -21 -59 3 -77c2 -1 2 -3 -1 -4c-34 -19 -37 -48 -45 -78c-4 -14 -8 -29 -12 -44c-6 -24 -4 -48 8 -62c2 -1 1 -4 -1 -4h-141c-2 0 -1 3 2 4c19 14 34 38 41 62l11 44c8 30 21 59 -3 78c-2 1 -2 3 1 4c34 18 37 48 45 77l14 52
c5 19 6 34 -6 44c-1 2 1 5 3 4c27 -4 93 12 113 35zM236 518c31 0 42 -25 26 -56c-17 -30 -56 -55 -86 -55c-31 0 -42 25 -25 55c16 31 55 56 85 56z" />
    <glyph glyph-name="j" unicode="j" 
d="M221 405c2 2 5 2 4 0l-36 -135c-8 -29 -20 -59 4 -77c2 -1 1 -3 -1 -4c-34 -19 -38 -48 -45 -78c-15 -53 -29 -107 -43 -160c-6 -20 -7 -36 7 -46c2 -1 1 -3 -1 -3c-23 -5 -53 -22 -82 -40c-21 -14 -46 -32 -71 -46c-37 -21 -73 -23 -99 -8c-74 41 -38 161 55 164
c34 0 63 -16 67 -43c1 -8 -6 -8 -9 -4c-58 34 -112 -78 -37 -82c16 -1 47 21 57 31c17 61 33 121 45 165c6 24 13 48 19 72c8 30 20 59 -4 78c-2 1 -1 3 1 4c34 18 38 48 46 77l14 52c5 19 6 34 -6 44c-2 2 0 5 3 4c27 -4 92 12 112 35zM228 518c31 0 42 -25 25 -56
c-16 -30 -55 -55 -86 -55c-30 0 -42 25 -25 55c17 31 55 56 86 56z" />
    <glyph glyph-name="k" unicode="k" horiz-adv-x="343" 
d="M302 147c-12 -30 -24 -65 -27 -76c-2 -11 -2 -20 5 -24c14 -8 31 4 40 19c2 4 4 8 6 13c1 2 5 3 5 0c-2 -55 -40 -90 -89 -90c-50 0 -68 30 -56 75c9 36 40 103 53 136c22 59 -1 65 -32 42l-40 -56c-7 -26 -21 -76 -32 -119c-6 -24 -4 -48 8 -62c2 -2 0 -5 -2 -4h-139
c-2 -1 -3 2 0 4c20 14 35 38 41 62l20 75c4 18 4 35 -11 47c-2 1 -2 3 1 4c22 12 31 29 37 47c22 81 43 163 65 244c5 20 6 36 -7 45c-3 2 -1 4 1 4c34 6 105 44 132 101c1 3 6 3 6 0c-35 -130 -67 -248 -97 -361c24 39 91 133 132 153c42 22 79 15 86 -22
c8 -39 -41 -88 -78 -73c9 8 13 15 15 22c4 18 -13 26 -31 16c-10 -5 -19 -14 -26 -21c-12 -11 -26 -28 -39 -45c9 4 18 8 26 9c24 6 42 0 53 -13c15 -18 16 -38 12 -58c-3 -15 -9 -36 4 -48c2 -1 2 -3 -1 -4c-22 -11 -33 -26 -41 -42z" />
    <glyph glyph-name="l" unicode="l" 
d="M92 246l63 238c6 20 6 36 -7 45c-3 2 -1 4 1 4c34 6 105 44 132 101c1 3 6 3 6 0c-72 -270 -89 -332 -103 -383c-6 -24 -10 -44 9 -58c2 -1 2 -3 -1 -4c-21 -12 -30 -27 -36 -44l-16 -61c-15 -47 25 -57 49 -5c1 3 6 3 5 0c-8 -56 -49 -90 -98 -90c-55 0 -62 44 -48 95
l15 56c4 19 4 36 -12 49c-2 1 -1 3 2 4c24 13 33 32 39 53z" />
    <glyph glyph-name="m" unicode="m" horiz-adv-x="528" 
d="M347 235c-3 -17 -2 -31 13 -42c2 -1 1 -3 -1 -4c-21 -12 -30 -27 -36 -44c-8 -26 -14 -52 -21 -78c-7 -24 -4 -48 8 -62c2 -1 0 -4 -2 -4h-140c-2 0 -2 3 1 4c19 14 35 38 41 62l12 44c3 13 7 24 9 37c3 16 1 30 -13 41c-2 1 -1 3 1 4c23 12 32 29 38 48c0 2 4 15 4 16
c4 13 15 50 14 61c0 7 -4 12 -11 12c-15 0 -58 -36 -80 -82c0 -1 -4 -14 -4 -15c-2 -16 0 -30 13 -40c2 -1 2 -3 -1 -4c-34 -19 -37 -48 -45 -78c-4 -14 -8 -29 -12 -44c-6 -24 -4 -48 8 -62c2 -1 1 -4 -1 -4h-141c-2 0 -1 3 2 4c19 14 34 38 41 62l11 44c8 30 21 59 -3 78
c-2 1 -2 3 1 4c34 18 37 48 45 77l14 52c5 19 6 34 -6 44c-1 2 0 4 3 4c27 -4 93 12 113 35c1 2 4 2 4 0l-19 -71c20 25 70 62 109 62c34 0 54 -23 55 -50c0 -5 0 -10 -1 -16c19 25 71 66 112 66c35 0 54 -23 56 -50c0 -28 -12 -66 -20 -95c-1 -2 -1 -4 -2 -6
c-5 -21 -7 -39 11 -52c2 -1 1 -3 -2 -4c-20 -12 -30 -27 -36 -44l-16 -61c-15 -47 25 -57 50 -5c1 3 5 3 5 0c-8 -56 -50 -90 -98 -90c-55 0 -62 44 -48 95l15 56c4 19 4 36 -12 49c-2 1 -2 3 1 4c23 12 32 30 38 49c0 2 4 14 4 15c3 13 14 50 14 61c-1 7 -4 12 -12 12
c-12 0 -44 -25 -67 -60c-9 -13 -13 -21 -16 -35z" />
    <glyph glyph-name="n" unicode="n" horiz-adv-x="361" 
d="M351 251c-6 -24 -10 -44 9 -58c2 -1 1 -3 -1 -4c-21 -12 -30 -27 -36 -44l-17 -61c-15 -47 25 -57 50 -5c1 3 6 3 5 0c-8 -56 -49 -90 -98 -90c-55 0 -62 44 -48 95l15 56c4 19 4 36 -12 49c-2 1 -1 3 1 4c23 12 32 30 38 49c0 1 4 14 4 15c4 13 15 50 14 61
c0 7 -4 12 -11 12c-15 0 -58 -36 -80 -82c0 -1 -4 -14 -4 -16c-2 -15 0 -29 13 -39c2 -1 2 -3 -1 -4c-34 -19 -37 -48 -45 -78c-4 -14 -8 -29 -12 -44c-6 -24 -4 -48 8 -62c2 -1 1 -4 -1 -4h-141c-2 0 -1 3 2 4c19 14 34 38 41 62l11 44c8 30 21 59 -3 78c-2 1 -2 3 1 4
c34 18 37 48 45 77l14 52c5 19 6 34 -6 44c-1 2 0 5 3 4c27 -4 93 12 113 35c1 2 4 2 4 0l-19 -71c20 25 70 62 109 62c34 0 54 -23 55 -50c1 -28 -12 -66 -20 -95z" />
    <glyph glyph-name="o" unicode="o" horiz-adv-x="384" 
d="M401 193c2 -1 1 -3 -1 -4c-17 -10 -27 -22 -33 -36c0 -2 -1 -4 -2 -5c-40 -89 -122 -156 -199 -156s-124 67 -118 156v5c1 14 -1 26 -14 36c-2 1 -1 3 1 4c15 8 24 18 30 29c36 99 124 175 206 175s130 -76 116 -175c0 -11 4 -21 14 -29zM286 194c26 90 16 163 -22 163
s-89 -73 -115 -163c-26 -89 -16 -162 22 -162s89 73 115 162zM251 302c-5 -41 -4 -76 9 -104c2 -3 1 -5 -2 -7c-27 -28 -47 -64 -63 -104c-2 -7 -9 -7 -9 0c6 40 4 76 -9 104c-1 3 0 5 2 7c27 28 47 63 63 104c3 7 10 7 9 0z" />
    <glyph glyph-name="p" unicode="p" horiz-adv-x="357" 
d="M371 193c2 -1 2 -3 -1 -4c-12 -7 -21 -15 -29 -24c-7 -7 -12 -15 -17 -24c-12 -22 -24 -44 -38 -64c-42 -58 -114 -109 -165 -65c-10 -35 -19 -69 -29 -104c-6 -20 -8 -36 6 -45c2 -1 0 -4 -2 -4c-34 -6 -107 -44 -136 -101c-2 -3 -7 -3 -6 0c36 118 70 235 102 353
c8 30 20 59 -4 78c-2 1 -1 3 1 4c34 18 38 48 46 77l13 52c5 19 6 34 -5 44c-2 2 0 5 2 4c28 -4 93 12 113 35c2 2 4 2 4 0l-11 -43c24 23 80 44 112 28c23 -12 36 -38 37 -73c1 -14 0 -29 -1 -43c-3 -23 -11 -46 -4 -65c3 -6 6 -12 12 -16zM268 234c7 31 27 100 -8 111
c-22 5 -44 -13 -59 -32l-11 -43c-8 -29 -20 -59 4 -77c2 -1 1 -3 -1 -4c-34 -19 -38 -48 -46 -78l-14 -50c42 -47 94 51 108 89c3 10 4 19 1 26c-3 5 -6 9 -11 13c-2 1 -1 3 1 4c22 11 32 25 36 41z" />
    <glyph glyph-name="q" unicode="q" horiz-adv-x="361" 
d="M409 375c2 0 2 -4 -1 -5c-17 -12 -31 -32 -38 -52l-18 -67c-7 -24 -10 -44 9 -58c2 -1 1 -3 -2 -4c-20 -12 -30 -27 -36 -44l-63 -237c-2 -6 -3 -12 -3 -17c16 7 33 11 48 11c34 -3 52 -27 39 -63c-14 -37 -64 -55 -79 -28c-1 2 0 3 2 4c6 2 11 6 15 10c5 7 7 14 5 20
c-10 27 -54 4 -76 -9c-30 -18 -61 -44 -76 -78c-2 -3 -7 -3 -7 0c13 48 48 178 75 280c-73 -70 -161 -43 -158 52c0 12 1 24 3 36c5 25 10 47 -10 63c-2 1 -1 3 1 4c20 11 29 24 36 43c24 52 41 91 89 132c38 32 83 33 108 16c13 -9 20 -23 24 -36c33 32 86 27 113 27z
M271 291c2 31 -6 67 -36 55c-31 -11 -59 -78 -69 -110c-5 -17 -4 -31 12 -43c2 -1 1 -3 -2 -4c-13 -7 -22 -16 -28 -26c-2 -2 -3 -5 -5 -8c-8 -16 -12 -44 -10 -67c4 -56 48 -37 72 -3c12 16 21 36 26 55c4 19 4 36 -12 49c-2 1 -2 3 1 4c24 13 33 32 39 53z" />
    <glyph glyph-name="r" unicode="r" horiz-adv-x="320" 
d="M112 322c5 19 6 34 -6 44c-1 2 0 4 3 4c27 -4 93 12 113 35c1 2 4 2 4 0l-21 -76c31 31 72 59 97 64c29 7 54 1 58 -26c4 -23 -15 -55 -31 -81c-10 -19 -19 -35 -16 -43c4 -10 13 -13 24 -8c9 5 19 15 27 32c1 3 5 3 5 0c-8 -55 -49 -90 -98 -90c-48 0 -63 35 -38 81
c15 25 40 71 18 71c-11 0 -40 -26 -62 -60l-8 -29c-4 -18 -3 -35 12 -47c2 -1 2 -3 -1 -4c-22 -12 -31 -28 -37 -46c-6 -26 -13 -51 -20 -76c-6 -24 -4 -48 8 -62c2 -1 1 -4 -1 -4h-141c-2 0 -1 3 2 4c19 14 34 38 41 62c6 25 13 50 20 75c3 18 3 35 -12 47c-2 1 -2 3 1 4
c22 12 31 29 37 47c7 27 15 55 22 82z" />
    <glyph glyph-name="s" unicode="s" horiz-adv-x="296" 
d="M294 180c25 -61 -14 -133 -72 -168c-51 -30 -118 -30 -161 -9c-58 28 -66 118 6 157c41 23 102 5 82 -45c-10 7 -31 4 -46 -8c-19 -16 -22 -43 -13 -60c9 -14 21 -21 35 -24c22 -6 47 2 65 19c31 29 30 85 0 102c-8 4 -16 6 -30 3c-1 -1 -2 0 0 3c3 9 4 16 4 22
c-2 9 -11 21 -21 32c-13 13 -27 25 -37 42c-26 49 5 110 65 139c43 20 103 21 134 -5c13 -12 21 -28 18 -51c-8 -80 -108 -80 -104 -29c0 4 2 6 6 3c24 -21 69 50 24 69c-29 12 -85 -19 -54 -75c4 -12 16 -26 27 -37c14 -14 28 -25 53 -19c3 1 4 0 2 -1c-9 -27 2 -32 10 -49
c3 -4 5 -8 7 -11z" />
    <glyph glyph-name="t" unicode="t" 
d="M147 454l8 30c6 20 6 36 -7 45c-3 2 -1 4 1 4c34 6 105 44 132 101c1 3 6 3 6 0c-17 -64 -31 -116 -48 -180h42c3 0 3 -2 1 -4l-20 -30c-2 -3 -6 -5 -8 -5h-26c-13 -51 -30 -113 -44 -164c-6 -24 -10 -44 9 -58c2 -1 2 -3 -1 -4c-21 -12 -30 -27 -36 -44l-16 -61
c-15 -47 25 -57 49 -5c1 3 6 3 5 0c-8 -56 -49 -90 -98 -90c-55 0 -62 44 -48 95l15 56c4 19 4 36 -12 49c-2 1 -1 3 2 4c24 13 33 32 39 53l45 169h-61c-3 0 -3 2 -1 5l20 30c2 2 6 4 8 4h44z" />
    <glyph glyph-name="u" unicode="u" horiz-adv-x="362" 
d="M61 132l3 8c4 19 4 36 -12 49c-2 1 -1 3 1 4c25 13 33 32 39 53c7 25 14 51 20 76c6 19 7 34 -5 44c-2 2 0 4 3 4c27 -4 92 12 112 35c2 2 4 2 4 0l-42 -159c-6 -21 -7 -40 10 -53c2 -1 2 -3 -1 -4c-23 -13 -32 -30 -38 -49c-3 -12 -6 -25 -10 -37c-2 -10 -7 -32 -7 -36
c1 -8 4 -12 11 -12c14 0 56 32 79 75c0 2 4 17 4 19c2 15 0 29 -13 40c-2 1 -2 3 1 4c24 13 33 32 39 53c7 25 14 51 20 76c5 19 6 34 -5 44c-2 2 0 4 2 4c28 -4 93 12 113 35c2 2 4 2 4 0l-42 -156c-6 -23 -9 -42 10 -56c2 -1 1 -3 -2 -4c-20 -12 -30 -27 -36 -44l-16 -61
c-15 -47 25 -57 50 -5c1 3 5 3 5 0c-8 -56 -50 -90 -98 -90c-46 0 -59 31 -53 71c-22 -29 -75 -68 -114 -68c-35 0 -53 19 -55 47c-1 26 12 64 19 93z" />
    <glyph glyph-name="v" unicode="v" horiz-adv-x="289" 
d="M112 -26c-4 -7 -16 -9 -17 0l-5 158c-2 26 -4 42 -27 57c-3 1 -2 3 0 4c16 10 21 25 22 41c-1 30 -2 43 -3 74c-1 21 -6 49 -20 59c-4 2 -2 7 3 8h129c3 0 3 -3 1 -5c-15 -13 -20 -38 -22 -62c0 -60 1 -112 0 -172c33 52 61 96 79 126c17 30 56 103 55 148
c0 67 -93 62 -89 0c0 -5 0 -7 -5 -7c-56 0 -64 71 -25 122c45 59 186 53 186 -64c0 -20 -5 -40 -11 -60c-13 -41 -44 -94 -80 -151c-13 -20 -28 -41 -12 -57c1 -1 0 -4 -3 -4c-32 -15 -43 -32 -60 -59z" />
    <glyph glyph-name="w" unicode="w" horiz-adv-x="461" 
d="M283 -26c-4 -7 -16 -9 -16 0c-3 87 -6 157 -9 229c-21 -28 -41 -59 -50 -73l-96 -156c-4 -7 -16 -9 -17 0l-5 158c-2 26 -4 42 -27 57c-3 1 -2 3 0 4c16 10 21 25 22 41c-1 30 -2 43 -3 74c-1 21 -6 49 -20 59c-4 2 -2 7 3 8h129c3 0 3 -3 1 -5c-15 -13 -20 -38 -22 -62
c0 -60 1 -112 0 -172c18 29 55 86 82 130c0 14 -1 28 -1 42c-1 21 -7 49 -20 59c-4 2 -2 7 2 8h130c2 0 3 -3 0 -5c-14 -13 -19 -38 -21 -62c0 -60 1 -112 0 -172c33 52 60 96 78 126s56 103 56 148c-1 67 -93 62 -89 0c0 -5 0 -7 -6 -7c-55 0 -64 71 -25 122
c46 59 186 53 187 -64c0 -20 -6 -40 -12 -60c-12 -41 -44 -94 -80 -151c-12 -20 -27 -41 -12 -57c2 -1 1 -4 -2 -4c-32 -15 -43 -32 -60 -59z" />
    <glyph glyph-name="x" unicode="x" horiz-adv-x="278" 
d="M-19 -60l114 190c13 25 9 45 -9 59c-2 1 -2 3 1 4c20 12 13 36 11 53c-4 27 -5 36 -9 62c-3 24 -16 49 -33 62c-3 2 -3 5 -1 5h141c2 0 3 -3 1 -5c-14 -13 -20 -38 -16 -62c2 -16 2 -14 4 -30l101 167c27 42 57 94 107 112c45 17 84 2 90 -42c6 -45 -43 -91 -80 -72
c-2 1 -3 4 -1 6c7 6 11 12 13 18c7 29 -33 37 -55 18c-22 -17 -42 -56 -55 -77l-94 -157c-9 -21 -15 -45 3 -58c2 -1 1 -3 -1 -4c-15 -8 -10 -42 -8 -53c2 -15 4 -31 7 -52c2 -47 47 -55 59 -6c1 5 6 5 7 1c0 -49 -25 -88 -80 -88c-14 0 -27 4 -38 10c-31 19 -37 62 -42 98
l-83 -136c-19 -31 -41 -72 -68 -104c-32 -39 -71 -60 -102 -56c-42 4 -66 60 -30 99c17 17 40 27 60 17c5 -2 4 -4 1 -7c-6 -6 -10 -12 -11 -18c-3 -13 3 -22 13 -25c38 -10 65 41 83 71z" />
    <glyph glyph-name="y" unicode="y" horiz-adv-x="287" 
d="M194 114c-33 -54 -71 -119 -103 -173c-23 -39 -64 -95 -104 -121c-64 -42 -131 -23 -146 41c-7 48 31 106 74 113c12 2 44 2 28 -12c-64 -55 25 -148 98 -21c2 4 27 45 48 80l-4 111c-1 28 -1 42 -25 57c-3 0 -2 3 0 4c24 16 21 36 21 57c-1 18 -1 24 -3 58
c-1 21 -6 49 -20 59c-4 2 -2 7 3 8h130c2 0 2 -3 0 -5c-15 -13 -23 -38 -21 -62c-1 -54 -2 -87 -2 -140c39 63 92 151 98 161c11 16 15 33 10 42c-1 1 1 4 2 4h89c3 -1 2 -5 -2 -6c-13 -7 -28 -26 -36 -40c-26 -39 -36 -56 -61 -96c-8 -14 -13 -28 -2 -40c2 -1 1 -4 -2 -4
c-27 -13 -40 -27 -53 -48c-5 -8 -11 -17 -17 -27z" />
    <glyph glyph-name="z" unicode="z" horiz-adv-x="316" 
d="M241 230c-7 -13 -11 -26 -1 -37c2 -1 0 -4 -2 -4c-28 -13 -41 -27 -55 -48c-17 -25 -38 -56 -54 -81c-6 -9 -11 -19 -15 -27c17 -11 88 -26 114 12c15 23 11 52 -10 56c-14 2 -32 -9 -37 -21c-2 -4 -6 -4 -6 -1c-8 67 65 95 104 78c59 -30 52 -160 -90 -170
c-48 -3 -117 16 -189 14c-10 0 -7 7 -1 11c18 14 30 35 44 55c9 15 19 30 29 44c13 21 45 58 27 78c-1 1 0 3 3 4c42 18 55 48 78 83c12 18 17 26 28 44c6 7 10 15 14 22h-33c-37 -1 -71 -25 -90 -50c-2 -3 -5 -3 -4 0l34 94h217c3 0 4 -4 -1 -7c-12 -8 -30 -39 -45 -59
c-21 -31 -38 -59 -59 -90z" />
    <glyph glyph-name="agrave" unicode="&#xe0;" horiz-adv-x="335" 
d="M330 79c2 4 5 2 5 0c-8 -56 -50 -91 -98 -91c-41 0 -55 25 -54 58c-103 -102 -215 -16 -139 92c51 70 163 86 194 129c7 26 19 63 14 86c-9 37 -77 9 -80 -52c-2 -24 9 -44 37 -39c3 1 4 -2 2 -4c-8 -8 -24 -18 -41 -24c-58 -21 -95 21 -68 76c38 80 124 100 188 82
c27 -8 48 -28 51 -63c0 -22 -8 -51 -16 -77c-7 -25 -11 -44 9 -59c2 -1 1 -3 -1 -4c-21 -12 -31 -27 -37 -44l-16 -61c-15 -47 25 -57 50 -5zM196 107l26 100c-18 -17 -54 -38 -82 -60c-39 -32 -48 -85 -4 -85c12 0 40 14 60 45zM172 559c-5 10 -2 14 7 14h34
c8 0 16 -3 19 -12c9 -33 26 -100 27 -105c1 -7 0 -10 -7 -10h-10c-10 0 -15 4 -19 11z" />
    <glyph glyph-name="aacute" unicode="&#xe1;" horiz-adv-x="335" 
d="M330 79c2 4 5 2 5 0c-8 -56 -50 -91 -98 -91c-41 0 -55 25 -54 58c-103 -102 -215 -16 -139 92c51 70 163 86 194 129c7 26 19 63 14 86c-9 37 -77 9 -80 -52c-2 -24 9 -44 37 -39c3 1 4 -2 2 -4c-8 -8 -24 -18 -41 -24c-58 -21 -95 21 -68 76c38 80 124 100 188 82
c27 -8 48 -28 51 -63c0 -22 -8 -51 -16 -77c-7 -25 -11 -44 9 -59c2 -1 1 -3 -1 -4c-21 -12 -31 -27 -37 -44l-16 -61c-15 -47 25 -57 50 -5zM196 107l26 100c-18 -17 -54 -38 -82 -60c-39 -32 -48 -85 -4 -85c12 0 40 14 60 45zM365 554l-104 -101c-5 -4 -10 -7 -20 -7h-15
c-7 0 -10 8 -4 14l82 105c5 6 11 8 18 8h37c10 0 15 -9 6 -19z" />
    <glyph glyph-name="acircumflex" unicode="&#xe2;" horiz-adv-x="335" 
d="M285 573h16c6 0 10 -2 11 -9l9 -107c1 -8 -1 -12 -8 -12h-19c-9 0 -14 4 -16 12c-5 21 -10 44 -10 44l-41 -47c-7 -6 -12 -9 -19 -9h-21c-7 0 -11 7 -5 14l87 107c6 7 13 7 16 7zM330 79c2 4 5 2 5 0c-8 -56 -50 -91 -98 -91c-41 0 -55 25 -54 58
c-103 -102 -215 -16 -139 92c51 70 163 86 194 129c7 26 19 63 14 86c-9 37 -77 9 -80 -52c-2 -24 9 -44 37 -39c3 1 4 -2 2 -4c-8 -8 -24 -18 -41 -24c-58 -21 -95 21 -68 76c38 80 124 100 188 82c27 -8 48 -28 51 -63c0 -22 -8 -51 -16 -77c-7 -25 -11 -44 9 -59
c2 -1 1 -3 -1 -4c-21 -12 -31 -27 -37 -44l-16 -61c-15 -47 25 -57 50 -5zM196 107l26 100c-18 -17 -54 -38 -82 -60c-39 -32 -48 -85 -4 -85c12 0 40 14 60 45z" />
    <glyph glyph-name="atilde" unicode="&#xe3;" horiz-adv-x="335" 
d="M330 79c2 4 5 2 5 0c-8 -56 -50 -91 -98 -91c-41 0 -55 25 -54 58c-103 -102 -215 -16 -139 92c51 70 163 86 194 129c7 26 19 63 14 86c-9 37 -77 9 -80 -52c-2 -24 9 -44 37 -39c3 1 4 -2 2 -4c-8 -8 -24 -18 -41 -24c-58 -21 -95 21 -68 76c38 80 124 100 188 82
c27 -8 48 -28 51 -63c0 -22 -8 -51 -16 -77c-7 -25 -11 -44 9 -59c2 -1 1 -3 -1 -4c-21 -12 -31 -27 -37 -44l-16 -61c-15 -47 25 -57 50 -5zM196 107l26 100c-18 -17 -54 -38 -82 -60c-39 -32 -48 -85 -4 -85c12 0 40 14 60 45zM198 479c-11 0 -26 -9 -39 -21
c-8 -9 -19 -7 -17 4c6 31 42 59 76 59c42 0 56 -29 91 -29c12 0 27 9 38 21c8 9 20 7 18 -4c-6 -30 -42 -59 -75 -59c-44 0 -57 29 -92 29z" />
    <glyph glyph-name="adieresis" unicode="&#xe4;" horiz-adv-x="335" 
d="M330 79c2 4 5 2 5 0c-8 -56 -50 -91 -98 -91c-41 0 -55 25 -54 58c-103 -102 -215 -16 -139 92c51 70 163 86 194 129c7 26 19 63 14 86c-9 37 -77 9 -80 -52c-2 -24 9 -44 37 -39c3 1 4 -2 2 -4c-8 -8 -24 -18 -41 -24c-58 -21 -95 21 -68 76c38 80 124 100 188 82
c27 -8 48 -28 51 -63c0 -22 -8 -51 -16 -77c-7 -25 -11 -44 9 -59c2 -1 1 -3 -1 -4c-21 -12 -31 -27 -37 -44l-16 -61c-15 -47 25 -57 50 -5zM196 107l26 100c-18 -17 -54 -38 -82 -60c-39 -32 -48 -85 -4 -85c12 0 40 14 60 45zM353 481c-4 -21 -23 -39 -44 -39
s-35 18 -31 39c3 21 23 39 43 39c21 0 35 -18 32 -39zM241 481c-4 -21 -23 -39 -44 -39s-35 18 -31 39c2 21 22 39 43 39c20 0 35 -18 32 -39z" />
    <glyph glyph-name="amacron" unicode="&#x101;" horiz-adv-x="335" 
d="M186 502h138c7 0 11 -6 9 -13l-4 -15c-2 -7 -9 -13 -16 -13h-138c-7 0 -12 6 -10 13l4 15c2 7 10 13 17 13zM330 79c2 4 5 2 5 0c-8 -56 -50 -91 -98 -91c-41 0 -55 25 -54 58c-103 -102 -215 -16 -139 92c51 70 163 86 194 129c7 26 19 63 14 86c-9 37 -77 9 -80 -52
c-2 -24 9 -44 37 -39c3 1 4 -2 2 -4c-8 -8 -24 -18 -41 -24c-58 -21 -95 21 -68 76c38 80 124 100 188 82c27 -8 48 -28 51 -63c0 -22 -8 -51 -16 -77c-7 -25 -11 -44 9 -59c2 -1 1 -3 -1 -4c-21 -12 -31 -27 -37 -44l-16 -61c-15 -47 25 -57 50 -5zM196 107l26 100
c-18 -17 -54 -38 -82 -60c-39 -32 -48 -85 -4 -85c12 0 40 14 60 45z" />
    <glyph glyph-name="abreve" unicode="&#x103;" horiz-adv-x="335" 
d="M325 511c-8 -38 -42 -69 -78 -69c-38 0 -62 31 -56 69c0 1 0 2 1 4h39c0 -1 0 -3 -1 -4c-2 -15 8 -28 23 -28s29 13 32 28v4h40v-4zM330 79c2 4 5 2 5 0c-8 -56 -50 -91 -98 -91c-41 0 -55 25 -54 58c-103 -102 -215 -16 -139 92c51 70 163 86 194 129c7 26 19 63 14 86
c-9 37 -77 9 -80 -52c-2 -24 9 -44 37 -39c3 1 4 -2 2 -4c-8 -8 -24 -18 -41 -24c-58 -21 -95 21 -68 76c38 80 124 100 188 82c27 -8 48 -28 51 -63c0 -22 -8 -51 -16 -77c-7 -25 -11 -44 9 -59c2 -1 1 -3 -1 -4c-21 -12 -31 -27 -37 -44l-16 -61c-15 -47 25 -57 50 -5z
M196 107l26 100c-18 -17 -54 -38 -82 -60c-39 -32 -48 -85 -4 -85c12 0 40 14 60 45z" />
    <glyph glyph-name="aring" unicode="&#xe5;" horiz-adv-x="335" 
d="M264 549c28 0 48 -25 44 -54c-6 -29 -32 -53 -59 -53c-29 0 -48 24 -43 53c4 29 31 54 58 54zM278 495c1 12 -7 22 -18 22s-22 -10 -24 -22s6 -21 17 -21c12 0 22 9 25 21zM330 79c2 4 5 2 5 0c-8 -56 -50 -91 -98 -91c-41 0 -55 25 -54 58c-103 -102 -215 -16 -139 92
c51 70 163 86 194 129c7 26 19 63 14 86c-9 37 -77 9 -80 -52c-2 -24 9 -44 37 -39c3 1 4 -2 2 -4c-8 -8 -24 -18 -41 -24c-58 -21 -95 21 -68 76c38 80 124 100 188 82c27 -8 48 -28 51 -63c0 -22 -8 -51 -16 -77c-7 -25 -11 -44 9 -59c2 -1 1 -3 -1 -4
c-21 -12 -31 -27 -37 -44l-16 -61c-15 -47 25 -57 50 -5zM196 107l26 100c-18 -17 -54 -38 -82 -60c-39 -32 -48 -85 -4 -85c12 0 40 14 60 45z" />
    <glyph glyph-name="aringacute" unicode="&#x1fb;" horiz-adv-x="335" 
d="M264 549c28 0 48 -25 44 -54c-6 -29 -32 -53 -59 -53c-29 0 -48 24 -43 53c4 29 31 54 58 54zM278 495c1 12 -7 22 -18 22s-22 -10 -24 -22s6 -21 17 -21c12 0 22 9 25 21zM330 79c2 4 5 2 5 0c-8 -56 -50 -91 -98 -91c-41 0 -55 25 -54 58c-103 -102 -215 -16 -139 92
c51 70 163 86 194 129c7 26 19 63 14 86c-9 37 -77 9 -80 -52c-2 -24 9 -44 37 -39c3 1 4 -2 2 -4c-8 -8 -24 -18 -41 -24c-58 -21 -95 21 -68 76c38 80 124 100 188 82c27 -8 48 -28 51 -63c0 -22 -8 -51 -16 -77c-7 -25 -11 -44 9 -59c2 -1 1 -3 -1 -4
c-21 -12 -31 -27 -37 -44l-16 -61c-15 -47 25 -57 50 -5zM196 107l26 100c-18 -17 -54 -38 -82 -60c-39 -32 -48 -85 -4 -85c12 0 40 14 60 45zM400 702l-104 -101c-5 -4 -10 -7 -20 -7h-15c-7 0 -10 8 -4 14l82 105c5 6 11 8 18 8h37c10 0 15 -9 6 -19z" />
    <glyph glyph-name="aogonek" unicode="&#x105;" horiz-adv-x="335" 
d="M330 79c2 4 5 2 5 0c-8 -59 -50 -94 -107 -90c-9 -4 -18 -9 -24 -14c-29 -21 -27 -56 0 -53c5 0 14 2 18 6c2 2 6 1 6 -3c1 -9 -3 -22 -9 -31c-17 -22 -43 -31 -64 -28c-9 1 -17 5 -22 10c-36 33 -9 89 40 120c7 4 13 7 20 11c-8 10 -11 23 -10 39
c-103 -102 -215 -16 -139 92c51 70 163 86 194 129c7 26 19 63 14 86c-9 37 -77 9 -80 -52c-2 -24 9 -44 37 -39c3 1 4 -2 2 -4c-8 -8 -24 -18 -41 -24c-58 -21 -95 21 -68 76c38 80 124 100 188 82c27 -8 48 -28 51 -63c0 -22 -8 -51 -16 -77c-7 -25 -11 -44 9 -59
c2 -1 1 -3 -1 -4c-21 -12 -31 -27 -37 -44l-16 -61c-15 -47 25 -57 50 -5zM196 107l26 100c-18 -17 -54 -38 -82 -60c-39 -32 -48 -85 -4 -85c12 0 40 14 60 45z" />
    <glyph glyph-name="ae" unicode="&#xe6;" horiz-adv-x="456" 
d="M500 235l-191 -49c-17 -43 -27 -146 49 -138c43 4 84 61 90 94c1 3 7 3 8 0c-1 -50 -23 -99 -62 -127c-58 -42 -156 -35 -183 41c0 1 -1 1 -1 2c-32 -35 -96 -63 -136 -57c-53 8 -80 68 -32 137c51 70 163 86 194 129c7 26 19 63 14 86c-9 37 -77 9 -80 -52
c-2 -24 9 -44 37 -39c3 1 4 -2 2 -4c-8 -8 -24 -18 -41 -24c-58 -21 -95 21 -68 76c38 80 124 100 188 82c18 -5 32 -15 42 -31c18 13 37 23 55 29c38 14 86 13 113 -24c29 -39 16 -86 2 -131zM430 266c63 124 -43 144 -104 -30zM194 107l26 100c-18 -17 -54 -38 -82 -60
c-39 -32 -48 -85 -4 -85c12 0 40 14 60 45z" />
    <glyph glyph-name="aeacute" unicode="&#x1fd;" horiz-adv-x="456" 
d="M500 235l-191 -49c-17 -43 -27 -146 49 -138c43 4 84 61 90 94c1 3 7 3 8 0c-1 -50 -23 -99 -62 -127c-58 -42 -156 -35 -183 41c0 1 -1 1 -1 2c-32 -35 -96 -63 -136 -57c-53 8 -80 68 -32 137c51 70 163 86 194 129c7 26 19 63 14 86c-9 37 -77 9 -80 -52
c-2 -24 9 -44 37 -39c3 1 4 -2 2 -4c-8 -8 -24 -18 -41 -24c-58 -21 -95 21 -68 76c38 80 124 100 188 82c18 -5 32 -15 42 -31c18 13 37 23 55 29c38 14 86 13 113 -24c29 -39 16 -86 2 -131zM430 266c63 124 -43 144 -104 -30zM194 107l26 100c-18 -17 -54 -38 -82 -60
c-39 -32 -48 -85 -4 -85c12 0 40 14 60 45zM465 554l-104 -101c-5 -4 -10 -7 -20 -7h-15c-7 0 -10 8 -4 14l82 105c5 6 11 8 18 8h37c10 0 15 -9 6 -19z" />
    <glyph glyph-name="cacute" unicode="&#x107;" horiz-adv-x="299" 
d="M289 142c1 3 7 3 7 0c0 -50 -22 -99 -62 -127c-58 -42 -155 -35 -183 41c-8 22 -10 49 -7 77c2 17 5 45 -9 56c-2 1 -1 3 1 4c17 9 26 22 33 37c11 22 19 40 34 61c14 20 31 40 50 56c108 94 232 55 199 -70c-16 -44 -53 -84 -102 -85c-47 0 -63 42 -36 90c2 4 7 4 7 -1
c-1 -13 9 -21 23 -19c37 8 74 71 57 97c-5 9 -15 11 -25 9c-41 -6 -83 -74 -100 -108c-9 -18 -26 -50 -5 -67c2 -1 1 -3 -1 -4c-26 -14 -32 -36 -33 -64c-1 -25 4 -47 18 -61c55 -52 125 34 134 78zM407 554l-104 -101c-5 -4 -10 -7 -20 -7h-15c-7 0 -10 8 -4 14l82 105
c5 6 11 8 18 8h37c10 0 15 -9 6 -19z" />
    <glyph glyph-name="ccircumflex" unicode="&#x109;" horiz-adv-x="299" 
d="M333 573h16c6 0 10 -2 11 -9l9 -107c1 -8 -1 -12 -8 -12h-19c-9 0 -14 4 -16 12c-5 21 -10 44 -10 44l-41 -47c-7 -6 -12 -9 -19 -9h-21c-7 0 -11 7 -5 14l87 107c6 7 13 7 16 7zM289 142c1 3 7 3 7 0c0 -50 -22 -99 -62 -127c-58 -42 -155 -35 -183 41
c-8 22 -10 49 -7 77c2 17 5 45 -9 56c-2 1 -1 3 1 4c17 9 26 22 33 37c11 22 19 40 34 61c14 20 31 40 50 56c108 94 232 55 199 -70c-16 -44 -53 -84 -102 -85c-47 0 -63 42 -36 90c2 4 7 4 7 -1c-1 -13 9 -21 23 -19c37 8 74 71 57 97c-5 9 -15 11 -25 9
c-41 -6 -83 -74 -100 -108c-9 -18 -26 -50 -5 -67c2 -1 1 -3 -1 -4c-26 -14 -32 -36 -33 -64c-1 -25 4 -47 18 -61c55 -52 125 34 134 78z" />
    <glyph glyph-name="ccaron" unicode="&#x10d;" horiz-adv-x="299" 
d="M272 445h-15c-7 0 -11 3 -11 10l-10 106c-1 9 2 12 9 12h18c9 0 14 -3 16 -12c5 -20 10 -43 10 -43l42 47c6 6 12 8 18 8h21c7 0 11 -6 6 -13l-88 -107c-5 -7 -12 -8 -16 -8zM289 142c1 3 7 3 7 0c0 -50 -22 -99 -62 -127c-58 -42 -155 -35 -183 41c-8 22 -10 49 -7 77
c2 17 5 45 -9 56c-2 1 -1 3 1 4c17 9 26 22 33 37c11 22 19 40 34 61c14 20 31 40 50 56c108 94 232 55 199 -70c-16 -44 -53 -84 -102 -85c-47 0 -63 42 -36 90c2 4 7 4 7 -1c-1 -13 9 -21 23 -19c37 8 74 71 57 97c-5 9 -15 11 -25 9c-41 -6 -83 -74 -100 -108
c-9 -18 -26 -50 -5 -67c2 -1 1 -3 -1 -4c-26 -14 -32 -36 -33 -64c-1 -25 4 -47 18 -61c55 -52 125 34 134 78z" />
    <glyph glyph-name="cdotaccent" unicode="&#x10b;" horiz-adv-x="299" 
d="M289 142c1 3 7 3 7 0c0 -50 -22 -99 -62 -127c-58 -42 -155 -35 -183 41c-8 22 -10 49 -7 77c2 17 5 45 -9 56c-2 1 -1 3 1 4c17 9 26 22 33 37c11 22 19 40 34 61c14 20 31 40 50 56c108 94 232 55 199 -70c-16 -44 -53 -84 -102 -85c-47 0 -63 42 -36 90c2 4 7 4 7 -1
c-1 -13 9 -21 23 -19c37 8 74 71 57 97c-5 9 -15 11 -25 9c-41 -6 -83 -74 -100 -108c-9 -18 -26 -50 -5 -67c2 -1 1 -3 -1 -4c-26 -14 -32 -36 -33 -64c-1 -25 4 -47 18 -61c55 -52 125 34 134 78zM349 481c-4 -21 -23 -39 -44 -39s-35 18 -31 39c2 21 22 39 43 39
c20 0 35 -18 32 -39z" />
    <glyph glyph-name="ccedilla" unicode="&#xe7;" horiz-adv-x="299" 
d="M289 142c1 3 7 3 7 0c0 -50 -22 -99 -62 -127c-24 -18 -55 -27 -85 -25l-2 -2c-7 -7 -12 -10 -2 -13c23 -6 34 -23 34 -41c2 -50 -62 -73 -99 -50c-12 8 -3 21 8 16c60 -23 73 60 17 54c-17 -2 -25 14 -13 25l19 18c-27 9 -49 29 -60 59c-8 22 -10 49 -7 77
c2 17 5 45 -9 56c-2 1 -1 3 1 4c17 9 26 22 33 37c11 22 19 40 34 61c14 20 31 40 50 56c108 94 232 55 199 -70c-16 -44 -53 -84 -102 -85c-47 0 -63 42 -36 90c2 4 7 4 7 -1c-1 -13 9 -21 23 -19c37 8 74 71 57 97c-5 9 -15 11 -25 9c-41 -6 -83 -74 -100 -108
c-9 -18 -26 -50 -5 -67c2 -1 1 -3 -1 -4c-26 -14 -32 -36 -33 -64c-1 -25 4 -47 18 -61c55 -52 125 34 134 78z" />
    <glyph glyph-name="dcaron" unicode="&#x10f;" horiz-adv-x="430" 
d="M320 145l-16 -61c-15 -47 25 -57 50 -5c1 3 5 3 5 0c-8 -56 -50 -90 -98 -90c-40 0 -55 23 -55 55c-73 -78 -167 -51 -164 46c0 12 1 24 3 36c5 25 10 47 -10 63c-2 1 -1 3 1 4c20 11 29 24 36 43c24 52 41 91 89 132c51 43 114 31 126 -8l33 124c5 20 6 36 -8 45
c-2 2 -1 4 1 4c34 6 105 44 132 101c2 3 7 3 6 0c-34 -128 -68 -256 -102 -383c-7 -24 -10 -44 9 -58c2 -1 1 -3 -2 -4c-20 -12 -30 -27 -36 -44zM268 291c1 12 0 25 -3 35c-15 54 -58 3 -77 -33c-11 -22 -21 -45 -25 -57c-5 -17 -4 -31 12 -43c2 -1 1 -3 -2 -4
c-13 -7 -22 -16 -28 -26c-17 -26 -25 -99 1 -108c34 -12 69 41 78 70c1 5 5 25 6 29c1 13 -2 26 -14 35c-2 1 -2 3 1 4c24 13 33 32 39 53zM502 582c21 0 38 -18 34 -42c-4 -33 -37 -66 -78 -79c-16 -5 -17 13 -3 18c15 4 26 17 33 26c-19 1 -29 16 -29 35c0 22 21 42 43 42
z" />
    <glyph glyph-name="dcroat" unicode="&#x111;" horiz-adv-x="361" 
d="M456 483c7 0 12 -6 10 -14l-4 -14c-2 -7 -10 -13 -17 -13h-42c-17 -64 -34 -128 -51 -191c-7 -24 -10 -44 9 -58c2 -1 1 -3 -2 -4c-20 -12 -30 -27 -36 -44l-16 -61c-15 -47 25 -57 50 -5c1 3 5 3 5 0c-8 -56 -50 -90 -98 -90c-40 0 -55 23 -55 55
c-73 -78 -167 -51 -164 46c0 12 1 24 3 36c5 25 10 47 -10 63c-2 1 -1 3 1 4c20 11 29 24 36 43c24 52 41 91 89 132c51 43 114 31 126 -8l22 82h-56c-7 0 -11 6 -9 13l4 14c2 8 9 14 16 14h55l1 1c5 20 6 36 -8 45c-2 2 -1 4 1 4c34 6 105 44 132 101c2 3 7 3 6 0
c-13 -51 -27 -101 -40 -151h42zM271 291c1 12 0 25 -3 35c-15 54 -58 3 -77 -33c-11 -22 -21 -45 -25 -57c-5 -17 -4 -31 12 -43c2 -1 1 -3 -2 -4c-13 -7 -22 -16 -28 -26c-17 -26 -25 -99 1 -108c34 -12 69 41 78 70c1 5 5 25 6 29c1 13 -2 26 -14 35c-2 1 -2 3 1 4
c24 13 33 32 39 53z" />
    <glyph glyph-name="egrave" unicode="&#xe8;" horiz-adv-x="304" 
d="M290 142c1 3 7 3 7 0c0 -50 -22 -99 -62 -127c-58 -42 -155 -35 -183 41c-8 22 -10 49 -7 77c2 17 5 45 -9 56c-2 1 -1 3 1 4c17 9 26 22 33 37c11 22 19 40 34 61c14 20 31 40 50 56c63 55 131 70 169 38c110 -94 -77 -314 -175 -214c-14 -66 -13 -138 59 -122
c41 9 77 62 83 93zM177 260c-4 -9 -11 -24 -16 -42c40 -98 189 158 108 142c-40 -6 -75 -66 -92 -100zM205 559c-5 10 -2 14 7 14h34c8 0 16 -3 19 -12c9 -33 26 -100 27 -105c1 -7 0 -10 -7 -10h-10c-10 0 -15 4 -19 11z" />
    <glyph glyph-name="eacute" unicode="&#xe9;" horiz-adv-x="304" 
d="M290 142c1 3 7 3 7 0c0 -50 -22 -99 -62 -127c-58 -42 -155 -35 -183 41c-8 22 -10 49 -7 77c2 17 5 45 -9 56c-2 1 -1 3 1 4c17 9 26 22 33 37c11 22 19 40 34 61c14 20 31 40 50 56c63 55 131 70 169 38c110 -94 -77 -314 -175 -214c-14 -66 -13 -138 59 -122
c41 9 77 62 83 93zM177 260c-4 -9 -11 -24 -16 -42c40 -98 189 158 108 142c-40 -6 -75 -66 -92 -100zM407 554l-104 -101c-5 -4 -10 -7 -20 -7h-15c-7 0 -10 8 -4 14l82 105c5 6 11 8 18 8h37c10 0 15 -9 6 -19z" />
    <glyph glyph-name="ecircumflex" unicode="&#xea;" horiz-adv-x="304" 
d="M290 142c1 3 7 3 7 0c0 -50 -22 -99 -62 -127c-58 -42 -155 -35 -183 41c-8 22 -10 49 -7 77c2 17 5 45 -9 56c-2 1 -1 3 1 4c17 9 26 22 33 37c11 22 19 40 34 61c14 20 31 40 50 56c63 55 131 70 169 38c110 -94 -77 -314 -175 -214c-14 -66 -13 -138 59 -122
c41 9 77 62 83 93zM177 260c-4 -9 -11 -24 -16 -42c40 -98 189 158 108 142c-40 -6 -75 -66 -92 -100zM333 573h16c6 0 10 -2 11 -9l9 -107c1 -8 -1 -12 -8 -12h-19c-9 0 -14 4 -16 12c-5 21 -10 44 -10 44l-41 -47c-7 -6 -12 -9 -19 -9h-21c-7 0 -11 7 -5 14l87 107
c6 7 13 7 16 7z" />
    <glyph glyph-name="ecaron" unicode="&#x11b;" horiz-adv-x="304" 
d="M290 142c1 3 7 3 7 0c0 -50 -22 -99 -62 -127c-58 -42 -155 -35 -183 41c-8 22 -10 49 -7 77c2 17 5 45 -9 56c-2 1 -1 3 1 4c17 9 26 22 33 37c11 22 19 40 34 61c14 20 31 40 50 56c63 55 131 70 169 38c110 -94 -77 -314 -175 -214c-14 -66 -13 -138 59 -122
c41 9 77 62 83 93zM177 260c-4 -9 -11 -24 -16 -42c40 -98 189 158 108 142c-40 -6 -75 -66 -92 -100zM272 445h-15c-7 0 -11 3 -11 10l-10 106c-1 9 2 12 9 12h18c9 0 14 -3 16 -12c5 -20 10 -43 10 -43l42 47c6 6 12 8 18 8h21c7 0 11 -6 6 -13l-88 -107
c-5 -7 -12 -8 -16 -8z" />
    <glyph glyph-name="edieresis" unicode="&#xeb;" horiz-adv-x="304" 
d="M290 142c1 3 7 3 7 0c0 -50 -22 -99 -62 -127c-58 -42 -155 -35 -183 41c-8 22 -10 49 -7 77c2 17 5 45 -9 56c-2 1 -1 3 1 4c17 9 26 22 33 37c11 22 19 40 34 61c14 20 31 40 50 56c63 55 131 70 169 38c110 -94 -77 -314 -175 -214c-14 -66 -13 -138 59 -122
c41 9 77 62 83 93zM177 260c-4 -9 -11 -24 -16 -42c40 -98 189 158 108 142c-40 -6 -75 -66 -92 -100zM397 481c-4 -21 -23 -39 -44 -39s-35 18 -31 39c3 21 23 39 43 39c21 0 35 -18 32 -39zM285 481c-4 -21 -23 -39 -44 -39s-35 18 -31 39c2 21 22 39 43 39
c20 0 35 -18 32 -39z" />
    <glyph glyph-name="emacron" unicode="&#x113;" horiz-adv-x="304" 
d="M290 142c1 3 7 3 7 0c0 -50 -22 -99 -62 -127c-58 -42 -155 -35 -183 41c-8 22 -10 49 -7 77c2 17 5 45 -9 56c-2 1 -1 3 1 4c17 9 26 22 33 37c11 22 19 40 34 61c14 20 31 40 50 56c63 55 131 70 169 38c110 -94 -77 -314 -175 -214c-14 -66 -13 -138 59 -122
c41 9 77 62 83 93zM177 260c-4 -9 -11 -24 -16 -42c40 -98 189 158 108 142c-40 -6 -75 -66 -92 -100zM234 502h138c7 0 11 -6 9 -13l-4 -15c-2 -7 -9 -13 -16 -13h-138c-7 0 -12 6 -10 13l4 15c2 7 10 13 17 13z" />
    <glyph glyph-name="ebreve" unicode="&#x115;" horiz-adv-x="304" 
d="M290 142c1 3 7 3 7 0c0 -50 -22 -99 -62 -127c-58 -42 -155 -35 -183 41c-8 22 -10 49 -7 77c2 17 5 45 -9 56c-2 1 -1 3 1 4c17 9 26 22 33 37c11 22 19 40 34 61c14 20 31 40 50 56c63 55 131 70 169 38c110 -94 -77 -314 -175 -214c-14 -66 -13 -138 59 -122
c41 9 77 62 83 93zM177 260c-4 -9 -11 -24 -16 -42c40 -98 189 158 108 142c-40 -6 -75 -66 -92 -100zM373 511c-8 -38 -42 -69 -78 -69c-38 0 -62 31 -56 69c0 1 0 2 1 4h39c0 -1 0 -3 -1 -4c-2 -15 8 -28 23 -28s29 13 32 28v4h40v-4z" />
    <glyph glyph-name="edotaccent" unicode="&#x117;" horiz-adv-x="304" 
d="M290 142c1 3 7 3 7 0c0 -50 -22 -99 -62 -127c-58 -42 -155 -35 -183 41c-8 22 -10 49 -7 77c2 17 5 45 -9 56c-2 1 -1 3 1 4c17 9 26 22 33 37c11 22 19 40 34 61c14 20 31 40 50 56c63 55 131 70 169 38c110 -94 -77 -314 -175 -214c-14 -66 -13 -138 59 -122
c41 9 77 62 83 93zM177 260c-4 -9 -11 -24 -16 -42c40 -98 189 158 108 142c-40 -6 -75 -66 -92 -100zM349 481c-4 -21 -23 -39 -44 -39s-35 18 -31 39c2 21 22 39 43 39c20 0 35 -18 32 -39z" />
    <glyph glyph-name="eogonek" unicode="&#x119;" horiz-adv-x="304" 
d="M323 385c110 -94 -77 -314 -175 -214c-14 -66 -13 -138 59 -122c41 9 77 62 83 93c1 3 7 3 7 0c0 -50 -22 -99 -62 -127c-18 -13 -39 -21 -61 -24c-11 -5 -21 -10 -29 -16c-28 -21 -27 -56 0 -53c6 0 15 2 19 6c2 2 6 1 6 -3c0 -9 -3 -22 -9 -31c-17 -22 -43 -31 -65 -28
c-9 1 -16 5 -21 10c-36 32 -9 89 40 119c-28 10 -51 29 -63 61c-8 22 -10 49 -7 77c2 17 5 45 -9 56c-2 1 -1 3 1 4c17 9 26 22 33 37c11 22 19 40 34 61c14 20 31 40 50 56c63 55 131 70 169 38zM177 260c-4 -9 -11 -24 -16 -42c40 -98 189 158 108 142
c-40 -6 -75 -66 -92 -100z" />
    <glyph glyph-name="gcircumflex" unicode="&#x11d;" horiz-adv-x="321" 
d="M358 398c7 0 11 -6 9 -12l-4 -14c-1 -6 -8 -12 -15 -12h-21c21 -30 22 -74 16 -107c-9 -46 -61 -142 -134 -161c-26 -8 -48 -10 -67 -8c-6 -7 -13 -13 -19 -20c85 24 192 -28 158 -132c-37 -113 -199 -139 -280 -113c-55 17 -94 75 -56 130c40 59 156 59 161 -2
c1 -4 -2 -5 -5 -4c-63 20 -106 -67 -56 -93c11 -6 22 -9 37 -8c114 4 151 148 76 176c-36 14 -99 4 -139 -11c-5 -2 -8 -1 -4 5l75 90c-29 21 -40 57 -40 91c0 53 26 111 73 157c42 42 84 48 139 48h96zM249 296c12 91 -23 97 -72 0c-17 -39 -27 -72 -29 -111
c-13 -98 28 -93 71 0c18 39 27 72 30 111zM287 573h16c6 0 10 -2 11 -9l9 -107c1 -8 -1 -12 -8 -12h-19c-9 0 -14 4 -16 12c-5 21 -10 44 -10 44l-41 -47c-7 -6 -12 -9 -19 -9h-21c-7 0 -11 7 -5 14l87 107c6 7 13 7 16 7z" />
    <glyph glyph-name="gbreve" unicode="&#x11f;" horiz-adv-x="321" 
d="M358 398c7 0 11 -6 9 -12l-4 -14c-1 -6 -8 -12 -15 -12h-21c21 -30 22 -74 16 -107c-9 -46 -61 -142 -134 -161c-26 -8 -48 -10 -67 -8c-6 -7 -13 -13 -19 -20c85 24 192 -28 158 -132c-37 -113 -199 -139 -280 -113c-55 17 -94 75 -56 130c40 59 156 59 161 -2
c1 -4 -2 -5 -5 -4c-63 20 -106 -67 -56 -93c11 -6 22 -9 37 -8c114 4 151 148 76 176c-36 14 -99 4 -139 -11c-5 -2 -8 -1 -4 5l75 90c-29 21 -40 57 -40 91c0 53 26 111 73 157c42 42 84 48 139 48h96zM249 296c12 91 -23 97 -72 0c-17 -39 -27 -72 -29 -111
c-13 -98 28 -93 71 0c18 39 27 72 30 111zM328 511c-8 -38 -42 -69 -78 -69c-38 0 -62 31 -56 69c0 1 0 2 1 4h39c0 -1 0 -3 -1 -4c-2 -15 8 -28 23 -28s29 13 32 28v4h40v-4z" />
    <glyph glyph-name="gdotaccent" unicode="&#x121;" horiz-adv-x="321" 
d="M358 398c7 0 11 -6 9 -12l-4 -14c-1 -6 -8 -12 -15 -12h-21c21 -30 22 -74 16 -107c-9 -46 -61 -142 -134 -161c-26 -8 -48 -10 -67 -8c-6 -7 -13 -13 -19 -20c85 24 192 -28 158 -132c-37 -113 -199 -139 -280 -113c-55 17 -94 75 -56 130c40 59 156 59 161 -2
c1 -4 -2 -5 -5 -4c-63 20 -106 -67 -56 -93c11 -6 22 -9 37 -8c114 4 151 148 76 176c-36 14 -99 4 -139 -11c-5 -2 -8 -1 -4 5l75 90c-29 21 -40 57 -40 91c0 53 26 111 73 157c42 42 84 48 139 48h96zM249 296c12 91 -23 97 -72 0c-17 -39 -27 -72 -29 -111
c-13 -98 28 -93 71 0c18 39 27 72 30 111zM298 481c-4 -21 -23 -39 -44 -39s-35 18 -31 39c2 21 22 39 43 39c20 0 35 -18 32 -39z" />
    <glyph glyph-name="gcommaaccent" unicode="&#x123;" horiz-adv-x="321" 
d="M358 398c7 0 11 -6 9 -12l-4 -14c-1 -6 -8 -12 -15 -12h-21c21 -30 22 -74 16 -107c-9 -46 -61 -142 -134 -161c-26 -8 -48 -10 -67 -8c-6 -7 -13 -13 -19 -20c85 24 192 -28 158 -132c-37 -113 -199 -139 -280 -113c-55 17 -94 75 -56 130c40 59 156 59 161 -2
c1 -4 -2 -5 -5 -4c-63 20 -106 -67 -56 -93c11 -6 22 -9 37 -8c114 4 151 148 76 176c-36 14 -99 4 -139 -11c-5 -2 -8 -1 -4 5l75 90c-29 21 -40 57 -40 91c0 53 26 111 73 157c42 42 84 48 139 48h96zM249 296c12 91 -23 97 -72 0c-17 -39 -27 -72 -29 -111
c-13 -98 28 -93 71 0c18 39 27 72 30 111zM268 546c21 0 37 -18 34 -42c-5 -32 -38 -65 -78 -78c-17 -5 -17 12 -3 17c15 5 26 17 33 27c-19 1 -29 16 -29 34c0 23 20 42 43 42z" />
    <glyph glyph-name="hcircumflex" unicode="&#x125;" horiz-adv-x="361" 
d="M155 484c-22 -81 -43 -163 -65 -244c-6 -18 -15 -35 -37 -47c-3 -1 -3 -3 -1 -4c15 -12 15 -29 11 -47l-20 -75c-6 -24 -21 -48 -41 -62c-3 -2 -2 -5 0 -4h139c2 -1 4 2 2 4c-12 14 -14 38 -8 62c7 25 13 50 20 75c6 18 15 35 37 47c3 1 3 3 1 4c-14 11 -15 25 -13 41
c0 1 4 13 4 14c22 46 65 82 80 82c7 0 11 -5 11 -12c1 -11 -13 -59 -17 -72c-6 -21 -14 -40 -39 -53c-2 -1 -3 -3 -1 -4c16 -13 16 -30 12 -49l-15 -56c-14 -51 -7 -95 48 -95c48 0 90 34 98 90c0 3 -4 3 -5 0c-25 -52 -65 -42 -50 5l17 61c6 17 15 32 36 44c2 1 3 3 1 4
c-19 14 -15 34 -9 58c8 29 21 67 20 95c-1 27 -21 50 -55 50c-40 0 -89 -37 -110 -62l81 300c0 3 -5 3 -6 0c-27 -57 -98 -95 -132 -101c-2 0 -4 -2 -1 -4c13 -9 12 -25 7 -45zM320 772h16c6 0 10 -2 11 -9l9 -107c1 -8 -1 -12 -8 -12h-19c-9 0 -14 4 -16 12
c-5 21 -10 44 -10 44l-41 -47c-7 -6 -12 -9 -19 -9h-21c-7 0 -11 7 -5 14l87 107c6 7 13 7 16 7z" />
    <glyph glyph-name="hbar" unicode="&#x127;" horiz-adv-x="361" 
d="M138 502h21c0 11 -2 21 -11 27c-3 2 -1 4 1 4c34 6 105 44 132 101c1 3 6 3 6 0c-12 -44 -24 -88 -35 -132h23c7 0 12 -6 10 -13l-4 -15c-2 -7 -10 -13 -17 -13h-23l-35 -127c21 25 70 62 110 62c34 0 54 -23 55 -50c1 -28 -12 -66 -20 -95c-6 -24 -10 -44 9 -58
c2 -1 1 -3 -1 -4c-21 -12 -30 -27 -36 -44l-17 -61c-15 -47 25 -57 50 -5c1 3 5 3 5 0c-8 -56 -50 -90 -98 -90c-55 0 -62 44 -48 95l15 56c4 19 4 36 -12 49c-2 1 -1 3 1 4c25 13 33 32 39 53c4 13 18 61 17 72c0 7 -4 12 -11 12c-15 0 -58 -36 -80 -82c0 -1 -4 -13 -4 -14
c-2 -16 -1 -30 13 -41c2 -1 2 -3 -1 -4c-22 -12 -31 -29 -37 -47c-7 -25 -13 -50 -20 -75c-6 -24 -4 -48 8 -62c2 -2 0 -5 -2 -4h-139c-2 -1 -3 2 0 4c20 14 35 38 41 62l20 75c4 18 4 35 -11 47c-2 1 -2 3 1 4c22 12 31 29 37 47l59 221h-22c-8 0 -12 6 -10 13l4 15
c2 7 9 13 17 13z" />
    <glyph glyph-name="igrave" unicode="&#xec;" 
d="M222 405c1 2 4 2 4 0l-36 -135c-8 -29 -21 -59 3 -77c2 -1 2 -3 -1 -4c-34 -19 -37 -48 -45 -78c-4 -14 -8 -29 -12 -44c-6 -24 -4 -48 8 -62c2 -1 1 -4 -1 -4h-141c-2 0 -1 3 2 4c19 14 34 38 41 62l11 44c8 30 21 59 -3 78c-2 1 -2 3 1 4c34 18 37 48 45 77l14 52
c5 19 6 34 -6 44c-1 2 1 5 3 4c27 -4 93 12 113 35zM107 559c-5 10 -2 14 7 14h34c8 0 16 -3 19 -12c9 -33 26 -100 27 -105c1 -7 0 -10 -7 -10h-10c-10 0 -15 4 -19 11z" />
    <glyph glyph-name="iacute" unicode="&#xed;" 
d="M222 405c1 2 4 2 4 0l-36 -135c-8 -29 -21 -59 3 -77c2 -1 2 -3 -1 -4c-34 -19 -37 -48 -45 -78c-4 -14 -8 -29 -12 -44c-6 -24 -4 -48 8 -62c2 -1 1 -4 -1 -4h-141c-2 0 -1 3 2 4c19 14 34 38 41 62l11 44c8 30 21 59 -3 78c-2 1 -2 3 1 4c34 18 37 48 45 77l14 52
c5 19 6 34 -6 44c-1 2 1 5 3 4c27 -4 93 12 113 35zM301 554l-104 -101c-5 -4 -10 -7 -20 -7h-15c-7 0 -10 8 -4 14l82 105c5 6 11 8 18 8h37c10 0 15 -9 6 -19z" />
    <glyph glyph-name="icircumflex" unicode="&#xee;" 
d="M222 405c1 2 4 2 4 0l-36 -135c-8 -29 -21 -59 3 -77c2 -1 2 -3 -1 -4c-34 -19 -37 -48 -45 -78c-4 -14 -8 -29 -12 -44c-6 -24 -4 -48 8 -62c2 -1 1 -4 -1 -4h-141c-2 0 -1 3 2 4c19 14 34 38 41 62l11 44c8 30 21 59 -3 78c-2 1 -2 3 1 4c34 18 37 48 45 77l14 52
c5 19 6 34 -6 44c-1 2 1 5 3 4c27 -4 93 12 113 35zM222 573h16c6 0 10 -2 11 -9l9 -107c1 -8 -1 -12 -8 -12h-19c-9 0 -14 4 -16 12c-5 21 -10 44 -10 44l-41 -47c-7 -6 -12 -9 -19 -9h-21c-7 0 -11 7 -5 14l87 107c6 7 13 7 16 7z" />
    <glyph glyph-name="itilde" unicode="&#x129;" 
d="M222 405c1 2 4 2 4 0l-36 -135c-8 -29 -21 -59 3 -77c2 -1 2 -3 -1 -4c-34 -19 -37 -48 -45 -78c-4 -14 -8 -29 -12 -44c-6 -24 -4 -48 8 -62c2 -1 1 -4 -1 -4h-141c-2 0 -1 3 2 4c19 14 34 38 41 62l11 44c8 30 21 59 -3 78c-2 1 -2 3 1 4c34 18 37 48 45 77l14 52
c5 19 6 34 -6 44c-1 2 1 5 3 4c27 -4 93 12 113 35zM139 479c-11 0 -26 -9 -39 -21c-8 -9 -19 -7 -17 4c6 31 42 59 76 59c42 0 56 -29 91 -29c12 0 27 9 38 21c8 9 20 7 18 -4c-6 -30 -42 -59 -75 -59c-44 0 -57 29 -92 29z" />
    <glyph glyph-name="idieresis" unicode="&#xef;" 
d="M222 405c1 2 4 2 4 0l-36 -135c-8 -29 -21 -59 3 -77c2 -1 2 -3 -1 -4c-34 -19 -37 -48 -45 -78c-4 -14 -8 -29 -12 -44c-6 -24 -4 -48 8 -62c2 -1 1 -4 -1 -4h-141c-2 0 -1 3 2 4c19 14 34 38 41 62l11 44c8 30 21 59 -3 78c-2 1 -2 3 1 4c34 18 37 48 45 77l14 52
c5 19 6 34 -6 44c-1 2 1 5 3 4c27 -4 93 12 113 35zM281 481c-4 -21 -23 -39 -44 -39s-35 18 -31 39c3 21 23 39 43 39c21 0 35 -18 32 -39zM169 481c-4 -21 -23 -39 -44 -39s-35 18 -31 39c2 21 22 39 43 39c20 0 35 -18 32 -39z" />
    <glyph glyph-name="imacron" unicode="&#x12b;" 
d="M222 405c1 2 4 2 4 0l-36 -135c-8 -29 -21 -59 3 -77c2 -1 2 -3 -1 -4c-34 -19 -37 -48 -45 -78c-4 -14 -8 -29 -12 -44c-6 -24 -4 -48 8 -62c2 -1 1 -4 -1 -4h-141c-2 0 -1 3 2 4c19 14 34 38 41 62l11 44c8 30 21 59 -3 78c-2 1 -2 3 1 4c34 18 37 48 45 77l14 52
c5 19 6 34 -6 44c-1 2 1 5 3 4c27 -4 93 12 113 35zM123 502h138c7 0 11 -6 9 -13l-4 -15c-2 -7 -9 -13 -16 -13h-138c-7 0 -12 6 -10 13l4 15c2 7 10 13 17 13z" />
    <glyph glyph-name="ibreve" unicode="&#x12d;" 
d="M222 405c1 2 4 2 4 0l-36 -135c-8 -29 -21 -59 3 -77c2 -1 2 -3 -1 -4c-34 -19 -37 -48 -45 -78c-4 -14 -8 -29 -12 -44c-6 -24 -4 -48 8 -62c2 -1 1 -4 -1 -4h-141c-2 0 -1 3 2 4c19 14 34 38 41 62l11 44c8 30 21 59 -3 78c-2 1 -2 3 1 4c34 18 37 48 45 77l14 52
c5 19 6 34 -6 44c-1 2 1 5 3 4c27 -4 93 12 113 35zM264 511c-8 -38 -42 -69 -78 -69c-38 0 -62 31 -56 69c0 1 0 2 1 4h39c0 -1 0 -3 -1 -4c-2 -15 8 -28 23 -28s29 13 32 28v4h40v-4z" />
    <glyph glyph-name="iogonek" unicode="&#x12f;" 
d="M222 405c2 2 4 2 4 0l-36 -135c-8 -29 -20 -59 4 -77c2 -1 1 -3 -1 -4c-34 -19 -38 -48 -46 -78c-4 -14 -7 -29 -11 -44c-7 -24 -4 -48 8 -62c2 -1 0 -4 -2 -4h-28c-18 -5 -58 -25 -68 -47c-7 -18 -1 -34 18 -32c5 0 15 2 19 6c2 2 5 1 5 -3c1 -9 -2 -22 -9 -31
c-17 -22 -42 -31 -64 -28c-9 1 -16 5 -22 10c-35 33 -8 89 41 120c2 1 5 3 8 5h-40c-2 0 -2 3 1 4c19 14 35 38 41 62l12 44c8 30 20 59 -4 78c-2 1 -1 3 1 4c34 18 38 48 46 77l13 52c5 19 6 34 -5 44c-2 2 0 5 2 4c28 -4 93 12 113 35zM229 518c31 0 42 -25 25 -56
c-17 -30 -55 -55 -86 -55c-30 0 -42 25 -25 55c17 31 55 56 86 56z" />
    <glyph glyph-name="dotlessi" unicode="&#x131;" 
d="M222 405c1 2 4 2 4 0l-36 -135c-8 -29 -21 -59 3 -77c2 -1 2 -3 -1 -4c-34 -19 -37 -48 -45 -78c-4 -14 -8 -29 -12 -44c-6 -24 -4 -48 8 -62c2 -1 1 -4 -1 -4h-141c-2 0 -1 3 2 4c19 14 34 38 41 62l11 44c8 30 21 59 -3 78c-2 1 -2 3 1 4c34 18 37 48 45 77l14 52
c5 19 6 34 -6 44c-1 2 1 5 3 4c27 -4 93 12 113 35z" />
    <glyph glyph-name="jcircumflex" unicode="&#x135;" 
d="M221 405c2 2 5 2 4 0l-36 -135c-8 -29 -20 -59 4 -77c2 -1 1 -3 -1 -4c-34 -19 -38 -48 -45 -78c-15 -53 -29 -107 -43 -160c-6 -20 -7 -36 7 -46c2 -1 1 -3 -1 -3c-23 -5 -53 -22 -82 -40c-21 -14 -46 -32 -71 -46c-37 -21 -73 -23 -99 -8c-74 41 -38 161 55 164
c34 0 63 -16 67 -43c1 -8 -6 -8 -9 -4c-58 34 -112 -78 -37 -82c16 -1 47 21 57 31c17 61 33 121 45 165c6 24 13 48 19 72c8 30 20 59 -4 78c-2 1 -1 3 1 4c34 18 38 48 46 77l14 52c5 19 6 34 -6 44c-2 2 0 5 3 4c27 -4 92 12 112 35zM220 573h16c6 0 10 -2 11 -9l9 -107
c1 -8 -1 -12 -8 -12h-19c-9 0 -14 4 -16 12c-5 21 -10 44 -10 44l-41 -47c-7 -6 -12 -9 -19 -9h-21c-7 0 -11 7 -5 14l87 107c6 7 13 7 16 7z" />
    <glyph glyph-name="kcommaaccent" unicode="&#x137;" horiz-adv-x="343" 
d="M302 147c-12 -30 -24 -65 -27 -76c-2 -11 -2 -20 5 -24c14 -8 31 4 40 19c2 4 4 8 6 13c1 2 5 3 5 0c-2 -55 -40 -90 -89 -90c-50 0 -68 30 -56 75c9 36 40 103 53 136c22 59 -1 65 -32 42l-40 -56c-7 -26 -21 -76 -32 -119c-6 -24 -4 -48 8 -62c2 -2 0 -5 -2 -4h-139
c-2 -1 -3 2 0 4c20 14 35 38 41 62l20 75c4 18 4 35 -11 47c-2 1 -2 3 1 4c22 12 31 29 37 47c22 81 43 163 65 244c5 20 6 36 -7 45c-3 2 -1 4 1 4c34 6 105 44 132 101c1 3 6 3 6 0c-35 -130 -67 -248 -97 -361c24 39 91 133 132 153c42 22 79 15 86 -22
c8 -39 -41 -88 -78 -73c9 8 13 15 15 22c4 18 -13 26 -31 16c-10 -5 -19 -14 -26 -21c-12 -11 -26 -28 -39 -45c9 4 18 8 26 9c24 6 42 0 53 -13c15 -18 16 -38 12 -58c-3 -15 -9 -36 4 -48c2 -1 2 -3 -1 -4c-22 -11 -33 -26 -41 -42zM152 -53c21 0 37 -18 34 -42
c-5 -32 -38 -65 -78 -78c-17 -5 -17 12 -3 17c15 5 26 17 33 27c-19 1 -29 16 -29 34c0 23 20 42 43 42z" />
    <glyph glyph-name="lacute" unicode="&#x13a;" 
d="M155 484l-63 -238c-6 -21 -15 -40 -39 -53c-3 -1 -4 -3 -2 -4c16 -13 16 -30 12 -49l-15 -56c-14 -51 -7 -95 48 -95c49 0 90 34 98 90c1 3 -4 3 -5 0c-24 -52 -64 -42 -49 5l16 61c6 17 15 32 36 44c3 1 3 3 1 4c-19 14 -15 34 -9 58c14 51 31 113 103 383
c0 3 -5 3 -6 0c-27 -57 -98 -95 -132 -101c-2 0 -4 -2 -1 -4c13 -9 13 -25 7 -45zM350 752l-104 -101c-5 -4 -10 -7 -20 -7h-15c-7 0 -10 8 -4 14l82 105c5 6 11 8 18 8h37c10 0 15 -9 6 -19z" />
    <glyph glyph-name="lcaron" unicode="&#x13e;" horiz-adv-x="266" 
d="M337 582c21 0 38 -18 34 -42c-4 -33 -37 -66 -78 -79c-16 -5 -17 13 -3 18c15 4 26 17 33 26c-19 1 -29 16 -29 35c0 22 21 42 43 42zM92 246l63 238c6 20 6 36 -7 45c-3 2 -1 4 1 4c34 6 105 44 132 101c1 3 6 3 6 0c-72 -270 -89 -332 -103 -383c-6 -24 -10 -44 9 -58
c2 -1 2 -3 -1 -4c-21 -12 -30 -27 -36 -44l-16 -61c-15 -47 25 -57 49 -5c1 3 6 3 5 0c-8 -56 -49 -90 -98 -90c-55 0 -62 44 -48 95l15 56c4 19 4 36 -12 49c-2 1 -1 3 2 4c24 13 33 32 39 53z" />
    <glyph glyph-name="lcommaaccent" unicode="&#x13c;" 
d="M92 246l63 238c6 20 6 36 -7 45c-3 2 -1 4 1 4c34 6 105 44 132 101c1 3 6 3 6 0c-72 -270 -89 -332 -103 -383c-6 -24 -10 -44 9 -58c2 -1 2 -3 -1 -4c-21 -12 -30 -27 -36 -44l-16 -61c-15 -47 25 -57 49 -5c1 3 6 3 5 0c-8 -56 -49 -90 -98 -90c-55 0 -62 44 -48 95
l15 56c4 19 4 36 -12 49c-2 1 -1 3 2 4c24 13 33 32 39 53zM80 -53c21 0 37 -18 34 -42c-5 -32 -38 -65 -78 -78c-17 -5 -17 12 -3 17c15 5 26 17 33 27c-19 1 -29 16 -29 34c0 23 20 42 43 42z" />
    <glyph glyph-name="lslash" unicode="&#x142;" 
d="M102 288l52 196c6 20 6 36 -7 45c-3 2 -1 4 1 4c34 6 105 44 132 101c1 3 6 3 6 0c-25 -95 -51 -189 -76 -283l86 49c11 7 18 2 15 -11l-6 -26c-3 -13 -15 -28 -26 -35l-89 -51l-7 -26c-6 -24 -10 -44 9 -58c2 -1 2 -3 -1 -4c-21 -12 -30 -27 -36 -44l-16 -61
c-15 -47 24 -57 49 -5c1 3 6 3 5 0c-8 -56 -49 -90 -98 -90c-55 0 -62 44 -48 95l35 130l-91 -52c-11 -6 -17 -1 -14 12l6 25c3 13 14 29 25 35z" />
    <glyph glyph-name="nacute" unicode="&#x144;" horiz-adv-x="361" 
d="M351 251c8 29 21 67 20 95c-1 27 -21 50 -55 50c-39 0 -89 -37 -109 -62l19 71c0 2 -3 2 -4 0c-20 -23 -86 -39 -113 -35c-3 1 -4 -2 -3 -4c12 -10 11 -25 6 -44l-14 -52c-8 -29 -11 -59 -45 -77c-3 -1 -3 -3 -1 -4c24 -19 11 -48 3 -78l-11 -44c-7 -24 -22 -48 -41 -62
c-3 -1 -4 -4 -2 -4h141c2 0 3 3 1 4c-12 14 -14 38 -8 62c4 15 8 30 12 44c8 30 11 59 45 78c3 1 3 3 1 4c-13 10 -15 24 -13 39c0 2 4 15 4 16c22 46 65 82 80 82c7 0 11 -5 11 -12c1 -11 -10 -48 -14 -61c0 -1 -4 -14 -4 -15c-6 -19 -15 -37 -38 -49c-2 -1 -3 -3 -1 -4
c16 -13 16 -30 12 -49l-15 -56c-14 -51 -7 -95 48 -95c49 0 90 34 98 90c1 3 -4 3 -5 0c-25 -52 -65 -42 -50 5l17 61c6 17 15 32 36 44c2 1 3 3 1 4c-19 14 -15 34 -9 58zM396 554l-104 -101c-5 -4 -10 -7 -20 -7h-15c-7 0 -10 8 -4 14l82 105c5 6 11 8 18 8h37
c10 0 15 -9 6 -19z" />
    <glyph glyph-name="ncaron" unicode="&#x148;" horiz-adv-x="361" 
d="M351 251c8 29 21 67 20 95c-1 27 -21 50 -55 50c-39 0 -89 -37 -109 -62l19 71c0 2 -3 2 -4 0c-20 -23 -86 -39 -113 -35c-3 1 -4 -2 -3 -4c12 -10 11 -25 6 -44l-14 -52c-8 -29 -11 -59 -45 -77c-3 -1 -3 -3 -1 -4c24 -19 11 -48 3 -78l-11 -44c-7 -24 -22 -48 -41 -62
c-3 -1 -4 -4 -2 -4h141c2 0 3 3 1 4c-12 14 -14 38 -8 62c4 15 8 30 12 44c8 30 11 59 45 78c3 1 3 3 1 4c-13 10 -15 24 -13 39c0 2 4 15 4 16c22 46 65 82 80 82c7 0 11 -5 11 -12c1 -11 -10 -48 -14 -61c0 -1 -4 -14 -4 -15c-6 -19 -15 -37 -38 -49c-2 -1 -3 -3 -1 -4
c16 -13 16 -30 12 -49l-15 -56c-14 -51 -7 -95 48 -95c49 0 90 34 98 90c1 3 -4 3 -5 0c-25 -52 -65 -42 -50 5l17 61c6 17 15 32 36 44c2 1 3 3 1 4c-19 14 -15 34 -9 58zM272 445h-15c-7 0 -11 3 -11 10l-10 106c-1 9 2 12 9 12h18c9 0 14 -3 16 -12c5 -20 10 -43 10 -43
l42 47c6 6 12 8 18 8h21c7 0 11 -6 6 -13l-88 -107c-5 -7 -12 -8 -16 -8z" />
    <glyph glyph-name="ntilde" unicode="&#xf1;" horiz-adv-x="361" 
d="M351 251c8 29 21 67 20 95c-1 27 -21 50 -55 50c-39 0 -89 -37 -109 -62l19 71c0 2 -3 2 -4 0c-20 -23 -86 -39 -113 -35c-3 1 -4 -2 -3 -4c12 -10 11 -25 6 -44l-14 -52c-8 -29 -11 -59 -45 -77c-3 -1 -3 -3 -1 -4c24 -19 11 -48 3 -78l-11 -44c-7 -24 -22 -48 -41 -62
c-3 -1 -4 -4 -2 -4h141c2 0 3 3 1 4c-12 14 -14 38 -8 62c4 15 8 30 12 44c8 30 11 59 45 78c3 1 3 3 1 4c-13 10 -15 24 -13 39c0 2 4 15 4 16c22 46 65 82 80 82c7 0 11 -5 11 -12c1 -11 -10 -48 -14 -61c0 -1 -4 -14 -4 -15c-6 -19 -15 -37 -38 -49c-2 -1 -3 -3 -1 -4
c16 -13 16 -30 12 -49l-15 -56c-14 -51 -7 -95 48 -95c49 0 90 34 98 90c1 3 -4 3 -5 0c-25 -52 -65 -42 -50 5l17 61c6 17 15 32 36 44c2 1 3 3 1 4c-19 14 -15 34 -9 58zM228 479c-11 0 -26 -9 -39 -21c-8 -9 -19 -7 -17 4c6 31 42 59 76 59c42 0 56 -29 91 -29
c12 0 27 9 38 21c8 9 20 7 18 -4c-6 -30 -42 -59 -75 -59c-44 0 -57 29 -92 29z" />
    <glyph glyph-name="ncommaaccent" unicode="&#x146;" horiz-adv-x="361" 
d="M351 251c-6 -24 -10 -44 9 -58c2 -1 1 -3 -1 -4c-21 -12 -30 -27 -36 -44l-17 -61c-15 -47 25 -57 50 -5c1 3 6 3 5 0c-8 -56 -49 -90 -98 -90c-55 0 -62 44 -48 95l15 56c4 19 4 36 -12 49c-2 1 -1 3 1 4c23 12 32 30 38 49c0 1 4 14 4 15c4 13 15 50 14 61
c0 7 -4 12 -11 12c-15 0 -58 -36 -80 -82c0 -1 -4 -14 -4 -16c-2 -15 0 -29 13 -39c2 -1 2 -3 -1 -4c-34 -19 -37 -48 -45 -78c-4 -14 -8 -29 -12 -44c-6 -24 -4 -48 8 -62c2 -1 1 -4 -1 -4h-141c-2 0 -1 3 2 4c19 14 34 38 41 62l11 44c8 30 21 59 -3 78c-2 1 -2 3 1 4
c34 18 37 48 45 77l14 52c5 19 6 34 -6 44c-1 2 0 5 3 4c27 -4 93 12 113 35c1 2 4 2 4 0l-19 -71c20 25 70 62 109 62c34 0 54 -23 55 -50c1 -28 -12 -66 -20 -95zM160 -53c21 0 37 -18 34 -42c-5 -32 -38 -65 -78 -78c-17 -5 -17 12 -3 17c15 5 26 17 33 27
c-19 1 -29 16 -29 34c0 23 20 42 43 42z" />
    <glyph glyph-name="ograve" unicode="&#xf2;" horiz-adv-x="384" 
d="M401 193c2 -1 1 -3 -1 -4c-17 -10 -27 -22 -33 -36c0 -2 -1 -4 -2 -5c-40 -89 -122 -156 -199 -156s-124 67 -118 156v5c1 14 -1 26 -14 36c-2 1 -1 3 1 4c15 8 24 18 30 29c36 99 124 175 206 175s130 -76 116 -175c0 -11 4 -21 14 -29zM286 194c26 90 16 163 -22 163
s-89 -73 -115 -163c-26 -89 -16 -162 22 -162s89 73 115 162zM251 302c-5 -41 -4 -76 9 -104c2 -3 1 -5 -2 -7c-27 -28 -47 -64 -63 -104c-2 -7 -9 -7 -9 0c6 40 4 76 -9 104c-1 3 0 5 2 7c27 28 47 63 63 104c3 7 10 7 9 0zM209 559c-5 10 -2 14 7 14h34c8 0 16 -3 19 -12
c9 -33 26 -100 27 -105c1 -7 0 -10 -7 -10h-10c-10 0 -15 4 -19 11z" />
    <glyph glyph-name="oacute" unicode="&#xf3;" horiz-adv-x="384" 
d="M401 193c2 -1 1 -3 -1 -4c-17 -10 -27 -22 -33 -36c0 -2 -1 -4 -2 -5c-40 -89 -122 -156 -199 -156s-124 67 -118 156v5c1 14 -1 26 -14 36c-2 1 -1 3 1 4c15 8 24 18 30 29c36 99 124 175 206 175s130 -76 116 -175c0 -11 4 -21 14 -29zM286 194c26 90 16 163 -22 163
s-89 -73 -115 -163c-26 -89 -16 -162 22 -162s89 73 115 162zM251 302c-5 -41 -4 -76 9 -104c2 -3 1 -5 -2 -7c-27 -28 -47 -64 -63 -104c-2 -7 -9 -7 -9 0c6 40 4 76 -9 104c-1 3 0 5 2 7c27 28 47 63 63 104c3 7 10 7 9 0zM408 554l-104 -101c-5 -4 -10 -7 -20 -7h-15
c-7 0 -10 8 -4 14l82 105c5 6 11 8 18 8h37c10 0 15 -9 6 -19z" />
    <glyph glyph-name="ocircumflex" unicode="&#xf4;" horiz-adv-x="384" 
d="M401 193c2 -1 1 -3 -1 -4c-17 -10 -27 -22 -33 -36c0 -2 -1 -4 -2 -5c-40 -89 -122 -156 -199 -156s-124 67 -118 156v5c1 14 -1 26 -14 36c-2 1 -1 3 1 4c15 8 24 18 30 29c36 99 124 175 206 175s130 -76 116 -175c0 -11 4 -21 14 -29zM286 194c26 90 16 163 -22 163
s-89 -73 -115 -163c-26 -89 -16 -162 22 -162s89 73 115 162zM251 302c-5 -41 -4 -76 9 -104c2 -3 1 -5 -2 -7c-27 -28 -47 -64 -63 -104c-2 -7 -9 -7 -9 0c6 40 4 76 -9 104c-1 3 0 5 2 7c27 28 47 63 63 104c3 7 10 7 9 0zM325 573h16c6 0 10 -2 11 -9l9 -107
c1 -8 -1 -12 -8 -12h-19c-9 0 -14 4 -16 12c-5 21 -10 44 -10 44l-41 -47c-7 -6 -12 -9 -19 -9h-21c-7 0 -11 7 -5 14l87 107c6 7 13 7 16 7z" />
    <glyph glyph-name="otilde" unicode="&#xf5;" horiz-adv-x="384" 
d="M401 193c2 -1 1 -3 -1 -4c-17 -10 -27 -22 -33 -36c0 -2 -1 -4 -2 -5c-40 -89 -122 -156 -199 -156s-124 67 -118 156v5c1 14 -1 26 -14 36c-2 1 -1 3 1 4c15 8 24 18 30 29c36 99 124 175 206 175s130 -76 116 -175c0 -11 4 -21 14 -29zM286 194c26 90 16 163 -22 163
s-89 -73 -115 -163c-26 -89 -16 -162 22 -162s89 73 115 162zM251 302c-5 -41 -4 -76 9 -104c2 -3 1 -5 -2 -7c-27 -28 -47 -64 -63 -104c-2 -7 -9 -7 -9 0c6 40 4 76 -9 104c-1 3 0 5 2 7c27 28 47 63 63 104c3 7 10 7 9 0zM246 479c-11 0 -26 -9 -39 -21
c-8 -9 -19 -7 -17 4c6 31 42 59 76 59c42 0 56 -29 91 -29c12 0 27 9 38 21c8 9 20 7 18 -4c-6 -30 -42 -59 -75 -59c-44 0 -57 29 -92 29z" />
    <glyph glyph-name="odieresis" unicode="&#xf6;" horiz-adv-x="384" 
d="M401 193c2 -1 1 -3 -1 -4c-17 -10 -27 -22 -33 -36c0 -2 -1 -4 -2 -5c-40 -89 -122 -156 -199 -156s-124 67 -118 156v5c1 14 -1 26 -14 36c-2 1 -1 3 1 4c15 8 24 18 30 29c36 99 124 175 206 175s130 -76 116 -175c0 -11 4 -21 14 -29zM286 194c26 90 16 163 -22 163
s-89 -73 -115 -163c-26 -89 -16 -162 22 -162s89 73 115 162zM251 302c-5 -41 -4 -76 9 -104c2 -3 1 -5 -2 -7c-27 -28 -47 -64 -63 -104c-2 -7 -9 -7 -9 0c6 40 4 76 -9 104c-1 3 0 5 2 7c27 28 47 63 63 104c3 7 10 7 9 0zM394 481c-4 -21 -23 -39 -44 -39s-35 18 -31 39
c3 21 23 39 43 39c21 0 35 -18 32 -39zM282 481c-4 -21 -23 -39 -44 -39s-35 18 -31 39c2 21 22 39 43 39c20 0 35 -18 32 -39z" />
    <glyph glyph-name="omacron" unicode="&#x14d;" horiz-adv-x="384" 
d="M401 193c2 -1 1 -3 -1 -4c-17 -10 -27 -22 -33 -36c0 -2 -1 -4 -2 -5c-40 -89 -122 -156 -199 -156s-124 67 -118 156v5c1 14 -1 26 -14 36c-2 1 -1 3 1 4c15 8 24 18 30 29c36 99 124 175 206 175s130 -76 116 -175c0 -11 4 -21 14 -29zM286 194c26 90 16 163 -22 163
s-89 -73 -115 -163c-26 -89 -16 -162 22 -162s89 73 115 162zM251 302c-5 -41 -4 -76 9 -104c2 -3 1 -5 -2 -7c-27 -28 -47 -64 -63 -104c-2 -7 -9 -7 -9 0c6 40 4 76 -9 104c-1 3 0 5 2 7c27 28 47 63 63 104c3 7 10 7 9 0zM235 502h138c7 0 11 -6 9 -13l-4 -15
c-2 -7 -9 -13 -16 -13h-138c-7 0 -12 6 -10 13l4 15c2 7 10 13 17 13z" />
    <glyph glyph-name="obreve" unicode="&#x14f;" horiz-adv-x="384" 
d="M401 193c2 -1 1 -3 -1 -4c-17 -10 -27 -22 -33 -36c0 -2 -1 -4 -2 -5c-40 -89 -122 -156 -199 -156s-124 67 -118 156v5c1 14 -1 26 -14 36c-2 1 -1 3 1 4c15 8 24 18 30 29c36 99 124 175 206 175s130 -76 116 -175c0 -11 4 -21 14 -29zM286 194c26 90 16 163 -22 163
s-89 -73 -115 -163c-26 -89 -16 -162 22 -162s89 73 115 162zM251 302c-5 -41 -4 -76 9 -104c2 -3 1 -5 -2 -7c-27 -28 -47 -64 -63 -104c-2 -7 -9 -7 -9 0c6 40 4 76 -9 104c-1 3 0 5 2 7c27 28 47 63 63 104c3 7 10 7 9 0zM367 511c-8 -38 -42 -69 -78 -69
c-38 0 -62 31 -56 69c0 1 0 2 1 4h39c0 -1 0 -3 -1 -4c-2 -15 8 -28 23 -28s29 13 32 28v4h40v-4z" />
    <glyph glyph-name="ohungarumlaut" unicode="&#x151;" horiz-adv-x="384" 
d="M401 193c2 -1 1 -3 -1 -4c-17 -10 -27 -22 -33 -36c0 -2 -1 -4 -2 -5c-40 -89 -122 -156 -199 -156s-124 67 -118 156v5c1 14 -1 26 -14 36c-2 1 -1 3 1 4c15 8 24 18 30 29c36 99 124 175 206 175s130 -76 116 -175c0 -11 4 -21 14 -29zM286 194c26 90 16 163 -22 163
s-89 -73 -115 -163c-26 -89 -16 -162 22 -162s89 73 115 162zM251 302c-5 -41 -4 -76 9 -104c2 -3 1 -5 -2 -7c-27 -28 -47 -64 -63 -104c-2 -7 -9 -7 -9 0c6 40 4 76 -9 104c-1 3 0 5 2 7c27 28 47 63 63 104c3 7 10 7 9 0zM338 536l-104 -101c-5 -4 -10 -7 -20 -7h-15
c-7 0 -10 8 -4 14l82 105c5 6 11 8 18 8h37c10 0 15 -9 6 -19zM462 536l-104 -101c-5 -4 -10 -7 -20 -7h-15c-7 0 -10 8 -4 14l82 105c5 6 11 8 18 8h37c10 0 15 -9 6 -19z" />
    <glyph glyph-name="oslash" unicode="&#xf8;" horiz-adv-x="384" 
d="M410 390c10 9 17 5 14 -9l-6 -27c-3 -13 -14 -32 -25 -41l-10 -8c6 -25 7 -53 3 -83c0 -11 4 -21 14 -29c2 -1 2 -3 -1 -4c-17 -10 -27 -22 -32 -36c-1 -2 -2 -4 -3 -5c-40 -89 -122 -156 -198 -156c-43 0 -76 20 -96 53l-54 -44c-11 -10 -17 -6 -14 8l6 27
c3 13 14 32 25 41l18 15c-4 17 -5 36 -3 56c-1 1 -1 3 -1 5c2 14 -1 26 -14 36c-2 1 -1 3 2 4c14 8 23 18 29 29c36 99 124 175 206 175c40 0 71 -18 92 -47zM285 194c4 13 7 25 9 37l-160 -133c1 -40 14 -66 36 -66c38 0 90 73 115 162zM141 167l158 131
c-2 36 -14 59 -36 59c-38 0 -89 -73 -115 -163c-2 -9 -5 -18 -7 -27z" />
    <glyph glyph-name="oslashacute" unicode="&#x1ff;" horiz-adv-x="384" 
d="M410 390c10 9 17 5 14 -9l-6 -27c-3 -13 -14 -32 -25 -41l-10 -8c6 -25 7 -53 3 -83c0 -11 4 -21 14 -29c2 -1 2 -3 -1 -4c-17 -10 -27 -22 -32 -36c-1 -2 -2 -4 -3 -5c-40 -89 -122 -156 -198 -156c-43 0 -76 20 -96 53l-54 -44c-11 -10 -17 -6 -14 8l6 27
c3 13 14 32 25 41l18 15c-4 17 -5 36 -3 56c-1 1 -1 3 -1 5c2 14 -1 26 -14 36c-2 1 -1 3 2 4c14 8 23 18 29 29c36 99 124 175 206 175c40 0 71 -18 92 -47zM285 194c4 13 7 25 9 37l-160 -133c1 -40 14 -66 36 -66c38 0 90 73 115 162zM141 167l158 131
c-2 36 -14 59 -36 59c-38 0 -89 -73 -115 -163c-2 -9 -5 -18 -7 -27zM407 554l-104 -101c-5 -4 -10 -7 -20 -7h-15c-7 0 -10 8 -4 14l82 105c5 6 11 8 18 8h37c10 0 15 -9 6 -19z" />
    </font>
</defs>
</svg>
